<?xml version="1.0" encoding="utf-8"?>
<!-- Generator: Adobe Illustrator 24.1.3, SVG Export Plug-In . SVG Version: 6.00 Build 0)  -->
<svg version="1.1" id="图层_1" xmlns="http://www.w3.org/2000/svg" xmlns:xlink="http://www.w3.org/1999/xlink" x="0px" y="0px"
	 viewBox="0 0 319.4 249.1" style="enable-background:new 0 0 319.4 249.1;" xml:space="preserve">
<style type="text/css">
	.st0{fill:#3670C9;stroke:#FFFFFF;stroke-width:0.25;}
	.st1{fill:#3670C9;}
	.st2{enable-background:new    ;}
</style>
<path class="st0" d="M116.6,51.5c1.2,0,2.5,0,3.7,0c35.3,0,70.5,0,105.8,0c6.5,0,9.2,2.7,9.2,9.3c0.1,16.9,0.1,33.8,0.1,50.7
	c0,12.2,0,24.3,0,36.5c0,1.8-0.2,3.7-0.8,5.4c-1.1,3-3.7,3.8-6.5,4.2c-0.7,0.1-1.5,0.1-2.2,0.1c-43,0-86.1,0-129.1,0
	c-1.7,0-3.3-0.1-5-0.4c-4.1-0.6-6.1-3-6.3-7.1c0-0.7,0-1.5,0-2.2c0-37.3,0-74.7,0-112c0-6.8,2.6-9.9,9.3-11
	c16.8-2.6,33.6-5.1,50.3-7.7c14.2-2.2,28.5-4.3,42.7-6.5c11.2-1.7,22.4-3.4,33.5-5.2c6.1-1,8.6,0.7,9.6,6.7c0.8,4.6,1.5,9.2,2,13.8
	c0.4,4.5-1.9,6.9-6.4,7.5c-9.3,1.3-18.6,2.8-27.9,4.2c-11.4,1.7-22.9,3.5-34.3,5.2c-8.6,1.3-17.3,2.6-25.9,3.9
	c-6.9,1.1-13.8,2.2-20.7,3.4c-0.4,0.1-0.7,0.2-1.1,0.4C116.6,51.1,116.6,51.3,116.6,51.5z M160.6,144.5c19.6,0,39.2,0,58.7,0
	c3.3,0,3.4,0,3.4-3.3c0-19.3,0-38.7,0-58c0-3.2-0.1-3.3-3.2-3.3c-39.5,0-79,0-118.5-0.1c-2.4,0-2.9,0.8-2.9,3
	c0.1,19.6,0.1,39.2,0,58.7c0,2.4,0.7,2.9,3,2.9C120.9,144.5,140.7,144.5,160.6,144.5z M160.3,154.2c22,0,44,0,66,0
	c4.6,0,5.4-0.9,5.4-5.4c0-18.8,0-37.7,0-56.5c0-3.4,0.1-6.8,0-10.2c0-0.7-0.4-1.8-0.9-2c-2.7-1.3-4.8,0.1-4.8,3.1
	c0,20.3,0,40.7,0,61c0,3.6-0.3,3.9-3.8,3.9c-41.2,0-82.3,0-123.5,0c-3.6,0-3.8-0.3-3.8-3.9c0-20.4,0-40.8,0-61.2
	c0-2.5-0.9-3.1-3.2-3.1c-2.3,0-2.7,0.8-2.7,2.9c0.1,21.7,0,43.5,0,65.2c0,1,0,2,0.1,3c0.2,1.8,1.2,2.9,3,3.1
	c1.1,0.1,2.2,0.1,3.2,0.1C117,154.2,138.6,154.2,160.3,154.2z M189.6,14.3c-0.1,0.5-0.2,0.7-0.1,0.8c2.8,6.1,5.6,12.2,8.5,18.3
	c0.3,0.5,1.5,1,2.2,0.9c8.6-1.2,17.3-2.6,25.9-3.9c2.9-0.5,3.6-1.3,3.3-4.2c-0.5-4.4-1.3-8.9-1.9-13.3c-0.5-3.3-1.4-4.1-4.6-3.6
	c-9.4,1.3-18.7,2.7-28.1,4.2C193,13.6,191.3,14,189.6,14.3z M104.7,76.4c4.6,0,9.2-0.1,13.7,0c1.7,0,2.5-0.6,3-2.2
	c1.6-5.7,3.3-11.3,5.1-17c0.5-1.8,0-2.3-1.7-2.2c-2.5,0.1-5,0.1-7.5,0c-1.5-0.1-2.4,0.6-3.1,1.9c-2.7,4.8-8.1,6.8-13.3,5
	c-2.7-0.9-4.9-2.6-6.1-5.3c-1.1-2.4-3.1-1.7-4.7-1.5c-0.5,0.1-1.1,1.8-1.1,2.7c-0.1,5.4,0,10.8-0.1,16.2c0,1.8,0.6,2.3,2.3,2.3
	C95.7,76.3,100.2,76.4,104.7,76.4z M200,75.9c0.6,0.3,0.7,0.4,0.9,0.4c9.7,0,19.3,0,29,0.1c1.6,0,2-0.7,2-2.2c0-4.7,0-9.3,0-14
	c0-3.7-1.6-5.3-5.4-5.3c-4.3,0-8.7,0-13,0c-7,0-7.1,0-9.2,6.7C202.7,66.3,201.4,71.1,200,75.9z M89.1,50.7c3.5,0.5,3.8,0.3,4.9-2.8
	c1.4-3.9,4-6.6,8.1-7.4c4.6-0.9,8.6,0.4,11.4,4.3c0.4,0.5,0.7,1.5,1.1,1.6c1.5,0.3,2.9,0.5,4.5,0.3c1.2-0.2,0.3-2-0.1-2.8
	c-2.4-5.3-4.8-10.6-7.4-15.8c-0.4-0.8-1.8-1.7-2.6-1.6c-5.3,0.7-10.5,1.5-15.7,2.5c-2.2,0.4-4,1.9-4.1,4.1
	C89,39,89.1,44.8,89.1,50.7z M135.2,75.8c0.4,0.3,0.5,0.5,0.6,0.5c5.4,0,10.8,0.1,16.2,0c0.5,0,1.3-0.8,1.4-1.3
	c1.9-5.9,3.6-11.9,5.4-17.9c0.5-1.8-0.3-2.2-1.9-2.2c-3,0.1-6,0-9,0c-6.5,0-6.5,0-8.4,6.2c-0.1,0.2-0.2,0.5-0.3,0.7
	C138,66.6,136.6,71.2,135.2,75.8z M125.4,24.1c0.1,0.7,0,1,0.1,1.2c2.7,5.9,5.4,11.8,8.3,17.6c0.3,0.7,1.7,1.3,2.5,1.2
	c4-0.4,8.1-1.1,12.1-1.8c1.2-0.2,2.3-0.5,3.8-0.9c-2.5-5.3-4.7-10.2-7-15c-2.4-5.1-2.5-5-7.9-4.2c-0.6,0.1-1.2,0.1-1.7,0.2
	C132.1,22.9,128.7,23.5,125.4,24.1z M167.6,75.8c-0.2,0.4,0.8,0.5,1.1,0.5c5.1,0,10.2,0.1,15.2,0c0.7,0,1.8-1.1,2.1-1.9
	c1.8-5.7,3.5-11.5,5.2-17.2c0.5-1.7,0-2.3-1.7-2.3c-4.6,0.1-9.2,0.1-13.7,0c-1.5,0-2.3,0.6-2.7,2C171.4,63.2,169.5,69.4,167.6,75.8z
	 M184.3,36.6c-3.1-6.6-5.9-12.7-8.9-18.8c-0.3-0.6-1.6-1.2-2.4-1.1c-4.5,0.5-9,1.4-13.6,1.9c-2.2,0.3-2.2,1.1-1.5,2.8
	c2.5,5.3,5,10.7,7.5,16c0.6,1.4,1.4,2.1,3.1,1.6c1.7-0.5,3.5-0.5,5.2-0.8C177.1,37.8,180.5,37.3,184.3,36.6z M104.6,43.8
	c-4.3,0.1-7.8,3.7-7.7,7.9c0.1,4,3.9,7.5,7.9,7.4c4.3-0.1,7.5-3.5,7.4-7.8C112.1,46.8,109,43.7,104.6,43.8z M170.1,55
	c-2.3,0-4.2-0.1-6,0c-0.4,0-1.1,0.6-1.2,1c-2,6.6-4,13.1-6.1,20.3c1.8,0,3.1,0,4.5,0c2.6,0,2.9-0.4,3.3-2.4c0.7-2.9,1.7-5.7,2.6-8.6
	C168.1,62.1,169,58.8,170.1,55z M146.7,20.8c0.1,0.6,0.1,0.9,0.3,1.2c2.7,5.9,5.4,11.8,8.2,17.6c0.3,0.6,1.4,1,2.2,1.1
	c1,0.1,2-0.3,3-0.3c1.8-0.1,2.4-0.8,1.5-2.6c-2.6-5.5-5.2-11-7.8-16.4c-0.3-0.6-1.2-1.5-1.7-1.5C150.5,20,148.7,20.5,146.7,20.8z
	 M189.3,75.7c4.9,1.8,6.9,0.9,8.1-3.5c1.3-4.6,2.7-9.2,4.1-13.8c1-3.3,1-3.4-2.4-3.4c-0.7,0-1.4-0.2-2,0c-0.8,0.3-1.9,0.9-2.1,1.5
	C193.1,62.9,191.2,69.2,189.3,75.7z M115,25.6c-0.1,0.5-0.2,0.7-0.1,0.8c2.8,6.2,5.7,12.4,8.5,18.5c0.2,0.4,0.9,0.9,1.3,0.9
	c1.9-0.2,3.7-0.6,5.5-0.9c0.1-0.4,0.2-0.6,0.1-0.7c-2.8-6.2-5.7-12.4-8.6-18.5c-0.2-0.5-1.2-0.9-1.8-0.8
	C118.3,25,116.6,25.3,115,25.6z M178.6,16c0.4,1.1,0.7,2,1.1,2.8c2.4,5,4.9,10,7.1,15.1c0.8,1.7,1.7,2.3,3.4,1.9
	c0.7-0.2,1.5-0.3,2.2-0.3c1.9-0.1,2.2-1,1.4-2.6c-2.7-5.5-5.3-11.1-8-16.7c-0.3-0.6-1.2-1.3-1.8-1.3C182.3,15.1,180.6,15.6,178.6,16
	z M129.4,76.6c1.3,0,2.5-1.1,3.1-3.5c1.2-4.6,2.7-9.1,4-13.6s1.3-4.6-3.5-4.4c-0.9,0-2.3,0.6-2.5,1.3c-2,6.1-3.8,12.2-5.5,18.4
	c-0.2,0.9,0,1.3,1.2,1.7C127.3,76.7,128.3,76.6,129.4,76.6z"/>
<path class="st1" d="M145.4,92.6c0-2.7,1.1-3.4,3.4-2.1c11.2,6.3,22.5,12.6,33.7,19c4,2.3,4.1,3.2,0.1,5.4
	c-11.3,6.5-22.7,12.8-34.1,19.2c-1.9,1.1-2.8,0.7-3-1.7 M148.9,94.6c0,12,0,23.4,0,35.3c10.5-5.9,20.7-11.7,31.3-17.7
	C169.6,106.3,159.4,100.5,148.9,94.6z"/>
<g class="st2">
	<path class="st1" d="M25.7,209.8c0.7-0.1,1.4-0.2,2.1-0.4v-7.9c0-0.9,0.4-1.3,1.3-1.3h8.3c0.2,0,0.5,0.1,0.8,0.2s0.4,0.5,0.4,1.1
		v14.4c0,0.3,0,0.6-0.1,0.8c-0.1,0.2-0.3,0.4-0.6,0.6c-1.8,1.2-3.9,2.1-6.4,2.7c-2.4,0.6-5,1-7.7,1c-3.2,0-6.1-0.6-8.9-1.8
		c-2.8-1.2-5.2-2.8-7.3-4.9c-2.1-2.1-3.7-4.5-4.9-7.3c-1.2-2.8-1.8-5.8-1.8-8.9s0.6-6.1,1.8-8.9s2.8-5.2,4.9-7.2
		c2.1-2,4.5-3.7,7.3-4.8c2.8-1.2,5.7-1.8,8.9-1.8c2.7,0,5.1,0.4,7.2,1.1c2.1,0.7,4,1.7,5.8,3.1c0.3,0.2,0.5,0.5,0.6,0.8
		c0.1,0.3,0,0.6-0.2,0.9l-5,7c-0.2,0.4-0.5,0.5-0.9,0.5c-0.3,0-0.6-0.1-0.9-0.3c-0.9-0.6-1.9-1.2-3-1.6c-1.1-0.4-2.3-0.6-3.6-0.6
		c-1.7,0-3.3,0.3-4.7,0.9c-1.4,0.6-2.6,1.5-3.6,2.5c-1,1.1-1.7,2.3-2.3,3.7c-0.5,1.4-0.8,3-0.8,4.6c0,1.6,0.3,3.2,0.8,4.6
		c0.6,1.5,1.3,2.7,2.3,3.8c1,1.1,2.2,1.9,3.5,2.6c1.3,0.6,2.8,0.9,4.5,0.9C24.3,209.9,25,209.9,25.7,209.8z"/>
	<path class="st1" d="M46.1,183.6c0-0.9,0.4-1.4,1.3-1.4h5.1c0.4,0,0.9,0.1,1.2,0.2c0.4,0.2,0.7,0.6,1,1.3l1.3,3.3
		c0.6-0.7,1.2-1.3,1.8-2s1.2-1.2,1.9-1.7c0.7-0.5,1.5-0.9,2.4-1.2c0.9-0.3,1.9-0.4,3.1-0.4c1.3,0,2.4,0.2,3.6,0.6
		c1.2,0.4,2.2,0.9,3.2,1.4c0.9,0.5,1.7,1.1,2.4,1.6s1.1,0.9,1.4,1.1c0.5,0.4,0.8,0.9,0.8,1.2c0,0.4-0.2,0.8-0.4,1.2l-3.9,5.5
		c-0.3,0.4-0.6,0.6-0.9,0.6c-0.3,0-0.6-0.2-1-0.4c-0.3-0.2-0.6-0.5-1-0.9s-0.8-0.6-1.3-0.9c-0.5-0.3-1.1-0.6-1.7-0.8
		c-0.6-0.2-1.3-0.3-2.2-0.3c-0.9,0-1.8,0.1-2.6,0.4s-1.5,0.7-2.1,1.3c-0.6,0.6-1.1,1.3-1.5,2.1c-0.4,0.9-0.5,1.8-0.5,2.9V219
		c0,0.9-0.4,1.3-1.4,1.3h-8.8c-0.9,0-1.3-0.4-1.3-1.3L46.1,183.6L46.1,183.6z"/>
	<path class="st1" d="M106.3,207.8c0.4,0,0.6,0.2,0.9,0.4l3.8,5.3c0.3,0.4,0.4,0.8,0.4,1.1s-0.2,0.6-0.5,0.9c-1.3,1.1-2.5,2-3.7,2.7
		c-1.2,0.7-2.4,1.3-3.6,1.7c-1.2,0.4-2.4,0.6-3.5,0.8c-1.2,0.2-2.3,0.2-3.5,0.2c-2.6,0-5-0.5-7.4-1.5c-2.4-1-4.4-2.4-6.3-4.2
		c-1.8-1.7-3.2-3.8-4.3-6.2c-1.1-2.4-1.6-4.9-1.6-7.6c0-2.7,0.4-5.2,1.4-7.6c0.9-2.4,2.2-4.4,3.9-6.2c1.7-1.8,3.7-3.2,6.1-4.2
		c2.4-1,5-1.5,7.8-1.5c1.2,0,2.4,0.2,3.8,0.4c1.3,0.3,2.7,0.8,4,1.5c1.3,0.6,2.6,1.5,3.8,2.5s2.3,2.3,3.2,3.7
		c0.9,1.4,1.6,3.1,2.2,4.9c0.6,1.8,0.8,3.9,0.8,6.2c0,0.8-0.1,1.5-0.2,1.9s-0.4,0.9-0.8,1.1s-0.8,0.4-1.4,0.5
		c-0.6,0.1-1.3,0.1-2.1,0.1H88c0.3,1,0.7,1.9,1.3,2.7c0.5,0.8,1.2,1.5,1.9,2.1c0.7,0.6,1.6,1,2.5,1.3c0.9,0.3,1.9,0.4,2.8,0.4
		c1.4,0,2.6-0.1,3.5-0.3c0.9-0.2,1.7-0.5,2.4-0.9s1.2-0.7,1.7-1.1c0.4-0.4,0.9-0.8,1.4-1.1C105.8,207.9,106.1,207.8,106.3,207.8z
		 M93.6,191.3c-0.7,0.3-1.4,0.7-2.1,1.2s-1.2,1.1-1.7,1.7c-0.5,0.6-0.9,1.4-1.3,2.2h15.1c-0.8-1.7-1.8-3.1-3.2-4.1s-2.8-1.4-4.6-1.4
		C95.1,190.9,94.3,191.1,93.6,191.3z"/>
	<path class="st1" d="M120.6,172.5c0-0.5,0.1-0.8,0.4-1.1c0.3-0.2,0.6-0.3,1.1-0.3h8.4c0.4,0,0.8,0.1,1,0.4c0.3,0.2,0.4,0.6,0.4,1
		v46.4c0,0.4-0.1,0.8-0.4,1c-0.2,0.2-0.6,0.4-1.1,0.4H122c-0.4,0-0.8-0.1-1.1-0.3c-0.2-0.2-0.4-0.6-0.4-1.1V172.5z"/>
	<path class="st1" d="M139.4,193.8c1-2.4,2.4-4.4,4.2-6.2c1.8-1.8,3.9-3.2,6.3-4.2c2.4-1,5-1.5,7.6-1.5c2.7,0,5.3,0.5,7.7,1.5
		c2.4,1,4.5,2.4,6.3,4.2c1.8,1.8,3.2,3.9,4.2,6.2c1,2.4,1.5,4.9,1.5,7.6c0,2.7-0.5,5.2-1.5,7.6c-1.1,2.4-2.4,4.5-4.2,6.2
		c-1.8,1.8-3.9,3.2-6.3,4.2c-2.4,1-5,1.5-7.6,1.5c-2.7,0-5.3-0.5-7.6-1.5c-2.4-1-4.5-2.4-6.3-4.2c-1.8-1.7-3.2-3.8-4.2-6.2
		c-1-2.4-1.5-4.9-1.5-7.6C137.9,198.7,138.4,196.1,139.4,193.8z M149.5,205c0.4,1.1,1,2.2,1.8,3c0.8,0.9,1.7,1.5,2.7,2.1
		c1.1,0.5,2.3,0.8,3.6,0.8c1.3,0,2.5-0.2,3.5-0.8c1.1-0.5,2-1.2,2.7-2.1c0.8-0.9,1.3-1.9,1.8-3c0.4-1.1,0.6-2.4,0.6-3.6
		c0-1.3-0.2-2.5-0.6-3.6c-0.4-1.1-1-2.2-1.7-3c-0.8-0.9-1.7-1.5-2.7-2.1c-1.1-0.5-2.2-0.8-3.5-0.8c-1.3,0-2.5,0.2-3.6,0.8
		c-1.1,0.5-2,1.2-2.8,2.1c-0.8,0.9-1.4,1.9-1.8,3c-0.4,1.1-0.6,2.4-0.6,3.7C148.9,202.7,149.1,203.8,149.5,205z"/>
	<path class="st1" d="M207.5,183.6c0-0.5,0.1-0.8,0.4-1.1c0.2-0.2,0.6-0.3,1.1-0.3h8.6c0.9,0,1.4,0.4,1.4,1.4v35.3
		c0,0.9-0.4,1.4-1.4,1.4h-5.5c-0.5,0-0.9-0.2-1.3-0.5c-0.4-0.3-0.7-0.7-0.8-1.2l-0.9-3.3c-0.8,1.1-1.7,1.9-2.6,2.7
		c-0.9,0.7-1.9,1.3-3,1.7c-1,0.4-2.1,0.8-3.2,0.9c-1.1,0.2-2.2,0.3-3.2,0.3c-0.8,0-1.7-0.1-2.8-0.3s-2.1-0.5-3.1-1
		c-1.1-0.4-2.1-1.1-3-1.9c-1-0.8-1.9-1.8-2.6-3c-0.8-1.2-1.4-2.7-1.8-4.3c-0.4-1.7-0.7-3.7-0.7-5.9v-21c0-0.9,0.4-1.4,1.4-1.4h8.4
		c0.9,0,1.4,0.4,1.4,1.4v20.2c0,0.9,0.2,1.7,0.5,2.5s0.8,1.5,1.4,2.1c0.6,0.6,1.3,1.1,2.2,1.4c0.9,0.4,1.8,0.5,2.8,0.5
		c0.5,0,1.1-0.1,1.9-0.3c0.7-0.2,1.5-0.5,2.1-1c0.7-0.5,1.3-1.2,1.7-2c0.5-0.9,0.7-1.9,0.7-3.2V183.6z"/>
	<path class="st1" d="M226.1,183.5c0-0.4,0.1-0.8,0.4-1c0.2-0.2,0.6-0.3,1-0.3h6.3c0.3,0,0.6,0.1,0.8,0.2s0.4,0.4,0.5,0.6
		c0.1,0.2,0.2,0.5,0.3,0.8c0.1,0.3,0.1,0.6,0.2,0.8l0.6,2.6c1.3-1.6,2.9-2.9,4.7-3.9c1.8-1,4-1.5,6.4-1.5c2.5,0,4.9,0.4,7.1,1.4
		c2.2,0.9,4.1,2.2,5.7,3.9c1.6,1.7,2.9,3.7,3.9,6.1s1.4,5,1.4,8c0,2.7-0.4,5.2-1.3,7.6c-0.9,2.4-2.1,4.5-3.7,6.2
		c-1.6,1.8-3.5,3.2-5.8,4.2c-2.2,1-4.8,1.5-7.5,1.5c-1.9,0-3.7-0.4-5.4-1.1c-1.7-0.7-3-1.7-4.3-2.8v13.8c0,0.9-0.4,1.3-1.3,1.3h-8.7
		c-0.4,0-0.8-0.1-1-0.3c-0.2-0.2-0.4-0.6-0.4-1L226.1,183.5L226.1,183.5z M237.3,204.8c0.4,1.1,1,2.1,1.7,3c0.8,0.9,1.7,1.6,2.8,2.1
		c1.1,0.5,2.4,0.8,3.8,0.8c1.4,0,2.7-0.2,3.8-0.7c1.1-0.5,2.1-1.1,2.9-2c0.8-0.9,1.4-1.8,1.9-3c0.4-1.1,0.6-2.4,0.6-3.7
		s-0.2-2.6-0.6-3.7c-0.4-1.2-1-2.2-1.7-3s-1.7-1.5-2.8-2c-1.1-0.5-2.4-0.7-3.9-0.7c-1.3,0-2.5,0.3-3.6,0.8c-1.1,0.6-2,1.3-2.8,2.2
		c-0.8,0.9-1.4,1.9-1.9,3c-0.4,1.1-0.6,2.3-0.6,3.5C236.7,202.5,236.9,203.7,237.3,204.8z"/>
	<path class="st1" d="M271.6,169.8c0-0.7,0.2-1.3,0.5-1.8c0.4-0.5,1-0.7,1.9-0.7h6.9c0.8,0,1.4,0.2,1.7,0.6c0.3,0.4,0.5,1.1,0.5,1.8
		v5.6c0,0.9-0.2,1.4-0.6,1.7c-0.4,0.3-0.9,0.4-1.7,0.4h-6.9c-0.7,0-1.3-0.2-1.8-0.4c-0.4-0.3-0.7-0.9-0.7-1.7L271.6,169.8
		L271.6,169.8z M271.7,183.5c0-0.4,0.1-0.8,0.4-1s0.6-0.3,0.9-0.3h8.9c0.4,0,0.7,0.1,0.9,0.4s0.4,0.6,0.4,0.9V219
		c0,0.9-0.4,1.3-1.3,1.3H273c-0.9,0-1.3-0.4-1.3-1.3V183.5z"/>
	<path class="st1" d="M289.3,214.1c-0.1-0.2-0.2-0.4-0.3-0.6c0-0.2,0-0.4,0.1-0.7c0.1-0.2,0.2-0.5,0.5-0.8l4.2-4.1
		c0.2-0.2,0.5-0.4,0.8-0.4c0.3,0,0.7,0.2,1.1,0.6c0.5,0.4,1,0.9,1.6,1.3c0.6,0.4,1.1,0.8,1.8,1.1c0.6,0.3,1.3,0.6,1.9,0.7
		c0.6,0.2,1.3,0.3,2,0.3c0.8,0,1.4-0.1,1.9-0.2s0.9-0.3,1.3-0.6s0.5-0.5,0.6-0.9s0.2-0.6,0.2-1.1c0-0.4-0.1-0.8-0.2-1.1
		c-0.2-0.3-0.4-0.6-0.9-0.9c-0.4-0.2-1-0.5-1.8-0.8s-1.7-0.6-3-0.9c-1.9-0.6-3.6-1.2-5-2c-1.4-0.8-2.5-1.7-3.5-2.7
		c-0.9-1.1-1.6-2.2-2-3.6c-0.4-1.3-0.6-2.8-0.6-4.5c0-1.5,0.3-3,0.9-4.3c0.6-1.3,1.5-2.4,2.8-3.4s2.7-1.7,4.5-2.2
		c1.8-0.5,3.8-0.8,6-0.8c1.7,0,3.2,0.2,4.4,0.5c1.3,0.4,2.4,0.8,3.3,1.3c0.9,0.5,1.8,1.1,2.5,1.7c0.7,0.6,1.4,1.2,2,1.8
		c0.4,0.4,0.6,0.7,0.6,1.1c0,0.4-0.2,0.7-0.7,1.2l-4.6,4c-0.4,0.3-0.7,0.4-1,0.4s-0.6-0.2-1-0.5c-0.4-0.3-0.7-0.6-1.1-0.9
		c-0.4-0.3-0.8-0.5-1.2-0.8c-0.4-0.2-0.9-0.4-1.4-0.5c-0.5-0.1-1.1-0.2-1.7-0.2c-1.2,0-2.1,0.2-2.6,0.6c-0.6,0.4-0.9,0.8-0.9,1.3
		s0.1,0.9,0.4,1.1c0.3,0.3,0.7,0.5,1.3,0.8c0.6,0.2,1.4,0.5,2.4,0.8c1,0.3,2.2,0.6,3.7,1.1c2,0.6,3.6,1.4,4.9,2.4s2.2,1.9,2.9,3
		c0.7,1.1,1.1,2.2,1.4,3.4c0.2,1.2,0.4,2.3,0.4,3.5c0,2-0.4,3.7-1.2,5.2c-0.8,1.5-1.9,2.8-3.2,3.9c-1.3,1.1-2.9,1.8-4.7,2.4
		s-3.5,0.8-5.4,0.8c-1.3,0-2.5-0.1-3.8-0.3s-2.5-0.5-3.7-1c-1.2-0.5-2.4-1.1-3.5-1.9c-1.1-0.8-2.2-1.9-3.2-3.1
		C289.5,214.5,289.4,214.4,289.3,214.1z"/>
</g>
</svg>
