<?xml version="1.0" encoding="utf-8"?>
<!-- Generator: Adobe Illustrator 24.1.3, SVG Export Plug-In . SVG Version: 6.00 Build 0)  -->
<svg version="1.1" id="图层_1" xmlns="http://www.w3.org/2000/svg" xmlns:xlink="http://www.w3.org/1999/xlink" x="0px" y="0px"
	 viewBox="0 0 319.4 249.1" style="enable-background:new 0 0 319.4 249.1;" xml:space="preserve">
<style type="text/css">
	.st0{enable-background:new    ;}
	.st1{fill:#5787E1;}
	.st2{fill:#7C9BEB;}
	.st3{fill:#8EABF8;}
	.st4{fill:#6EB1FE;}
	.st5{fill:#3368D4;}
	.st6{fill:#4795E0;}
	.st7{fill:#6476DA;}
	.st8{fill:#C6E5FA;}
	.st9{fill:#C3E8F8;}
	.st10{fill:#46A5F6;}
	.st11{fill:#6DE0FD;}
	.st12{fill:#76CFF5;}
	.st13{fill:#D9F6FC;}
	.st14{fill:#73A0F4;}
	.st15{fill:#A9DCF4;}
	.st16{fill:#D6E3FB;}
	.st17{fill:#A0D2F8;}
	.st18{fill:#8FD7F5;}
	.st19{fill:#6FE4F5;}
	.st20{fill:#89C4FB;}
	.st21{fill:#83B3DC;}
	.st22{fill:#C7E3F9;}
	.st23{fill:#64CDFA;}
	.st24{fill:#C3E2FC;}
	.st25{fill:#C6F1FB;}
	.st26{fill:#192D5F;}
	.st27{fill:#102B8E;}
	.st28{fill:#E6F9FC;}
	.st29{fill:#B7E3F6;}
	.st30{fill:#8DDDF0;}
	.st31{fill:#C0DEF9;}
	.st32{fill:#1C3D73;}
	.st33{fill:#CBE2F5;}
	.st34{fill:#A8E8F7;}
	.st35{fill:#B2F0F9;}
	.st36{fill:#2B3461;}
	.st37{fill:#123072;}
	.st38{fill:#052C66;}
	.st39{fill:#0F4059;}
	.st40{fill:#062586;}
	.st41{fill:#112C5A;}
	.st42{fill:#C7EBF9;}
	.st43{fill:#2D428F;}
	.st44{fill:#2099D1;}
	.st45{fill:#1668C3;}
	.st46{fill:#13589E;}
	.st47{fill:#87B6F0;}
	.st48{fill:#3872B2;}
	.st49{fill:#0E408A;}
	.st50{fill:#3457A9;}
	.st51{fill:#E0F5FE;}
	.st52{fill:#89DFFB;}
	.st53{fill:#8DBCFE;}
	.st54{fill:#7FC5F6;}
	.st55{fill:#58A9F4;}
	.st56{fill:#59C6F5;}
	.st57{fill:#4EAEF3;}
	.st58{fill:#A9D8F8;}
	.st59{fill:#97CAF9;}
	.st60{fill:#B1CAF7;}
	.st61{fill:#E1F5FD;}
	.st62{fill:#E4F2FE;}
	.st63{fill:#8AC4FB;}
	.st64{fill:#FDFDFD;}
	.st65{fill:#90D7F5;}
	.st66{fill:#5AC7F5;}
	.st67{fill:#A2D3F8;}
	.st68{fill:#085697;}
	.st69{fill:#1992CC;}
	.st70{fill:#3082C9;}
	.st71{fill:#2387AC;}
	.st72{fill:#2660AF;}
	.st73{fill:#3E58CA;}
	.st74{fill:#1E70AE;}
	.st75{fill:#1E4D93;}
	.st76{fill:#1E66A8;}
	.st77{fill:#035395;}
	.st78{fill:#11597F;}
	.st79{fill:#1C4D7F;}
	.st80{fill:#033C92;}
	.st81{fill:#253D99;}
	.st82{fill:#2D5985;}
	.st83{fill:#3357AA;}
	.st84{fill:#1B6A8F;}
	.st85{fill:#23419E;}
	.st86{fill:#0E45A8;}
	.st87{fill:#14668B;}
	.st88{fill:#1E70AF;}
	.st89{fill:#033C93;}
	.st90{fill:#1C5AB6;}
	.st91{fill:#3753AC;}
</style>
<g class="st0">
	<path d="M38.1,224.1c0.7-0.1,1.3-0.2,1.9-0.4v-7.2c0-0.8,0.4-1.2,1.2-1.2h7.6c0.2,0,0.5,0.1,0.7,0.2c0.3,0.1,0.4,0.5,0.4,1v13.1
		c0,0.3,0,0.5-0.1,0.7s-0.3,0.4-0.5,0.6c-1.7,1.1-3.6,1.9-5.8,2.5s-4.5,0.9-7,0.9c-2.9,0-5.6-0.6-8.1-1.6c-2.5-1.1-4.7-2.6-6.6-4.5
		s-3.4-4.1-4.5-6.6c-1.1-2.5-1.6-5.2-1.6-8.1s0.6-5.6,1.6-8.1c1.1-2.5,2.5-4.7,4.4-6.5c1.9-1.8,4.1-3.3,6.6-4.4
		c2.5-1.1,5.2-1.6,8.1-1.6c2.4,0,4.6,0.3,6.5,1c1.9,0.6,3.7,1.6,5.3,2.8c0.3,0.2,0.4,0.4,0.5,0.7s0,0.6-0.2,0.8l-4.5,6.3
		c-0.2,0.3-0.5,0.5-0.8,0.5s-0.5-0.1-0.8-0.3c-0.8-0.6-1.7-1.1-2.7-1.4c-1-0.4-2.1-0.6-3.2-0.6c-1.6,0-3,0.3-4.3,0.8
		c-1.3,0.6-2.4,1.3-3.2,2.3c-0.9,1-1.6,2.1-2.1,3.4c-0.5,1.3-0.7,2.7-0.7,4.2s0.3,2.9,0.7,4.2c0.5,1.3,1.2,2.5,2.1,3.4
		c0.9,1,2,1.8,3.2,2.3c1.2,0.6,2.6,0.8,4.1,0.8C36.8,224.3,37.4,224.2,38.1,224.1z"/>
	<path d="M56.6,200.3c0-0.8,0.4-1.3,1.2-1.3h4.6c0.4,0,0.8,0.1,1.1,0.2c0.3,0.1,0.6,0.6,0.9,1.2l1.2,3c0.6-0.6,1.1-1.2,1.7-1.8
		s1.1-1.1,1.8-1.5c0.6-0.4,1.4-0.8,2.1-1.1c0.8-0.3,1.7-0.4,2.8-0.4c1.1,0,2.2,0.2,3.3,0.6c1.1,0.4,2,0.8,2.9,1.3
		c0.8,0.5,1.6,1,2.2,1.4c0.6,0.5,1,0.8,1.3,1c0.5,0.4,0.7,0.8,0.7,1.1s-0.1,0.7-0.4,1.1l-3.5,5c-0.3,0.4-0.5,0.6-0.8,0.6
		s-0.6-0.1-0.9-0.4c-0.3-0.2-0.6-0.5-0.9-0.8s-0.7-0.6-1.2-0.8s-1-0.5-1.6-0.7s-1.2-0.3-2-0.3s-1.6,0.1-2.4,0.4
		c-0.7,0.3-1.4,0.6-1.9,1.1s-1,1.1-1.3,1.9c-0.3,0.8-0.5,1.7-0.5,2.7v18.7c0,0.8-0.4,1.2-1.3,1.2h-8c-0.8,0-1.2-0.4-1.2-1.2
		L56.6,200.3L56.6,200.3z"/>
	<path d="M111.3,222.3c0.3,0,0.6,0.1,0.8,0.4l3.5,4.8c0.3,0.4,0.4,0.7,0.4,1s-0.1,0.6-0.5,0.8c-1.1,1-2.2,1.8-3.4,2.5
		c-1.1,0.6-2.2,1.1-3.3,1.5c-1.1,0.4-2.1,0.6-3.2,0.7c-1.1,0.1-2.1,0.2-3.2,0.2c-2.3,0-4.6-0.5-6.7-1.4s-4-2.2-5.7-3.8
		c-1.6-1.6-2.9-3.5-3.9-5.6s-1.4-4.5-1.4-6.9s0.4-4.8,1.3-6.9c0.8-2.1,2-4,3.6-5.6c1.5-1.6,3.4-2.9,5.5-3.8s4.5-1.4,7.1-1.4
		c1.1,0,2.2,0.1,3.4,0.4c1.2,0.3,2.4,0.7,3.6,1.3s2.3,1.4,3.4,2.3c1.1,0.9,2.1,2.1,2.9,3.4s1.5,2.8,2,4.5s0.7,3.6,0.7,5.6
		c0,0.7-0.1,1.3-0.2,1.8s-0.4,0.8-0.7,1c-0.3,0.2-0.7,0.4-1.3,0.5s-1.1,0.1-1.9,0.1H94.6c0.3,0.9,0.6,1.8,1.1,2.5s1.1,1.4,1.8,1.9
		c0.7,0.5,1.4,0.9,2.2,1.2c0.8,0.3,1.7,0.4,2.6,0.4c1.3,0,2.4-0.1,3.2-0.3c0.8-0.2,1.6-0.5,2.2-0.8s1.1-0.6,1.5-1s0.8-0.7,1.3-1
		C110.8,222.4,111,222.3,111.3,222.3z M99.7,207.4c-0.7,0.3-1.3,0.6-1.9,1.1c-0.6,0.4-1.1,1-1.5,1.6s-0.8,1.3-1.1,2h13.7
		c-0.7-1.6-1.7-2.8-2.9-3.7s-2.6-1.3-4.2-1.3C101.1,207,100.4,207.1,99.7,207.4z"/>
	<path d="M124.2,190.3c0-0.4,0.1-0.7,0.4-1c0.3-0.2,0.6-0.3,1-0.3h7.7c0.4,0,0.7,0.1,0.9,0.4c0.3,0.2,0.4,0.6,0.4,0.9v42.1
		c0,0.4-0.1,0.7-0.3,0.9s-0.6,0.4-1,0.4h-7.7c-0.4,0-0.7-0.1-1-0.3c-0.2-0.2-0.4-0.5-0.4-1C124.2,232.4,124.2,190.3,124.2,190.3z"/>
	<path d="M141.3,209.6c0.9-2.1,2.2-4,3.8-5.6s3.5-2.9,5.7-3.8s4.5-1.4,6.9-1.4c2.5,0,4.8,0.5,7,1.4s4.1,2.2,5.7,3.8
		c1.6,1.6,2.9,3.5,3.8,5.6c0.9,2.1,1.4,4.5,1.4,6.9s-0.5,4.8-1.4,6.9c-1,2.1-2.2,4.1-3.8,5.6c-1.6,1.6-3.5,2.9-5.7,3.8
		s-4.5,1.4-6.9,1.4c-2.5,0-4.8-0.5-6.9-1.4c-2.2-0.9-4.1-2.2-5.7-3.8c-1.6-1.6-2.9-3.5-3.8-5.6c-0.9-2.2-1.4-4.5-1.4-6.9
		C139.9,214,140.4,211.7,141.3,209.6z M150.4,219.8c0.4,1,0.9,2,1.6,2.8c0.7,0.8,1.5,1.4,2.5,1.9s2.1,0.7,3.2,0.7s2.2-0.2,3.2-0.7
		s1.8-1.1,2.5-1.9c0.7-0.8,1.2-1.7,1.6-2.7c0.4-1,0.6-2.1,0.6-3.3c0-1.1-0.2-2.2-0.6-3.3c-0.4-1-0.9-2-1.6-2.7
		c-0.7-0.8-1.5-1.4-2.5-1.9s-2-0.7-3.2-0.7s-2.2,0.2-3.2,0.7s-1.8,1.1-2.5,1.9c-0.7,0.8-1.3,1.7-1.6,2.7c-0.4,1-0.6,2.1-0.6,3.3
		C149.9,217.7,150.1,218.7,150.4,219.8z"/>
	<path d="M203.2,200.4c0-0.4,0.1-0.7,0.3-1c0.2-0.2,0.6-0.3,1-0.3h7.9c0.8,0,1.3,0.4,1.3,1.3v32.1c0,0.8-0.4,1.3-1.3,1.3h-5
		c-0.4,0-0.8-0.1-1.2-0.5c-0.4-0.3-0.6-0.7-0.7-1.1l-0.8-3c-0.7,1-1.5,1.8-2.4,2.4c-0.8,0.7-1.8,1.2-2.7,1.6
		c-0.9,0.4-1.9,0.7-2.9,0.8c-1,0.2-2,0.3-2.9,0.3c-0.7,0-1.6-0.1-2.5-0.3c-1-0.2-1.9-0.5-2.8-0.9c-1-0.4-1.9-1-2.8-1.7
		c-0.9-0.7-1.7-1.6-2.4-2.7c-0.7-1.1-1.3-2.4-1.7-3.9s-0.6-3.3-0.6-5.3v-19c0-0.8,0.4-1.3,1.3-1.3h7.7c0.8,0,1.3,0.4,1.3,1.3v18.3
		c0,0.8,0.1,1.5,0.4,2.2c0.3,0.7,0.7,1.4,1.3,1.9c0.6,0.6,1.2,1,2,1.3s1.6,0.5,2.6,0.5c0.4,0,1-0.1,1.7-0.3s1.3-0.5,1.9-0.9
		c0.6-0.4,1.1-1.1,1.6-1.8c0.4-0.8,0.7-1.8,0.7-2.9v-18.4H203.2z"/>
	<path d="M220.1,200.3c0-0.4,0.1-0.7,0.3-0.9s0.6-0.3,0.9-0.3h5.8c0.3,0,0.5,0.1,0.7,0.2s0.3,0.3,0.4,0.6c0.1,0.2,0.2,0.5,0.3,0.7
		c0.1,0.3,0.1,0.5,0.2,0.7l0.6,2.3c1.2-1.5,2.6-2.7,4.3-3.6c1.7-0.9,3.6-1.4,5.8-1.4c2.3,0,4.4,0.4,6.4,1.3s3.7,2,5.2,3.6
		c1.5,1.5,2.7,3.4,3.5,5.6s1.3,4.6,1.3,7.3c0,2.4-0.4,4.8-1.2,6.9c-0.8,2.1-1.9,4.1-3.4,5.6c-1.4,1.6-3.2,2.9-5.2,3.8
		c-2,0.9-4.3,1.4-6.8,1.4c-1.8,0-3.4-0.3-4.9-1s-2.8-1.5-3.9-2.5v12.5c0,0.8-0.4,1.2-1.2,1.2h-7.9c-0.4,0-0.7-0.1-0.9-0.3
		s-0.3-0.5-0.3-0.9L220.1,200.3L220.1,200.3z M230.2,219.6c0.4,1,0.9,1.9,1.6,2.7c0.7,0.8,1.5,1.4,2.5,1.9s2.1,0.7,3.4,0.7
		s2.4-0.2,3.5-0.7c1-0.4,1.9-1,2.6-1.8c0.7-0.8,1.3-1.7,1.7-2.7s0.6-2.1,0.6-3.3s-0.2-2.3-0.6-3.4c-0.4-1.1-0.9-2-1.6-2.7
		s-1.6-1.4-2.6-1.8c-1-0.4-2.2-0.7-3.6-0.7c-1.2,0-2.3,0.3-3.3,0.7c-1,0.5-1.8,1.1-2.6,2c-0.7,0.8-1.3,1.7-1.7,2.8
		c-0.4,1-0.6,2.1-0.6,3.1C229.6,217.5,229.8,218.6,230.2,219.6z"/>
	<path d="M261.4,187.8c0-0.6,0.1-1.2,0.5-1.6c0.3-0.4,0.9-0.7,1.8-0.7h6.2c0.7,0,1.3,0.2,1.6,0.6c0.3,0.4,0.5,1,0.5,1.7v5.1
		c0,0.8-0.2,1.3-0.5,1.6s-0.8,0.4-1.5,0.4h-6.2c-0.7,0-1.2-0.1-1.6-0.4c-0.4-0.3-0.6-0.8-0.6-1.5L261.4,187.8L261.4,187.8z
		 M261.4,200.3c0-0.4,0.1-0.7,0.4-0.9s0.5-0.3,0.8-0.3h8c0.3,0,0.6,0.1,0.8,0.3c0.2,0.2,0.3,0.5,0.3,0.8v32.2c0,0.8-0.4,1.2-1.2,1.2
		h-8c-0.8,0-1.2-0.4-1.2-1.2v-32.1H261.4z"/>
	<path d="M277.4,228.1c-0.1-0.2-0.2-0.4-0.3-0.6c0-0.2,0-0.4,0.1-0.6c0.1-0.2,0.2-0.4,0.5-0.7l3.8-3.7c0.2-0.2,0.5-0.3,0.7-0.3
		c0.3,0,0.7,0.2,1,0.5c0.4,0.4,0.9,0.8,1.4,1.1s1,0.7,1.6,1s1.1,0.5,1.8,0.7c0.6,0.2,1.2,0.3,1.8,0.3c0.7,0,1.3-0.1,1.8-0.2
		c0.5-0.1,0.8-0.3,1.1-0.5c0.3-0.2,0.5-0.5,0.6-0.8s0.2-0.6,0.2-1s-0.1-0.7-0.2-1s-0.4-0.5-0.8-0.8c-0.4-0.2-0.9-0.5-1.6-0.7
		c-0.7-0.3-1.6-0.5-2.7-0.8c-1.7-0.5-3.2-1.1-4.5-1.8s-2.3-1.5-3.1-2.5c-0.8-1-1.4-2-1.8-3.2s-0.6-2.6-0.6-4.1
		c0-1.4,0.3-2.7,0.8-3.9c0.6-1.2,1.4-2.2,2.5-3.1c1.1-0.8,2.5-1.5,4.1-2s3.4-0.7,5.5-0.7c1.5,0,2.9,0.1,4,0.5c1.1,0.3,2.1,0.7,3,1.2
		c0.8,0.5,1.6,1,2.3,1.6c0.7,0.6,1.3,1.1,1.8,1.6c0.4,0.3,0.6,0.7,0.6,1s-0.2,0.7-0.6,1.1l-4.2,3.6c-0.3,0.3-0.6,0.4-0.9,0.4
		s-0.6-0.1-0.9-0.4c-0.3-0.3-0.7-0.5-1-0.8s-0.7-0.5-1.1-0.7s-0.8-0.4-1.3-0.5s-1-0.2-1.6-0.2c-1.1,0-1.9,0.2-2.4,0.5
		s-0.8,0.7-0.8,1.1c0,0.4,0.1,0.8,0.4,1s0.6,0.5,1.2,0.7s1.3,0.4,2.2,0.7c0.9,0.3,2,0.6,3.3,1c1.8,0.6,3.3,1.3,4.4,2.1
		s2,1.8,2.6,2.7c0.6,1,1,2,1.3,3.1c0.2,1.1,0.3,2.1,0.3,3.1c0,1.8-0.4,3.4-1.1,4.8c-0.7,1.4-1.7,2.5-2.9,3.5c-1.2,1-2.7,1.7-4.2,2.2
		s-3.2,0.7-4.9,0.7c-1.1,0-2.3-0.1-3.4-0.3s-2.3-0.5-3.4-0.9s-2.2-1-3.2-1.8s-2-1.7-2.9-2.8C277.6,228.4,277.5,228.3,277.4,228.1z"
		/>
</g>
<g>
	<g>
		<path class="st1" d="M90,92.9c6.7,0,13.3,0,20,0c0,6.1,0,12.1,0,18.2c-6.7,0-13.3,0-20,0l0,0C90,105,90,98.9,90,92.9z"/>
		<path class="st2" d="M189.2,92.9c6.7,0,13.3,0,20,0c0,6.1,0,12.1,0,18.2c-6.7,0-13.3,0-20,0C189.2,105,189.2,98.9,189.2,92.9z"/>
		<path class="st3" d="M209.2,111.1c0-6.1,0-12.1,0-18.2c6.6,0,13.2,0,19.9,0c0,6.1,0,12.1,0,18.2c0,0,0,0,0,0
			C222.5,111.1,215.8,111.1,209.2,111.1C209.2,111.1,209.2,111.1,209.2,111.1z"/>
		<path class="st4" d="M189.2,92.9c0,6.1,0,12.1,0,18.2l0,0c-0.4,0-0.7,0-1.1,0c-6.2,0-12.5,0-18.7,0c0-6.1,0-12.1,0-18.2
			C176,92.9,182.6,92.9,189.2,92.9z"/>
		<path class="st5" d="M110,111.1c0-6.1,0-12.1,0-18.2c6.6,0,13.1,0,19.7,0c0,6.1,0,12.1,0,18.2C123.1,111.1,116.6,111.1,110,111.1
			L110,111.1z"/>
		<path class="st6" d="M169.4,92.9c0,6.1,0,12.1,0,18.2c0,0,0,0,0,0c-4.3,0-8.7,0-13,0c-2.3-1.3-4.5-2.6-6.8-3.8c0-4.8,0-9.6,0-14.4
			c5.2,0,10.4,0,15.6,0C166.5,92.8,167.9,92.9,169.4,92.9z"/>
		<path class="st7" d="M149.5,92.9c0,4.8,0,9.6,0,14.4c-1.7-0.9-3.4-1.8-5.2-2.7c-0.5-0.2-1.1-0.3-1.6-0.2c-1,0.2-1.7,1.2-1.7,2.4
			c0,1.5,0,2.9,0,4.4c-3.7,0-7.5,0-11.2,0l0,0c0-6.1,0-12.1,0-18.2C136.3,92.9,142.9,92.9,149.5,92.9z"/>
		<path class="st8" d="M229.1,31.9c-0.6,0.1-1.2,0.3-1.8,0.4c-2.3,0.4-4.7,0.7-7,1.1c-2.1,0.3-4.2,0.7-6.3,1
			c-1.4,0.2-2.9,0.4-4.3,0.6c-0.6,0-0.5-0.4-0.5-0.8c0-5,0-10.1,0-15.1c6.6,0,13.2,0,19.8,0C229.1,23.3,229.1,27.6,229.1,31.9z"/>
		<path class="st9" d="M181.4,24.7c0.4,0.8,0.7,1.6,1.1,2.4c0.2,0.3,0.3,0.6,0.5,1c0.5,1.1,1,2.2,1.5,3.3c0.9,1.9,1.8,3.8,2.7,5.7
			c0.1,0.1,0,0.3,0.1,0.4c-5.9,0-11.9,0-17.8,0c-0.1,0-0.1,0-0.2,0c0-6.1,0-12.3,0-18.4c3.1,0,6.2,0,9.4,0c0.8,1.6,1.6,3.3,2.4,4.9
			C181.2,24.2,181.3,24.5,181.4,24.7z"/>
		<path class="st10" d="M110,85.8c-0.3,0.1-0.6,0.1-1,0.2c-0.2,0-0.3,0-0.5,0c-6,0-12,0-17.9,0c-0.2,0-0.3,0-0.5,0c0,0,0,0,0,0
			c-0.1-0.3-0.2-0.5-0.2-0.8c0-3.7,0-7.3,0-11c6.7,0,13.3,0,20,0l0,0C110,78.1,110,82,110,85.8z"/>
		<path class="st11" d="M229.1,86c-6.7,0-13.3,0-20,0c0-1.2,0-2.4,0-3.6c0.8-2.7,1.7-5.4,2.5-8.1c5.8,0,11.7,0,17.5,0l0,0
			C229.1,78.2,229.1,82.1,229.1,86z"/>
		<path class="st12" d="M189.2,85.4c-0.7,0.2-1.3,0.6-2,0.6c-5.5,0-11.1,0-16.6,0c-1.2,0-1.6-0.3-1.2-1.5c1-3.5,2.1-7,3.1-10.4
			c0.2,0.1,0.5,0.2,0.7,0.2c5.3,0,10.6,0,15.9,0l0,0C189.2,78,189.2,81.7,189.2,85.4z"/>
		<path class="st13" d="M229.1,19c-6.6,0-13.2,0-19.8,0l0,0c0-3.1,0-6.2,0-9.4c0.1,0,0.1,0,0.2,0c0.3-0.1,0.6-0.1,1-0.2
			c0.3-0.1,0.6-0.1,1-0.2c0.4-0.1,0.7-0.1,1.1-0.2c0.3-0.1,0.6-0.1,1-0.2c0.2,0,0.3,0,0.5,0c0.3-0.1,0.6-0.1,1-0.2
			c0.7-0.1,1.4-0.2,2.1-0.3c0.3-0.1,0.6-0.1,1-0.2c1.2-0.2,2.4-0.3,3.7-0.5c0.3-0.1,0.6-0.1,1-0.2c0.7-0.1,1.4-0.2,2.1-0.3
			c0.3-0.1,0.6-0.1,1-0.2c0.4-0.1,0.8-0.1,1.3-0.2c0.3-0.1,0.6-0.1,1-0.2c0.2,0,0.3,0,0.5,0c0.2,0,0.4,0,0.6,0
			c0.1,0.3,0.3,0.6,0.3,0.8C229.1,11.5,229.1,15.3,229.1,19L229.1,19z"/>
		<path class="st14" d="M149.7,85.9c-0.2,0.1-0.4,0.1-0.6,0.2c-0.8,0-1.7,0.1-2.5,0.1c-0.3-0.1-0.7-0.1-1-0.1c-4.7,0-9.5,0-14.2,0
			c-1.2,0-1.4-0.3-1.1-1.4c0.8-2.8,1.6-5.7,2.5-8.5c0.2-0.7,0.5-1.4,0.7-2c0.2,0.1,0.5,0.2,0.7,0.2c5.2,0,10.3,0,15.5,0l0,0
			c0,3.6,0,7.1,0,10.7C149.5,85.3,149.6,85.6,149.7,85.9z"/>
		<path class="st15" d="M241.8,61.2c1.5,0.4,2.6,1.2,3.3,2.6c0.1,0.3,0.1,0.5,0.2,0.8c0.1,0.1,0.1,0.2,0.2,0.3c0,0.2,0,0.4,0,0.6
			c0,2.9,0,5.8,0,8.7c-5.4,0-10.9,0-16.3,0c0,0,0,0,0,0c0-4.1,0-8.1,0-12.2c0-0.7-0.2-0.8-0.8-0.8c-2.6,0-5.2,0-7.8,0
			c0,0,0-0.1,0-0.1c6.6,0,13.1,0,19.7,0C240.7,61.1,241.2,61.2,241.8,61.2z"/>
		<path class="st16" d="M129.7,21.6c1.7-0.3,3.5-0.5,5.2-0.8c0.5,0,0.9,0,1.4,0c1.6,0,2.3,1.1,2.9,2.3c2,4.1,4,8.2,5.9,12.3
			c0.3,0.7,0.7,1.4,1,2.1c-5.5,0-11,0-16.5,0C129.7,32.1,129.7,26.8,129.7,21.6z"/>
		<path class="st17" d="M220.5,61.2c2.6,0,5.2,0,7.8,0c0.7,0,0.9,0.2,0.8,0.8c0,4.1,0,8.1,0,12.2c-5.8,0-11.7,0-17.5,0
			c0.5-1.5,0.9-3.1,1.4-4.6c0.6-1.8,1.2-3.7,1.8-5.5c0.6-1.7,1.8-2.7,3.6-2.9C219.1,61.2,219.8,61.2,220.5,61.2z"/>
		<path class="st18" d="M189.2,74.3c-5.3,0-10.6,0-15.9,0c-0.2,0-0.5-0.1-0.7-0.2c0.3-1.3,0.6-2.6,1-3.9c0.7-2.3,1.4-4.6,2-6.9
			c0.4-1.5,1.1-2.2,2.7-2.3c3.6,0,7.3,0,10.9,0C189.2,65.5,189.2,69.9,189.2,74.3z"/>
		<path class="st19" d="M229.1,74.3c5.4,0,10.9,0,16.3,0c0,3.4,0,6.8,0,10.1c0,0.2,0,0.4-0.1,0.6c-0.3,0.6-0.7,1-1.4,1
			c-4.7,0-9.3,0-14,0c-0.3,0-0.6,0-1,0C229.1,82.1,229.1,78.2,229.1,74.3z"/>
		<path class="st20" d="M149.5,74.3c-5.2,0-10.3,0-15.5,0c-0.2,0-0.5-0.1-0.7-0.2c0.3-1.3,0.7-2.6,1-3.9c0.5-1.8,1.1-3.6,1.7-5.4
			c1-2.8,1.9-3.6,4.8-3.7c2.9,0,5.8,0,8.7,0C149.5,65.5,149.5,69.9,149.5,74.3z"/>
		<path class="st21" d="M90,74.3c0,3.7,0,7.3,0,11c0,0.3,0.1,0.5,0.2,0.8c-0.4,0-0.7,0-1.1,0c-1,0-1.9-0.1-2.9-0.1
			c-3.5,0-7,0-10.5,0c-1.4,0-1.9-0.5-1.9-1.9c0-1.1,0-2.1,0-3.2c0-2.2,0-4.3,0-6.5C79.2,74.3,84.6,74.3,90,74.3
			C90,74.3,90,74.3,90,74.3z"/>
		<path class="st22" d="M73.7,53.3c0-2.4,0-4.8,0-7.1c0-0.2,0-0.3,0-0.5c0-2.8,0-5.5,0-8.3c5.4,0,10.8,0,16.2,0c0.1,0,0.2,0,0.3,0
			c0,1.6,0,3.3,0,4.9c-2.4,0.4-4.6,1-6.5,2.5c-2.2,1.6-3.5,3.9-4.4,6.4c-0.3,0.9-0.7,1.8-1.1,2.7c-0.4,1-1.4,1.2-2.3,1.2
			c-0.4,0-0.8-0.1-1.2-0.1c-0.5-0.1-0.8-0.4-0.9-1C73.7,53.8,73.7,53.6,73.7,53.3z"/>
		<path class="st23" d="M110,74.3c-6.7,0-13.3,0-20,0c0,0,0,0,0,0c0-1,0-2,0-2.9c0-0.4,0.1-0.8,0.2-1.2c0.3,0,0.6,0,0.9,0
			c0.5,0,1,0,1.4,0c0.5,0,1-0.1,1.5-0.1c3.3-0.4,6.1-1.8,8.1-4.5c0.8-1,1.4-2,2.2-3c0.7-0.9,1.6-1.5,2.8-1.5c0.4,0,0.9,0,1.3,0
			c0.2,0,0.3,0.1,0.5,0.1c1.2,0,1.1-0.1,1.1,1.1C110,66.2,110,70.2,110,74.3z"/>
		<path class="st24" d="M229.1,31.9c0-4.3,0-8.6,0-12.9c0,0,0,0,0,0c4.2,0,8.4,0,12.5,0c0.2,0.8,0.3,1.7,0.5,2.5c0,0.3,0,0.6,0,1
			c0.1,0.4,0.2,0.8,0.3,1.3c0,0.3,0.1,0.6,0.1,1c0,0.5,0,1,0,1.4c0,0.5,0,0.9,0,1.4c-0.2,1.7-1,2.4-2.9,2.7
			c-2.5,0.4-4.9,0.8-7.4,1.2C231.2,31.7,230.1,31.8,229.1,31.9z"/>
		<path class="st25" d="M169.4,19c0,6.1,0,12.3,0,18.4c-1.1,0-2.2,0-3.3,0c-0.2,0-0.5,0.2-0.7,0.3c-2.5-5.2-5-10.5-7.4-15.7
			c-0.1-0.3-0.3-0.5-0.5-0.8c-0.2-0.4-0.3-0.7-0.5-1.1c0-0.1-0.1-0.1-0.1-0.2c-0.1-0.3-0.1-0.6-0.2-1c0,0,0,0,0,0
			C160.9,19,165.2,19,169.4,19L169.4,19z"/>
		<path class="st26" d="M234.8,175.6c0.8-0.1,1.5-0.1,2.3-0.2c1.5-0.2,2.3-1.2,2.3-2.8c0-2.1,0-4.2,0-6.2c2,0,4,0,6,0
			c0,3.6,0.1,7.3,0,10.9c0,1.3-0.1,2.8-1.5,3.6c-0.7,0.4-1.7,0.8-2.5,0.8c-4.1,0.1-8.2,0-12.3,0c0-2,0-4,0-6c1.4,0,2.9,0,4.3,0
			C233.9,175.7,234.3,175.6,234.8,175.6z"/>
		<path class="st27" d="M83,175.5c2.3,0,4.7,0,7,0.1c0,2,0,4.1,0,6.1c-4.3,0-8.5,0.1-12.8,0c-1.8,0-3.2-1.1-3.1-3.2
			c0.1-4,0-8.1,0-12.1c1.6,0,3.1,0,4.7,0c1,0,1,0,1,1c0,1,0.1,2.1,0.1,3.1c0.1,0.9,0.1,1.9,0.2,2.8c0.1,1.2,0.7,2,1.9,2.1
			C82.4,175.4,82.7,175.5,83,175.5z"/>
		<path class="st28" d="M241.6,19c-4.2,0-8.4,0-12.5,0c0-3.7,0-7.5,0-11.2c0-0.3-0.2-0.6-0.3-0.8c0.4-0.1,0.7-0.2,1.1-0.3
			c0.4-0.1,0.7-0.1,1.1-0.2c0.6-0.1,1.3-0.2,1.9-0.3c0.4-0.1,0.7-0.1,1.1-0.2c0.3-0.1,0.6-0.1,1-0.2c0.2,0,0.3,0,0.5,0
			c0.8,0,1.6,0,2.4,0c0.2,0.1,0.4,0.1,0.6,0.2c0.4,0.4,0.7,0.7,1.1,1.1c0.3,1.1,0.5,2.2,0.8,3.3c0.1,0.3,0.1,0.6,0.2,1
			c0.1,0.6,0.1,1.3,0.2,1.9c0.1,0.3,0.2,0.6,0.3,1c0,0.1,0,0.2,0,0.3c0.1,0.6,0.2,1.2,0.3,1.7c0,0.4,0,0.7,0,1.1
			c0.1,0.3,0.2,0.6,0.3,1C241.6,18.6,241.6,18.8,241.6,19z"/>
		<path class="st29" d="M129.7,37.4c5.5,0,11,0,16.5,0c0.8,1.7,1.5,3.5,2.3,5.2c0.5,1.1,0.4,1.3-0.8,1.5c-3,0.5-6,1-9,1.5
			c-1.6,0.3-3.2,0.5-4.7,0.7c-0.9,0.1-1.8,0.2-2.7,0.3c-0.5,0-0.9,0-1.4,0c-0.1,0-0.1,0-0.2,0C129.7,43.6,129.7,40.5,129.7,37.4
			L129.7,37.4z"/>
		<path class="st30" d="M90.2,70.1c-0.1,0.4-0.2,0.8-0.2,1.2c0,1,0,2,0,2.9c-5.4,0-10.8,0-16.2,0c0-1,0-2,0-3c0-2.6,0-5.2,0-7.8
			c0-0.9,0.1-1.8,1.1-2.2c0.4-0.1,0.9-0.2,1.3-0.3c2.2-0.1,3.3,1.2,4.2,3c1.4,2.8,3.8,4.5,6.7,5.5c1,0.3,2,0.4,3.1,0.6
			C90.1,70,90.2,70.1,90.2,70.1z"/>
		<path class="st31" d="M89.8,37.4c-5.4,0-10.8,0-16.2,0c0-1.1,0-2.2,0-3.3c0-0.2,0-0.3,0-0.5c0-1.9,2.2-3.9,4.3-4.3
			c3.8-0.6,7.7-1.2,11.5-1.8c0.1,0,0.2-0.1,0.4-0.1C89.8,30.8,89.8,34.1,89.8,37.4z"/>
		<path class="st32" d="M234.8,175.6c-0.5,0-0.9,0.1-1.4,0.1c-1.4,0-2.9,0-4.3,0c-6.3,0-12.6,0-19,0c-0.7,0-0.9,0.1-0.9,0.9
			c0.1,1.7,0,3.4,0,5.2c-6.4,0-12.9,0-19.3,0c-0.2,0-0.5,0-0.7,0c0-1.7,0-3.4,0-5.2c0-0.6-0.1-0.9-0.8-0.9c-6.3,0-12.7,0-19,0
			c-6.6,0-13.2,0-19.8,0c0,0,0-0.1,0-0.1c0.2,0,0.5,0,0.7,0c28,0,55.9,0,83.9,0C234.4,175.6,234.6,175.6,234.8,175.6z"/>
		<path class="st33" d="M129.7,21.6c0,5.3,0,10.6,0,15.9c0,0,0,0,0,0c-1.8,0-3.6,0-5.4,0c-0.4-0.8-0.9-1.7-1.3-2.5
			c-0.7-1.5-1.4-3.1-2.2-4.6c-0.2-0.3-0.3-0.6-0.5-1c-0.7-1.5-1.4-3-2.1-4.5c-0.5-1.1-0.4-1.2,0.8-1.4c3-0.5,6.1-1.1,9.1-1.7
			C128.7,21.7,129.2,21.6,129.7,21.6z"/>
		<path class="st34" d="M90.2,42.3c0-1.6,0-3.3,0-4.9c4.8,0,9.6,0,14.5,0c0.7,1.5,1.5,3,2.2,4.5c0.1,0.2,0.2,0.4,0.3,0.6
			c0.5,1.2,1.1,2.5,1.6,3.7c0.3,0.6,0.5,1.3,0.6,1.9c0.1,0.6-0.1,1.3-1.6,1.6c-0.4,0-0.8,0-1.3,0c-1.6,0-2.6-0.9-3.4-2.1
			c-1.9-2.7-4.6-4.4-7.8-5.1c-0.9-0.2-1.8-0.2-2.7-0.3c-0.6,0-1.2,0-1.8,0C90.6,42.3,90.4,42.3,90.2,42.3z"/>
		<path class="st35" d="M104.6,37.4c-4.8,0-9.6,0-14.5,0c-0.1,0-0.2,0-0.3,0c0-3.3,0-6.7,0-10c2.4-0.4,4.8-0.7,7.2-1.1
			c1-0.1,1.9,0.3,2.6,1.1c0.4,0.5,0.7,1,0.9,1.5c0.8,1.6,1.6,3.3,2.5,4.9c0.1,0.2,0.2,0.3,0.3,0.5c0.3,0.7,0.6,1.5,1,2.2
			C104.4,36.9,104.5,37.2,104.6,37.4z"/>
		<path class="st36" d="M149.5,175.6c0,0,0,0.1,0,0.1c0,2,0,4,0,6c-5.6,0-11.3,0-16.9,0c-1,0-1.9,0-2.9,0c0-1.7,0-3.4,0-5.2
			c0-0.6-0.1-0.9-0.8-0.9c-6.3,0-12.6,0-18.9,0c0,0,0-0.1,0-0.1c0.3,0,0.6,0,0.9,0c10.4,0,20.9,0,31.3,0c0.3,0,0.6,0,0.9,0
			C145.3,175.5,147.4,175.6,149.5,175.6z"/>
		<path class="st37" d="M110,175.6c0,0,0,0.1,0,0.1c0,2,0,4,0,6c-5.8,0-11.5,0-17.3,0c-0.9,0-1.8,0-2.7,0c0-2,0-4.1,0-6.1
			c3.9,0,7.7,0,11.6,0C104.4,175.6,107.2,175.6,110,175.6z"/>
		<path class="st38" d="M209.2,181.7c0-1.7,0-3.4,0-5.2c0-0.7,0.2-0.9,0.9-0.9c6.3,0,12.6,0,19,0c0,2,0,4,0,6c-5.6,0-11.2,0-16.8,0
			C211.3,181.7,210.3,181.7,209.2,181.7z"/>
		<path class="st39" d="M149.5,181.7c0-2,0-4,0-6c6.6,0,13.2,0,19.8,0c0,2,0,4,0,6c-5.6,0-11.3,0-16.9,0
			C151.5,181.7,150.5,181.7,149.5,181.7z"/>
		<path class="st40" d="M169.4,181.7c0-2,0-4,0-6c6.3,0,12.7,0,19,0c0.7,0,0.8,0.2,0.8,0.9c0,1.7,0,3.4,0,5.2c-6,0-12,0-18,0
			C170.6,181.7,170,181.7,169.4,181.7z"/>
		<path class="st41" d="M110,181.7c0-2,0-4,0-6c6.3,0,12.6,0,18.9,0c0.7,0,0.8,0.2,0.8,0.9c0,1.7,0,3.4,0,5.2c-5.9,0-11.8,0-17.6,0
			C111.4,181.7,110.7,181.7,110,181.7z"/>
		<path class="st42" d="M192.9,19.6c1,2.1,2,4.2,3,6.4c0.1,0.2,0.2,0.4,0.3,0.6c1.1,2.3,2.2,4.6,3.2,6.9c0.3,0.5,0.5,1.1,0.8,1.7
			c0.3,0.6,0.1,1-0.5,1.1c-1.5,0.3-3.1,0.7-4.6,0.9c-1,0.2-2.2-0.6-2.6-1.6c-1.1-2.4-2.3-4.9-3.4-7.3c0-0.3,0.1-0.6,0.1-0.8
			c0-2.8,0-5.7,0-8.5l0,0c1.1,0,2.1,0,3.2,0C192.6,19.2,192.7,19.4,192.9,19.6z"/>
		<path class="st42" d="M209.2,19c0,5,0,10.1,0,15.1c0,0.3-0.2,0.8,0.5,0.8c-2.5,0.7-3.9,0.4-5-2.2c-1-2.4-2.1-4.7-3.2-7
			c-0.6-1.4-1.3-2.7-2-4.1c-0.1-0.3-0.2-0.5-0.3-0.8c-0.2-0.3-0.3-0.6-0.5-1c-0.1-0.3-0.1-0.5-0.2-0.8C202.1,19,205.7,19,209.2,19
			L209.2,19z"/>
		<path class="st43" d="M80,170.5c0-1-0.1-2.1-0.1-3.1c0-1,0-1-1-1c-1.6,0-3.1,0-4.7,0c0-6.1,0-12.3,0-18.4c1.6,0,3.2,0,4.8,0
			c0.6,0,0.9-0.1,0.9-0.8c0-5.9,0-11.7,0-17.6l0.1,0l0.1,0c0,4.8,0,9.6,0,14.4c0,8.6,0,17.1,0,25.7C80,169.9,80,170.2,80,170.5z"/>
		<path class="st44" d="M239.4,129.5c0-6.1,0-12.3,0-18.4c2,0,4,0,6,0c0,6.1,0,12.3,0,18.4C243.4,129.5,241.4,129.5,239.4,129.5z"/>
		<path class="st45" d="M239.4,129.5c2,0,4,0,6,0c0,5.8,0,11.7,0,17.5c0,0.3,0,0.6,0,0.9c-2,0-4,0-6,0
			C239.4,141.8,239.4,135.7,239.4,129.5z"/>
		<path class="st46" d="M239.4,147.9c2,0,4,0,6,0c0,4.5,0,9,0,13.5c0,1.6,0,3.3,0,4.9c-2,0-4,0-6,0
			C239.4,160.2,239.4,154.1,239.4,147.9z"/>
		<path class="st47" d="M245.4,111.1c-2,0-4,0-6,0c0-4.4,0-8.8,0-13.2c0-0.5,0-1.1,0-1.6c-0.1-1.5,0.2-2.9,1.8-3.6c0,0,0.1,0,0.1,0
			c0.8,0,1.7,0,2.5,0c0,0,0,0,0,0c0.4,0.3,0.8,0.6,1.3,1c0,0,0,0,0,0c0.1,0.3,0.2,0.5,0.3,0.8c0,5.2,0,10.4,0,15.6
			C245.4,110.4,245.4,110.8,245.4,111.1z"/>
		<path class="st48" d="M80,129.5C80,129.5,79.9,129.5,80,129.5l-0.1,0l0,0c0-5.8,0-11.7,0-17.5c0-0.7-0.1-0.9-0.9-0.9
			c-1.6,0.1-3.2,0-4.8,0c0-4.5,0-8.9,0-13.4c0-0.4,0-0.8,0-1.3c0-0.4,0-0.7,0-1.1c0.1-1.1,0.5-2.1,1.7-2.4c1.2-0.4,2.5-0.5,3.5,0.6
			c0.3,0.4,0.5,0.9,0.6,1.4c0.1,0.5,0.1,1,0.1,1.6c0,4.9,0,9.7,0,14.6C80,117.2,80,123.4,80,129.5z"/>
		<path class="st49" d="M79.8,129.5c0,5.9,0,11.7,0,17.6c0,0.7-0.2,0.8-0.9,0.8c-1.6,0-3.2,0-4.8,0c0-6.1,0-12.3,0-18.4
			C76,129.5,77.9,129.5,79.8,129.5L79.8,129.5z"/>
		<path class="st50" d="M79.8,129.5c-1.9,0-3.8,0-5.7,0c0-6.1,0-12.3,0-18.4c1.6,0,3.2,0,4.8,0c0.7,0,0.9,0.2,0.9,0.9
			C79.8,117.8,79.8,123.7,79.8,129.5z"/>
		<path class="st51" d="M209.2,19c-3.5,0-7.1,0-10.6,0c-0.1,0-0.1,0-0.2,0c-0.2-0.3-0.3-0.6-0.5-1c-0.2-0.4-0.3-0.7-0.5-1.1
			c-0.5-1.2-1-2.3-1.5-3.5c-0.2-0.4-0.4-0.9-0.6-1.3c0.1-0.7,0.8-0.3,1.1-0.6c1.2-0.2,2.4-0.3,3.7-0.5c0.5-0.1,1.1-0.2,1.6-0.3
			c0.2,0,0.3,0,0.5,0c0.3-0.1,0.6-0.1,1-0.2c0.6-0.1,1.3-0.2,1.9-0.3c0.3-0.1,0.6-0.1,1-0.2c0.4-0.1,0.8-0.1,1.3-0.2
			c0.3-0.1,0.6-0.1,1-0.2c0.1,0,0.1,0,0.2,0c0.3-0.1,0.5-0.1,0.8-0.2C209.2,12.8,209.2,15.9,209.2,19z"/>
		<path class="st25" d="M151.8,37.4c-0.8-1.7-1.6-3.4-2.4-5.1c0-4.1,0-8.3,0-12.4c0-0.8,0.2-1.1,1-0.9c0.2,0.1,0.3,0.1,0.5,0.2
			c0.3,0.4,0.5,0.7,0.8,1.1c1,2,1.9,4,2.9,6c0.1,0.2,0.2,0.4,0.3,0.6c0.7,1.5,1.3,3,2,4.5c0.9,2,1.8,4,2.8,6
			C157,37.4,154.4,37.4,151.8,37.4z"/>
		<path class="st52" d="M198.8,74.1c0.6-2.1,1.2-4.2,1.8-6.3c0.4-1.3,0.9-2.6,1.2-4c0.6-2.3,3-3.2,4.9-2.9c0.9,0.1,1.7,0.3,2.6,0.4
			c0,0.9,0,1.8,0,2.7c-0.6,2-1.2,4.1-1.8,6.1c-0.4,1.4-0.9,2.8-1.4,4.2c-0.3-0.1-0.5-0.2-0.8-0.2c-1.9,0-3.8,0-5.7,0
			C199.3,74.2,199,74.2,198.8,74.1z"/>
		<path class="st46" d="M234.3,147.9c0,6.1,0,12.3,0,18.4c-1.7,0-3.5,0-5.2,0l0,0c0-6.1,0-12.3,0-18.4
			C230.8,147.9,232.6,147.9,234.3,147.9z"/>
		<path class="st44" d="M234.3,111.1c0,6.1,0,12.3,0,18.4c-1.7,0-3.5,0-5.2,0c0-6.1,0-12.3,0-18.4c0,0,0,0,0,0
			C230.8,111.1,232.6,111.1,234.3,111.1z"/>
		<path class="st45" d="M229.1,129.5c1.7,0,3.5,0,5.2,0c0,6.1,0,12.3,0,18.4c-1.7,0-3.5,0-5.2,0c0,0,0,0,0,0
			C229.1,141.8,229.1,135.7,229.1,129.5L229.1,129.5z"/>
		<path class="st47" d="M234.3,111.1c-1.7,0-3.5,0-5.2,0c0-6.1,0-12.1,0-18.2c0.6,0,1.2,0,1.8,0c0.4,0,0.8,0,1.3,0
			c0.2,0,0.3,0,0.5,0c0.8,0.3,1.4,0.9,1.8,1.7c0,0,0,0,0,0c0,0.4,0,0.7,0,1.1c0,4.5,0,8.9,0,13.4
			C234.3,109.7,234.3,110.4,234.3,111.1z"/>
		<path class="st43" d="M84.9,166.3c0-6.1,0-12.3,0-18.4c1.7,0,3.4,0,5.1,0c0,6.1,0,12.3,0,18.4l0,0
			C88.3,166.3,86.6,166.3,84.9,166.3z"/>
		<path class="st50" d="M84.9,129.5c0-6.1,0-12.3,0-18.4c1.7,0,3.4,0,5.1,0c0,0,0,0,0,0c0,6.1,0,12.3,0,18.4
			C88.3,129.5,86.6,129.5,84.9,129.5z"/>
		<path class="st49" d="M84.9,129.5c1.7,0,3.4,0,5.1,0c0,0,0,0,0,0c0,6.1,0,12.3,0,18.4l0,0c-1.7,0-3.4,0-5.1,0
			C84.9,141.8,84.9,135.7,84.9,129.5z"/>
		<path class="st53" d="M169.4,65.4c-0.6,2.1-1.2,4.1-1.8,6.2c-0.3,0.9-0.6,1.8-0.9,2.7c-2.4,0-4.8,0-7.3,0c0.8-2.7,1.6-5.3,2.4-8
			c0.4-1.3,0.7-2.5,1.1-3.8c0.2-0.8,0.7-1.3,1.6-1.3c1.6,0,3.3,0,4.9,0C169.4,62.6,169.4,64,169.4,65.4z"/>
		<path class="st48" d="M90,111.1c-1.7,0-3.4,0-5.1,0c0-4.6,0-9.3,0-13.9c0-0.4,0-0.8,0-1.2c0-0.2,0-0.3,0-0.5
			c0.1-1.8,1-2.7,2.7-2.7c0.2,0,0.4,0,0.6,0c0.6,0,1.2,0,1.7,0.1C90,98.9,90,105,90,111.1z"/>
		<path class="st54" d="M129.7,67.6c-0.6,2.2-1.3,4.4-1.9,6.7c-2.5,0-4.9,0-7.4,0c1.1-3.7,2.3-7.5,3.4-11.2c0.4-1.3,1.2-1.9,2.6-2
			c0.7-0.1,1.4-0.1,2-0.2c0.4,0,0.8,0,1.3,0C129.7,63.2,129.7,65.4,129.7,67.6z"/>
		<path class="st54" d="M110,74.3c0-4,0-8.1,0-12.1c0-1.1,0.1-1.1-1.1-1.1c-0.2,0-0.3-0.1-0.5-0.1c2.8,0,5.6,0,8.3,0
			c0.5,0,0.9,0.4,1.4,0.6c0,0.3,0,0.5,0,0.8c-0.7,2.2-1.3,4.5-2,6.7c-0.5,1.8-1.1,3.6-1.6,5.4c-0.2-0.1-0.5-0.2-0.7-0.2
			C112.5,74.3,111.2,74.3,110,74.3L110,74.3z"/>
		<path class="st55" d="M159.4,74.3c2.4,0,4.8,0,7.3,0c-0.4,1.4-0.8,2.8-1.2,4.2c-0.5,1.8-1.1,3.6-1.6,5.4c-0.5,1.8-1.2,2.3-3,2.4
			c-1.3,0-2.6,0-4,0c-1.1-0.1-1.1-0.1-0.8-1.2c1.1-3.5,2.1-7,3.2-10.5C159.3,74.5,159.4,74.4,159.4,74.3z"/>
		<path class="st56" d="M198.8,74.1c0.3,0.1,0.5,0.2,0.8,0.2c1.9,0,3.8,0,5.7,0c0.3,0,0.5,0.1,0.8,0.2c-0.7,2.3-1.3,4.6-2,6.8
			c-0.3,1-0.7,1.9-1.1,2.8c-0.9,1.9-3.4,2.8-5.8,2c-0.4-0.1-0.8-0.2-1.1-0.4c-0.3-0.3-0.6-0.8-0.5-1.1
			C196.6,81,197.7,77.6,198.8,74.1z"/>
		<path class="st53" d="M149.5,74.3c0-4.4,0-8.8,0-13.2c2.3,0,4.7,0,7,0c1.2,0.4,1.3,0.6,1,1.8c-0.9,3.3-1.9,6.6-2.9,9.9
			c-0.2,0.5-0.3,1-0.5,1.6C152.6,74.3,151.1,74.3,149.5,74.3L149.5,74.3z"/>
		<path class="st57" d="M120.4,74.3c2.5,0,4.9,0,7.4,0c-0.4,1.5-0.8,3-1.2,4.4c-0.5,1.6-1,3.2-1.5,4.9c-0.4,1.4-1.2,2.3-2.7,2.3
			c-1.3,0-2.6,0-3.9-0.2c-0.6-0.1-1-0.7-0.9-1.4c0.1-0.8,0.2-1.6,0.4-2.3C118.8,79.4,119.6,76.9,120.4,74.3z"/>
		<path class="st58" d="M118,37.4c0.7,1.5,1.5,3.1,2.2,4.6c0.8,1.7,1.6,3.5,2.4,5.2c0.4,0.9,0.3,1-0.6,1.1c-1.6,0.2-3.2,0.4-4.7,0.7
			c-0.9,0.1-1.3-0.1-1.7-0.9c-1.3-2.7-2.5-5.5-3.8-8.2c-0.4-0.8-0.7-1.6-1-2.4c0.3-0.1,0.5-0.2,0.8-0.2
			C113.6,37.4,115.8,37.4,118,37.4z"/>
		<path class="st52" d="M189.2,74.3c0-4.4,0-8.8,0-13.2c2.2,0,4.4,0,6.7,0c1.1,0.4,1.2,0.5,1,1.5c-1.2,4-2.4,7.9-3.6,11.9
			c-0.2-0.1-0.5-0.2-0.7-0.2C191.4,74.2,190.3,74.3,189.2,74.3L189.2,74.3z"/>
		<path class="st23" d="M100.6,55.9c0.4,4.9-3.7,8.9-8.6,8.9c-0.7,0-1.4-0.1-2-0.2c0-2.9,0-5.8,0-8.7c0,0,0.1,0,0.1,0
			C93.6,55.8,97.1,55.8,100.6,55.9z"/>
		<path class="st32" d="M209.2,170.1c-5.9,0-11.9,0-17.8,0c-0.7,0-1.5,0-2.2,0c0-1.3,0-2.5,0-3.8c6.7,0,13.3,0,20,0l0,0
			C209.2,167.6,209.2,168.9,209.2,170.1z"/>
		<path class="st38" d="M209.2,170.1c0-1.3,0-2.5,0-3.8c6.6,0,13.2,0,19.9,0c0,0,0,0,0,0c0,1.3,0,2.5,0,3.8c-5.6,0-11.3,0-16.9,0
			C211.2,170.2,210.2,170.1,209.2,170.1z"/>
		<path class="st36" d="M137.9,170.2c-2.8,0-5.5,0-8.3-0.1c0-1.3,0-2.5,0-3.8c6.6,0,13.2,0,19.9,0c0,1.3,0,2.5,0,3.8
			c-3.5,0-7,0-10.5,0C138.7,170.2,138.3,170.2,137.9,170.2z"/>
		<path class="st39" d="M149.5,170.1c0-1.3,0-2.5,0-3.8c0,0,0,0,0,0c6.6,0,13.2,0,19.9,0c0,1.3,0,2.5,0,3.8c-5.7,0-11.5,0-17.2,0
			C151.3,170.2,150.4,170.1,149.5,170.1z"/>
		<path class="st40" d="M169.4,170.1c0-1.3,0-2.5,0-3.8c0,0,0,0,0,0c6.6,0,13.2,0,19.8,0c0,0,0,0,0,0c0,1.3,0,2.5,0,3.8
			c-6,0-11.9,0-17.9,0C170.7,170.2,170,170.1,169.4,170.1z"/>
		<path class="st34" d="M100.6,55.9c-3.5,0-7,0-10.5,0c0-2.7,0-5.4,0-8.1c0.4-0.1,0.7-0.1,1.1-0.2c0.4,0,0.8,0,1.3,0
			c3.1,0.2,5.6,1.5,7.2,4.3c0.1,0.2,0.2,0.3,0.3,0.5C100.2,53.5,100.4,54.7,100.6,55.9z"/>
		<path class="st33" d="M118,37.4c-2.2,0-4.3,0-6.5,0c-0.3,0-0.5,0.1-0.8,0.2c-0.3-0.6-0.5-1.2-0.8-1.7c0-3.7,0-7.3,0-11
			c0.3,0,0.6,0,1,0c0.9,0.2,1.6,0.6,2,1.5C114.5,30,116.2,33.7,118,37.4z"/>
		<path class="st30" d="M90,55.9c0,2.9,0,5.8,0,8.7c-2.5-0.6-4.4-2.1-5.7-4.2c-0.7-1.1-1.1-2.3-1.1-3.5c0-0.3,0.1-0.7,0.1-1
			c0,0,0,0,0,0C85.6,55.9,87.8,55.9,90,55.9z"/>
		<path class="st59" d="M151.8,37.4c2.6,0,5.2,0,7.8,0c0.6,1.3,1.2,2.6,1.8,3.8c0.3,0.6-0.1,0.9-0.6,1c-1.3,0.3-2.6,0.5-3.9,0.7
			c-0.5,0.1-1,0.2-1.5,0.1c-0.9-0.2-1.5-0.6-1.9-1.5C153,40.1,152.4,38.8,151.8,37.4z"/>
		<path class="st16" d="M150.3,19c-0.7-0.1-1,0.2-1,0.9c0,4.1,0,8.3,0,12.4c-1.7-3.6-3.4-7.3-5.1-10.9c-0.1-0.2-0.2-0.5-0.3-0.7
			c-0.2-0.6-0.1-1,0.6-1.1c1.4-0.2,2.8-0.5,4.2-0.8c0.3,0,0.6,0,1,0C149.9,18.9,150.1,19,150.3,19z"/>
		<path class="st22" d="M90,55.9c-2.2,0-4.4,0-6.7,0c-0.1-1.7,0.6-3.1,1.5-4.4c1.3-1.9,3.1-3.2,5.3-3.7c0,2.7,0,5.4,0,8.1
			C90.1,55.8,90.1,55.8,90,55.9z"/>
		<path class="st60" d="M169.5,37.4c5.9,0,11.9,0,17.8,0c0.4,0.5,0.3,0.7-0.4,0.8c-2.3,0.3-4.6,0.7-7,1.1c-0.3,0-0.5,0.1-0.8,0.1
			c-3.1,0.5-6.1,1-9.2,1.4c-0.2,0-0.3,0-0.5,0C169.5,39.7,169.5,38.6,169.5,37.4z"/>
		<path class="st61" d="M184.8,19c-0.3-0.4-0.5-0.8-0.8-1.3c-0.1-0.3-0.2-0.5-0.3-0.8c-0.3-0.6-0.6-1.3-0.9-1.9
			c-0.3-0.8-0.2-1.2,0.6-1.3c1.6-0.3,3.2-0.6,4.9-0.8c0.3,0,0.6,0.2,0.9,0.3c0,2,0,3.9,0,5.9c0,0,0,0,0,0
			C187.8,19,186.3,19,184.8,19z"/>
		<path class="st57" d="M110,74.3c1.2,0,2.5,0,3.7,0c0.2,0,0.5,0.1,0.7,0.2c-0.6,2-1.1,4.1-1.7,6.1c-0.3,1.2-0.6,2.3-1,3.5
			c-0.3,0.9-0.8,1.6-1.7,1.9C110,82,110,78.1,110,74.3z"/>
		<path class="st55" d="M149.5,74.3c1.5,0,3.1,0,4.6,0c-0.2,0.6-0.4,1.3-0.6,1.9c-0.2,0.5-0.3,1.1-0.5,1.6c-0.7,2.3-1.4,4.6-2.1,6.9
			c-0.2,0.6-0.6,1.1-1.3,1.2c-0.1-0.3-0.2-0.6-0.2-0.9C149.5,81.4,149.5,77.8,149.5,74.3z"/>
		<path class="st61" d="M178.7,19c-3.1,0-6.2,0-9.4,0c0,0,0,0,0,0c0-1.1,0-2.2,0-3.3c1.4-0.2,2.9-0.3,4.3-0.5c0.3-0.1,0.6-0.1,1-0.2
			c0.4,0.1,0.8,0.1,1.3,0.2c0.3,0.1,0.5,0.2,0.8,0.3c0.4,0.6,0.8,1.2,1.3,1.7c0.1,0.2,0.2,0.4,0.3,0.6
			C178.4,18.3,178.6,18.6,178.7,19z"/>
		<path class="st58" d="M124.3,37.4c1.8,0,3.6,0,5.4,0c0,3.1,0,6.1,0,9.2c-1.1-0.4-1.8-1.1-2.3-2.3c-0.7-1.6-1.5-3.1-2.2-4.7
			c-0.1-0.2-0.2-0.3-0.3-0.5C124.7,38.6,124.5,38,124.3,37.4z"/>
		<path class="st62" d="M169.4,15.7c0,1.1,0,2.2,0,3.3c-4.2,0-8.5,0-12.7,0c0-0.3,0.1-0.5,0.1-0.8c0.2-0.2,0.4-0.3,0.6-0.5
			c1.3-0.3,2.6-0.6,3.9-0.8c1.9-0.3,3.9-0.6,5.8-1c0.6-0.1,1.2-0.2,1.7-0.3C169.1,15.7,169.2,15.7,169.4,15.7z"/>
		<path class="st35" d="M109.8,24.9c0,3.7,0,7.3,0,11c-0.7-1.5-1.5-3.1-2.2-4.6c-0.1-0.2-0.2-0.4-0.3-0.6c-0.7-1.5-1.4-3.1-2.2-4.6
			c-0.3-0.5-0.2-0.6,0.4-0.7c1.4-0.1,2.8-0.3,4.1-0.5C109.7,24.9,109.8,24.9,109.8,24.9z"/>
		<path class="st56" d="M189.2,74.3c1.1,0,2.2,0,3.2,0c0.2,0,0.5,0.1,0.7,0.2c-1,3.1-1.9,6.3-2.9,9.4c-0.2,0.6-0.7,1-1,1.5
			C189.2,81.7,189.2,78,189.2,74.3z"/>
		<path class="st9" d="M184.8,19c1.5,0,3,0,4.4,0c0,2.8,0,5.7,0,8.5c0,0.3-0.1,0.6-0.1,0.8c-1.2-2.5-2.4-5.1-3.6-7.6
			c-0.1-0.2-0.3-0.4-0.4-0.7c-0.1-0.3-0.2-0.5-0.3-0.8C184.8,19.2,184.8,19.1,184.8,19z"/>
		<path class="st26" d="M229.1,170.1c0-1.3,0-2.5,0-3.8c1.7,0,3.5,0,5.2,0c0,0.9,0,1.8-0.2,2.7c-0.1,0.4-0.6,0.8-1,0.9
			C231.8,170.1,230.4,170.1,229.1,170.1z"/>
		<path class="st27" d="M84.9,166.3c1.7,0,3.4,0,5.1,0c0,1.3,0,2.5,0,3.8c-0.6,0-1.2,0-1.7,0.1c-0.8-0.1-1.6-0.1-2.3-0.4
			c-0.7-0.3-1-1.1-1-1.9C84.9,167.4,84.9,166.8,84.9,166.3z"/>
		<path class="st59" d="M169.5,37.4c0,1.2,0,2.3,0,3.5c-1.8,0.5-2.5,0.2-3.3-1.5c-0.3-0.6-0.5-1.1-0.8-1.7c0.2-0.1,0.5-0.3,0.7-0.3
			c1.1,0,2.2,0,3.3,0C169.4,37.4,169.5,37.4,169.5,37.4z"/>
		<path class="st51" d="M189.2,19c0-2,0-3.9,0-5.9c0.2,0.1,0.3,0.1,0.5,0.2c0.2,0.3,0.3,0.5,0.5,0.8c0.2,0.4,0.4,0.8,0.6,1.3
			c0.1,0.2,0.2,0.4,0.3,0.6c0.4,0.9,0.8,1.8,1.3,2.7c0,0.1,0,0.2,0,0.3C191.3,19,190.3,19,189.2,19z"/>
		<path class="st63" d="M129.7,67.6c0-2.2,0-4.4,0-6.7c0.1,0,0.1,0,0.2,0c1.2,0.1,1.5,0.5,1.3,1.7C130.7,64.3,130.2,65.9,129.7,67.6
			z"/>
		<path class="st64" d="M245.5,84.4c0-3.4,0-6.8,0-10.1c0-2.9,0-5.8,0-8.7c0,0.3,0.1,0.6,0.1,0.9c0,1.3,0,2.5,0,3.8
			c0,1.4,0,2.9,0,4.3c0,0.4,0,0.8,0,1.3c0,1.1,0,2.2,0,3.3c0,1.6,0,3.3,0,4.9C245.5,84.2,245.5,84.3,245.5,84.4z"/>
		<path class="st64" d="M195.9,61.1c-2.2,0-4.4,0-6.7,0c-3.6,0-7.3,0-10.9,0c0.3,0,0.5-0.1,0.8-0.1c5.4,0,10.7,0,16.1,0
			C195.4,60.9,195.6,61,195.9,61.1z"/>
		<path class="st65" d="M169.4,65.4c0-1.4,0-2.7,0-4.1c0.4,0,0.8,0,1.3,0C170.2,62.6,169.8,64,169.4,65.4z"/>
		<path class="st64" d="M156.5,61.1c-2.3,0-4.7,0-7,0c-2.9,0-5.8,0-8.7,0c0.3,0,0.5-0.1,0.8-0.1c4.7,0,9.5,0,14.2,0
			C156,60.9,156.3,61,156.5,61.1z"/>
		<path class="st64" d="M80,96.5c0-0.5,0-1.1-0.1-1.6c-0.1-0.5-0.3-1-0.6-1.4c-1-1.1-2.3-1-3.5-0.6c-1.2,0.4-1.6,1.3-1.7,2.4
			c0,0.4,0,0.7,0,1.1c-0.4-1.3,0-2.8,0.8-3.4c1-0.7,3.2-0.8,4.2-0.1C80.1,93.7,80.5,95,80,96.5z"/>
		<path class="st66" d="M209.1,82.4c0,1.2,0,2.4,0,3.6c-0.7,0-0.9-0.5-0.7-1.1C208.5,84.1,208.8,83.2,209.1,82.4z"/>
		<path class="st64" d="M230,86c4.7,0,9.3,0,14,0c-0.2,0-0.5,0.1-0.7,0.1c-4.2,0-8.4,0-12.6,0C230.5,86.2,230.3,86.1,230,86z"/>
		<path class="st64" d="M73.8,71.3c0,1,0,2,0,3c0,2.2,0,4.3,0,6.5c0-0.2-0.1-0.4-0.1-0.6c0-2.8,0-5.5,0-8.3
			C73.7,71.6,73.7,71.5,73.8,71.3z"/>
		<path class="st64" d="M88.2,92.8c-0.2,0-0.4,0-0.6,0c-1.7,0-2.6,0.9-2.7,2.7c0,0.2,0,0.3,0,0.5c-0.3-1-0.2-1.9,0.6-2.7
			C86.3,92.5,87.2,92.5,88.2,92.8z"/>
		<path class="st67" d="M209.2,64.1c0-0.9,0-1.8,0-2.7c0.2,0.3,0.6,0.7,0.6,0.9C209.7,62.9,209.4,63.5,209.2,64.1z"/>
		<path class="st64" d="M170.7,61.3c-0.4,0-0.8,0-1.3,0c-1.6,0-3.3,0-4.9,0c0.2,0,0.5-0.1,0.7-0.1c1.6,0,3.1,0,4.7,0
			C170.2,61.1,170.4,61.2,170.7,61.3z"/>
		<path class="st64" d="M241.2,92.7c-1.6,0.7-1.9,2.1-1.8,3.6c-0.4-1.3,0-2.8,1-3.4C240.6,92.8,240.9,92.8,241.2,92.7z"/>
		<path class="st64" d="M156.9,86.2c1.3,0,2.6,0,4,0C159.5,86.2,158.2,86.2,156.9,86.2z"/>
		<path class="st64" d="M234.3,94.6c-0.3-0.8-0.9-1.4-1.8-1.7C233.7,92.9,234.3,93.5,234.3,94.6z"/>
		<path class="st64" d="M86.2,85.9c1,0,1.9,0.1,2.9,0.1C88.1,86,87.2,85.9,86.2,85.9z"/>
		<path class="st64" d="M146.5,86.2c0.8,0,1.7-0.1,2.5-0.1C148.2,86.1,147.4,86.1,146.5,86.2z"/>
		<path class="st64" d="M243.8,92.7c-0.8,0-1.7,0-2.5,0C242.2,92.7,243,92.7,243.8,92.7z"/>
		<path class="st64" d="M245.1,93.6c-0.4-0.3-0.8-0.6-1.3-1C244.5,92.7,244.9,93,245.1,93.6z"/>
		<path class="st64" d="M220.5,61.2c-0.7,0-1.4,0-2,0c0.7,0,1.4-0.1,2.1-0.1C220.5,61.1,220.5,61.2,220.5,61.2z"/>
		<path class="st64" d="M90.8,42.3c0.6,0,1.2,0,1.8,0C92,42.3,91.4,42.3,90.8,42.3z"/>
		<path class="st64" d="M241.8,61.2c-0.5,0-1.1-0.1-1.6-0.1C240.7,61.1,241.2,61.2,241.8,61.2z"/>
		<path class="st64" d="M92.5,70.1c0,0,0-0.1,0-0.1c0.5,0,1,0,1.5,0C93.5,70,93,70.1,92.5,70.1z"/>
		<path class="st64" d="M242.6,27.6c0-0.5,0-0.9,0-1.4C242.6,26.6,242.6,27.1,242.6,27.6z"/>
		<path class="st64" d="M129.8,60.9c-0.1,0-0.1,0-0.2,0c-0.4,0-0.8,0-1.3,0C128.9,60.9,129.4,60.9,129.8,60.9z"/>
		<path class="st64" d="M129.9,46.6c0.5,0,0.9,0,1.4,0C130.8,46.6,130.3,46.6,129.9,46.6z"/>
		<path class="st64" d="M136.4,20.7c-0.5,0-0.9,0-1.4,0C135.4,20.7,135.9,20.7,136.4,20.7z"/>
		<path class="st64" d="M232.1,92.8c-0.4,0-0.8,0-1.3,0C231.3,92.8,231.7,92.8,232.1,92.8z"/>
		<path class="st64" d="M106.5,49.8c0.4,0,0.8,0,1.3,0C107.4,49.8,106.9,49.8,106.5,49.8z"/>
		<path class="st64" d="M92.5,47.6c-0.4,0-0.8,0-1.3,0C91.7,47.6,92.1,47.6,92.5,47.6z"/>
		<path class="st64" d="M234.3,95.7c0-0.4,0-0.7,0-1.1C234.3,94.9,234.3,95.3,234.3,95.7z"/>
		<path class="st64" d="M109.8,24.9c-0.1,0-0.1,0-0.2,0c0.4,0,0.7,0,1.1,0C110.5,24.9,110.2,24.9,109.8,24.9z"/>
		<path class="st64" d="M245.4,94.4c-0.1-0.3-0.2-0.5-0.3-0.8C245.2,93.9,245.3,94.2,245.4,94.4z"/>
		<path class="st64" d="M91.1,70c0,0,0,0.1,0,0.1c-0.3,0-0.6,0-0.9,0c0,0,0-0.1,0-0.1C90.5,70,90.8,70,91.1,70z"/>
		<path class="st64" d="M83.3,55.8c0,0.3-0.1,0.7-0.1,1C83.2,56.5,83.3,56.2,83.3,55.8z"/>
		<path class="st64" d="M179.2,39.5c0.3,0,0.5-0.1,0.8-0.1C179.7,39.4,179.5,39.4,179.2,39.5z"/>
		<path class="st64" d="M73.7,53.3c0,0.3,0.1,0.5,0.1,0.8C73.7,53.8,73.7,53.6,73.7,53.3z"/>
		<path class="st68" d="M90,129.5c0-6.1,0-12.3,0-18.4c6.7,0,13.3,0,20,0c0,0,0,0,0,0c0,6.1,0,12.3,0,18.4
			C103.3,129.5,96.7,129.5,90,129.5L90,129.5z"/>
		<path class="st69" d="M189.2,111.1c6.7,0,13.3,0,20,0c0,0,0,0,0,0c0,6.1,0,12.3,0,18.4c0,0,0,0,0,0c-6.7,0-13.3,0-20,0
			C189.2,123.4,189.2,117.2,189.2,111.1L189.2,111.1z"/>
		<path class="st70" d="M209.2,129.5c0-6.1,0-12.3,0-18.4c6.6,0,13.2,0,19.9,0c0,6.1,0,12.3,0,18.4c0,0,0,0,0,0
			C222.5,129.5,215.8,129.5,209.2,129.5z"/>
		<path class="st71" d="M189.2,111.1c0,6.1,0,12.3,0,18.4c0,0,0,0,0,0c-0.3,0-0.5,0-0.8,0c-0.2-0.1-0.3-0.2-0.5-0.3
			c-3.6-2.1-7.3-4.2-10.9-6.3c-2.5-1.5-5.1-2.9-7.6-4.4c0-2.4,0-4.9,0-7.3c0,0,0,0,0,0c6.2,0,12.5,0,18.7,0
			C188.5,111.1,188.9,111.1,189.2,111.1z"/>
		<path class="st72" d="M110,129.5c0-6.1,0-12.3,0-18.4c6.6,0,13.1,0,19.7,0c0,0,0,0,0,0c0,6.1,0,12.3,0,18.4
			C123.1,129.5,116.6,129.5,110,129.5L110,129.5z"/>
		<path class="st73" d="M169.4,118.4c-2.4-1.3-4.8-2.6-7.1-4c-2-1.1-3.9-2.2-5.9-3.4c4.3,0,8.7,0,13,0
			C169.4,113.6,169.4,116,169.4,118.4z"/>
		<path class="st74" d="M140.9,111.1c0,5.2,0,10.3,0,15.5c0,9.6,0,19.3,0,28.9c0,0.7,0,1.3,0.1,2c-0.1-0.3-0.2-0.6-0.2-0.9
			c0-2.9,0-5.7,0-8.6c0-5.9,0-11.9,0-17.8c0-0.6-0.3-0.6-0.7-0.6c-3.5,0-6.9,0-10.4,0l0,0c0-6.1,0-12.3,0-18.4
			C133.4,111.1,137.2,111.1,140.9,111.1z"/>
		<path class="st37" d="M90,170.1c0-1.3,0-2.5,0-3.8c0,0,0,0,0,0c6.7,0,13.3,0,20,0c0,1.3,0,2.5,0,3.8c-5.7,0-11.4,0-17.1,0
			C92,170.2,91,170.1,90,170.1z"/>
		<path class="st41" d="M110,170.1c0-1.3,0-2.5,0-3.8c0,0,0,0,0,0c6.6,0,13.1,0,19.7,0l0,0c0,1.3,0,2.5,0,3.8c-5.9,0-11.8,0-17.6,0
			C111.4,170.2,110.7,170.1,110,170.1z"/>
		<path class="st64" d="M108.6,86c-0.3,0-0.5,0.1-0.8,0.1c-5.5,0-10.9,0-16.4,0c-0.3,0-0.5-0.1-0.8-0.1C96.6,86,102.6,86,108.6,86z"
			/>
		<path class="st64" d="M73.6,45.7c-0.1-0.2-0.1-0.4-0.1-0.7c0-3.4,0-6.8,0-10.3c0-0.2,0.1-0.4,0.1-0.7c0,1.1,0,2.2,0,3.3
			C73.7,40.2,73.6,42.9,73.6,45.7z"/>
		<path class="st75" d="M229.1,166.3c-6.6,0-13.2,0-19.9,0c0,0,0,0,0,0c0-6.1,0-12.3,0-18.4c6.6,0,13.2,0,19.8,0c0,0,0,0,0,0
			C229.1,154.1,229.1,160.2,229.1,166.3z"/>
		<path class="st76" d="M229.1,147.9c-6.6,0-13.2,0-19.8,0l0,0c0-6.1,0-12.3,0-18.4c0,0,0,0,0,0c6.6,0,13.2,0,19.9,0
			C229.1,135.7,229.1,141.8,229.1,147.9z"/>
		<path class="st77" d="M110,166.4c-6.7,0-13.3,0-20,0c0-6.1,0-12.3,0-18.4c0,0,0,0,0,0c6.7,0,13.3,0,20,0l0,0
			C110,154.1,110,160.2,110,166.4L110,166.4z"/>
		<path class="st78" d="M110,147.9c-6.7,0-13.3,0-20,0c0-6.1,0-12.3,0-18.4c6.7,0,13.3,0,20,0c0,0,0,0,0,0
			C110,135.6,110,141.8,110,147.9z"/>
		<path class="st79" d="M209.2,147.9c0,6.1,0,12.3,0,18.4c-6.7,0-13.3,0-20,0c0,0,0,0,0,0c0-6.1,0-12.3,0-18.4
			C195.9,147.9,202.6,147.9,209.2,147.9L209.2,147.9z"/>
		<path class="st80" d="M140.8,148c0,2.9,0,5.7,0,8.6c0,0.3,0.1,0.6,0.2,0.9c1,1.8,1.5,2,3.3,1.3c0.6-0.2,1.1-0.5,1.7-0.8
			c1.1-0.6,2.3-1.3,3.4-1.9c0.1,0.2,0.1,0.5,0.1,0.7c0,3.2,0,6.4,0,9.6c0,0,0,0,0,0c-6.6,0-13.2,0-19.9,0c0,0,0,0,0,0
			c0-6.1,0-12.3,0-18.4c0,0,0,0,0,0C133.4,147.9,137.1,147.9,140.8,148z"/>
		<path class="st81" d="M149.5,166.3c0-3.2,0-6.4,0-9.6c0-0.2-0.1-0.5-0.1-0.7c3.8-2.2,7.6-4.3,11.4-6.5c1-0.6,2-1.1,3-1.7
			c0.3,0,0.5,0.1,0.8,0.1c1.6,0,3.2,0,4.8,0l0,0c0,6.1,0,12.3,0,18.4c0,0,0,0,0,0C162.8,166.3,156.2,166.3,149.5,166.3z"/>
		<path class="st82" d="M169.4,166.3c0-6.1,0-12.3,0-18.4c6.6,0,13.2,0,19.8,0l0,0c0,6.1,0,12.3,0,18.4
			C182.6,166.3,176,166.3,169.4,166.3z"/>
		<path class="st83" d="M209.2,147.9c-6.7,0-13.3,0-20,0c0,0,0,0,0,0c0-5,0-10,0-14.9c0.9-1.2,0.9-1.6,0-2.8c0-0.2,0-0.4,0-0.6
			c0,0,0,0,0,0c6.7,0,13.3,0,20,0C209.2,135.7,209.2,141.8,209.2,147.9z"/>
		<path class="st84" d="M189.2,129.5c0,0.2,0,0.4,0,0.6c-0.3-0.2-0.5-0.4-0.8-0.6C188.7,129.5,189,129.5,189.2,129.5z"/>
		<path class="st85" d="M110,147.9c0-6.1,0-12.3,0-18.4c6.6,0,13.1,0,19.7,0c0,0,0,0,0,0c0,6.1,0,12.3,0,18.4c0,0,0,0,0,0
			C123.1,147.9,116.6,147.9,110,147.9L110,147.9z"/>
		<path class="st86" d="M169.4,139.4c-4.4,2.5-8.7,5-13.1,7.5c-0.7,0.4-1.3,0.7-2,1.1c-1.6,0-3.2,0-4.8,0l0,0c0-6.1,0-12.3,0-18.4
			l0,0c6.6,0,13.2,0,19.8,0C169.4,132.8,169.4,136.1,169.4,139.4z"/>
		<path class="st73" d="M169.4,129.5c-6.6,0-13.2,0-19.8,0c0-5.6,0-11.2,0-16.8c3.6,2,7.2,4,10.7,6c3,1.7,6.1,3.5,9.1,5.2
			C169.4,125.8,169.4,127.6,169.4,129.5L169.4,129.5z"/>
		<path class="st87" d="M189.2,133c0,5,0,10,0,14.9c-6.6,0-13.2,0-19.8,0c0,0,0,0,0,0c0-1.1,0-2.1,0-3.2c3.4-1.9,6.7-3.9,10.1-5.8
			c2.7-1.5,5.3-3,8-4.6C188.1,133.9,188.6,133.4,189.2,133z"/>
		<path class="st87" d="M169.4,139.4c0-3.3,0-6.6,0-9.9c0,0,0,0,0,0c3.3,0,6.7,0,10,0c1.2,0.7,2.5,1.3,3.8,2.1
			c-2.8,1.6-5.4,3.1-8,4.6C173.2,137.2,171.3,138.3,169.4,139.4z"/>
		<path class="st88" d="M149.5,112.7c0,5.6,0,11.2,0,16.8c0,0,0,0,0,0c-0.8,0-1.7,0-2.5,0c-0.6,0-0.8,0.1-0.8,0.8
			c0,5.9,0,11.8,0,17.7c0,1.5,0,3,0,4.5c0-0.3-0.1-0.6-0.1-0.8c0-13.3,0-26.5,0-39.8c0-1,0.1-1.1,1-0.6
			C147.9,111.7,148.7,112.2,149.5,112.7z"/>
		<path class="st71" d="M179.4,129.5c-3.3,0-6.7,0-10,0c0-1.9,0-3.7,0-5.6c2.3,1.3,4.7,2.6,7,3.9
			C177.4,128.4,178.4,128.9,179.4,129.5z"/>
		<path class="st89" d="M146.2,152.4c0-1.5,0-3,0-4.5c1.1,0,2.2,0,3.3,0c0,0,0,0,0,0c0,0.9,0,1.8,0,2.7c-1,0.6-2,1.2-3.1,1.8
			C146.4,152.5,146.3,152.4,146.2,152.4z"/>
		<path class="st86" d="M169.4,144.7c0,1.1,0,2.1,0,3.2c-1.6,0-3.2,0-4.8,0c-0.3,0-0.5-0.1-0.8-0.1
			C165.7,146.8,167.5,145.8,169.4,144.7z"/>
		<path class="st81" d="M149.6,150.7c0-0.9,0-1.8,0-2.7c1.6,0,3.2,0,4.8,0C152.7,148.9,151.2,149.8,149.6,150.7z"/>
		<path class="st90" d="M129.7,147.9c0-6.1,0-12.3,0-18.4c3.5,0,6.9,0,10.4,0c0.4,0,0.7,0,0.7,0.6c0,5.9,0,11.9,0,17.8
			C137.1,147.9,133.4,147.9,129.7,147.9z"/>
		<path class="st91" d="M110,147.9c6.6,0,13.1,0,19.7,0c0,6.1,0,12.3,0,18.4c-6.6,0-13.1,0-19.7,0C110,160.2,110,154.1,110,147.9z"
			/>
		<path class="st90" d="M149.5,147.9c-1.1,0-2.2,0-3.3,0c0-5.9,0-11.8,0-17.7c0-0.7,0.2-0.8,0.8-0.8c0.8,0,1.7,0,2.5,0
			C149.5,135.6,149.5,141.8,149.5,147.9z"/>
	</g>
</g>
</svg>
