<?xml version="1.0" encoding="utf-8"?>
<!-- Generator: Adobe Illustrator 24.1.3, SVG Export Plug-In . SVG Version: 6.00 Build 0)  -->
<svg version="1.1" id="图层_1" xmlns="http://www.w3.org/2000/svg" xmlns:xlink="http://www.w3.org/1999/xlink" x="0px" y="0px"
	 viewBox="0 0 983 180.2" style="enable-background:new 0 0 983 180.2;" xml:space="preserve">
<style type="text/css">
	.st0{enable-background:new    ;}
	.st1{fill:#FEFEFE;}
	.st2{fill:#5787E1;}
	.st3{fill:#7C9BEB;}
	.st4{fill:#8EABF8;}
	.st5{fill:#6EB1FE;}
	.st6{fill:#3368D4;}
	.st7{fill:#4795E0;}
	.st8{fill:#6476DA;}
	.st9{fill:#C6E5FA;}
	.st10{fill:#C3E8F8;}
	.st11{fill:#46A5F6;}
	.st12{fill:#6DE0FD;}
	.st13{fill:#76CFF5;}
	.st14{fill:#D9F6FC;}
	.st15{fill:#A9DCF4;}
	.st16{fill:#73A0F4;}
	.st17{fill:#D6E3FB;}
	.st18{fill:#A0D2F8;}
	.st19{fill:#8FD7F5;}
	.st20{fill:#6FE4F5;}
	.st21{fill:#83B3DC;}
	.st22{fill:#89C4FB;}
	.st23{fill:#C7E3F9;}
	.st24{fill:#64CDFA;}
	.st25{fill:#C3E2FC;}
	.st26{fill:#C6F1FB;}
	.st27{fill:#192D5F;}
	.st28{fill:#102B8E;}
	.st29{fill:#E6F9FC;}
	.st30{fill:#B7E3F6;}
	.st31{fill:#8DDDF0;}
	.st32{fill:#C0DEF9;}
	.st33{fill:#1C3D73;}
	.st34{fill:#CBE2F5;}
	.st35{fill:#A8E8F7;}
	.st36{fill:#B2F0F9;}
	.st37{fill:#2B3461;}
	.st38{fill:#123072;}
	.st39{fill:#052C66;}
	.st40{fill:#062586;}
	.st41{fill:#0F4059;}
	.st42{fill:#112C5A;}
	.st43{fill:#C7EBF9;}
	.st44{fill:#2D428F;}
	.st45{fill:#13589E;}
	.st46{fill:#2099D1;}
	.st47{fill:#1668C3;}
	.st48{fill:#87B6F0;}
	.st49{fill:#3872B2;}
	.st50{fill:#0E408A;}
	.st51{fill:#3457A9;}
	.st52{fill:#E0F5FE;}
	.st53{fill:#89DFFB;}
	.st54{fill:#8DBCFE;}
	.st55{fill:#7FC5F6;}
	.st56{fill:#58A9F4;}
	.st57{fill:#59C6F5;}
	.st58{fill:#4EAEF3;}
	.st59{fill:#A9D8F8;}
	.st60{fill:#97CAF9;}
	.st61{fill:#B1CAF7;}
	.st62{fill:#E1F5FD;}
	.st63{fill:#E4F2FE;}
	.st64{fill:#8AC4FB;}
	.st65{fill:#90D7F5;}
	.st66{fill:#5AC7F5;}
	.st67{fill:#A2D3F8;}
	.st68{fill:#085697;}
	.st69{fill:#1992CC;}
	.st70{fill:#3082C9;}
	.st71{fill:#2387AC;}
	.st72{fill:#2660AF;}
	.st73{fill:#3E58CA;}
	.st74{fill:#1E70AE;}
	.st75{fill:#1E4D93;}
	.st76{fill:#1E66A8;}
	.st77{fill:#11597E;}
	.st78{fill:#035395;}
	.st79{fill:#1C4D7F;}
	.st80{fill:#033C92;}
	.st81{fill:#253D99;}
	.st82{fill:#2D5985;}
	.st83{fill:#3753AC;}
	.st84{fill:#3357AA;}
	.st85{fill:#1B6A8F;}
	.st86{fill:#23419E;}
	.st87{fill:#0E45A8;}
	.st88{fill:#14668B;}
	.st89{fill:#1E70AF;}
	.st90{fill:#033C93;}
	.st91{fill:#1C5AB6;}
</style>
<g class="st0">
	<path d="M261.1,116c1.8-0.2,3.5-0.6,5.1-1.1V95.4c0-2.1,1.1-3.2,3.2-3.2h20.5c0.6,0,1.3,0.2,2,0.6s1.1,1.3,1.1,2.6v35.5
		c0,0.7-0.1,1.4-0.3,2c-0.2,0.6-0.7,1.1-1.4,1.5c-4.5,2.9-9.7,5.1-15.7,6.7c-6,1.6-12.3,2.4-19,2.4c-7.8,0-15.1-1.5-22-4.4
		c-6.8-3-12.8-7-18-12.1c-5.1-5.1-9.2-11.1-12.1-17.9c-3-6.8-4.4-14.2-4.4-22s1.5-15.1,4.4-21.9s6.9-12.7,12-17.7s11-9,17.9-11.9
		c6.8-2.9,14.1-4.4,21.9-4.4c6.6,0,12.5,0.9,17.7,2.6c5.1,1.7,9.9,4.3,14.4,7.6c0.8,0.6,1.2,1.2,1.4,2c0.2,0.7,0,1.5-0.5,2.2
		L277,62.8c-0.6,0.9-1.3,1.3-2.3,1.3c-0.7,0-1.4-0.3-2.1-0.8c-2.2-1.6-4.7-3-7.4-3.9c-2.7-1-5.6-1.5-8.8-1.5
		c-4.3,0-8.2,0.8-11.6,2.3c-3.4,1.5-6.4,3.6-8.8,6.2c-2.5,2.6-4.3,5.7-5.7,9.2c-1.3,3.5-2,7.3-2,11.4c0,4,0.7,7.8,2,11.4
		c1.4,3.6,3.3,6.7,5.7,9.3c2.5,2.7,5.3,4.8,8.7,6.3c3.3,1.6,7,2.3,11,2.3C257.6,116.3,259.3,116.2,261.1,116z"/>
	<path d="M311.3,51.4c0-2.2,1.1-3.4,3.3-3.4h12.6c1.1,0,2.1,0.2,3,0.5c0.9,0.4,1.7,1.5,2.5,3.3l3.2,8.2c1.5-1.7,3-3.3,4.5-4.9
		c1.5-1.6,3-2.9,4.8-4.1c1.7-1.2,3.7-2.2,5.8-2.9c2.2-0.7,4.7-1.1,7.7-1.1c3.1,0,6,0.5,8.9,1.5s5.5,2.2,7.8,3.5s4.3,2.6,6,3.9
		c1.7,1.3,2.8,2.2,3.4,2.8c1.3,1.1,1.9,2.1,1.9,3s-0.4,1.9-1.1,2.9L376,78.2c-0.7,1-1.4,1.5-2.3,1.5c-0.8,0-1.6-0.4-2.4-1.1
		c-0.7-0.6-1.5-1.3-2.4-2.1c-0.9-0.8-2-1.6-3.3-2.3c-1.3-0.7-2.7-1.4-4.3-1.9c-1.6-0.5-3.3-0.8-5.3-0.8c-2.2,0-4.4,0.3-6.4,1
		s-3.7,1.7-5.2,3.1s-2.7,3.1-3.6,5.2s-1.3,4.5-1.3,7.2v50.6c0,2.2-1.1,3.3-3.4,3.3h-21.6c-2.2,0-3.3-1.1-3.3-3.3L311.3,51.4
		L311.3,51.4z"/>
	<path d="M459.6,111.1c0.9,0,1.6,0.4,2.1,1.1l9.4,13c0.8,1,1.1,1.9,1.1,2.7c0,0.8-0.4,1.5-1.3,2.3c-3.1,2.7-6.1,4.9-9.1,6.7
		c-3,1.7-6,3.1-8.9,4.1s-5.8,1.6-8.7,2c-2.9,0.4-5.7,0.5-8.6,0.5c-6.3,0-12.4-1.3-18.2-3.8s-10.9-6-15.4-10.3
		c-4.4-4.3-7.9-9.4-10.6-15.3c-2.6-5.8-3.9-12.1-3.9-18.7s1.1-12.9,3.4-18.7s5.5-10.9,9.7-15.3s9.2-7.8,15-10.3s12.2-3.8,19.2-3.8
		c2.9,0,6,0.4,9.3,1.1c3.3,0.8,6.6,2,9.8,3.6s6.3,3.7,9.3,6.2s5.6,5.6,7.8,9.1c2.2,3.5,4,7.6,5.4,12.1s2,9.7,2,15.3
		c0,2-0.2,3.6-0.6,4.8c-0.4,1.2-1,2.2-1.9,2.8c-0.9,0.6-2,1.1-3.4,1.3c-1.4,0.2-3.1,0.3-5.1,0.3h-53c0.7,2.5,1.7,4.8,3.1,6.7
		c1.3,2,2.9,3.7,4.8,5.1c1.8,1.4,3.9,2.5,6.1,3.3s4.6,1.1,7,1.1c3.5,0,6.4-0.3,8.7-0.8c2.3-0.6,4.3-1.3,5.9-2.1s3-1.7,4.1-2.7
		s2.2-1.9,3.4-2.8C458.3,111.3,458.9,111.1,459.6,111.1z M428.2,70.5c-1.8,0.7-3.5,1.7-5.1,2.9s-2.9,2.7-4.1,4.3
		c-1.2,1.6-2.2,3.4-3.1,5.3h37.2c-1.9-4.3-4.5-7.7-7.8-10s-7-3.5-11.3-3.5C432,69.4,430,69.8,428.2,70.5z"/>
	<path d="M494.6,24.2c0-1.2,0.3-2,1-2.6s1.5-0.8,2.6-0.8H519c1,0,1.9,0.3,2.5,1c0.7,0.6,1,1.5,1,2.5v114.2c0,1-0.3,1.9-0.9,2.5
		c-0.6,0.6-1.5,1-2.6,1h-20.8c-1.1,0-2-0.3-2.6-0.8c-0.6-0.6-1-1.4-1-2.6V24.2z"/>
	<path d="M541.1,76.5c2.5-5.8,6-10.9,10.4-15.3s9.5-7.8,15.4-10.3s12.2-3.8,18.8-3.8c6.7,0,13,1.3,18.9,3.8s11,6,15.4,10.3
		c4.4,4.4,7.9,9.5,10.4,15.3s3.8,12.1,3.8,18.7s-1.3,12.9-3.8,18.7c-2.6,5.8-6,11-10.4,15.3c-4.4,4.4-9.5,7.8-15.4,10.3
		s-12.2,3.8-18.8,3.8c-6.7,0-13-1.3-18.8-3.8c-5.9-2.5-11-6-15.4-10.3s-7.9-9.4-10.4-15.3s-3.8-12.1-3.8-18.8
		C537.3,88.6,538.6,82.3,541.1,76.5z M565.8,104.2c1,2.8,2.5,5.3,4.4,7.5c1.9,2.1,4.1,3.8,6.7,5.1c2.6,1.3,5.6,1.9,8.8,1.9
		s6.1-0.6,8.7-1.9c2.6-1.3,4.9-3,6.7-5.1c1.9-2.1,3.3-4.6,4.4-7.4c1-2.8,1.5-5.8,1.5-8.9s-0.5-6.1-1.5-8.9s-2.5-5.3-4.3-7.4
		c-1.9-2.1-4.1-3.8-6.7-5.1c-2.6-1.3-5.5-1.9-8.7-1.9s-6.1,0.6-8.8,1.9c-2.6,1.3-4.9,2.9-6.8,5.1c-1.9,2.1-3.4,4.6-4.4,7.4
		s-1.6,5.8-1.6,9C564.3,98.4,564.8,101.3,565.8,104.2z"/>
	<path d="M708.8,51.5c-0.1-1.2,0.2-2,0.9-2.6c0.6-0.6,1.5-0.8,2.6-0.8h21.3c2.3,0,3.4,1.1,3.4,3.4v87c0,2.3-1.1,3.4-3.4,3.4H720
		c-1.2,0-2.3-0.4-3.3-1.3c-1-0.8-1.7-1.8-2-3l-2.1-8.2c-1.9,2.6-4.1,4.8-6.4,6.6c-2.3,1.8-4.8,3.2-7.3,4.3s-5.1,1.9-7.8,2.3
		c-2.7,0.5-5.3,0.7-8,0.7c-2,0-4.3-0.2-6.9-0.7s-5.1-1.3-7.7-2.4c-2.6-1.1-5.1-2.7-7.5-4.6c-2.4-1.9-4.6-4.4-6.4-7.4
		c-1.9-3-3.4-6.6-4.5-10.7s-1.7-9-1.7-14.5V51.4c0-2.2,1.1-3.4,3.4-3.4h20.8c2.2,0,3.4,1.1,3.4,3.4v49.7c0,2.1,0.4,4.2,1.2,6.1
		s1.9,3.7,3.4,5.1c1.5,1.5,3.2,2.7,5.3,3.5c2.1,0.9,4.4,1.3,7,1.3c1.2,0,2.7-0.2,4.6-0.7c1.8-0.5,3.6-1.3,5.2-2.5
		c1.7-1.2,3.1-2.9,4.3-5s1.8-4.8,1.8-8V51.5z"/>
	<path d="M754.6,51.3c0-1.1,0.3-1.9,0.9-2.5c0.6-0.6,1.5-0.8,2.5-0.8h15.6c0.8,0,1.4,0.2,1.9,0.6c0.5,0.4,0.9,0.9,1.2,1.5
		s0.5,1.3,0.7,2s0.3,1.4,0.5,1.9l1.6,6.3c3.2-4,7.1-7.2,11.6-9.7s9.8-3.7,15.7-3.7c6.2,0,12,1.1,17.4,3.4c5.4,2.3,10.1,5.5,14.1,9.7
		s7.2,9.2,9.5,15.1s3.4,12.4,3.4,19.7c0,6.6-1.1,12.9-3.2,18.7c-2.1,5.8-5.1,11-9.1,15.3c-3.9,4.4-8.7,7.8-14.2,10.3
		s-11.7,3.8-18.5,3.8c-4.8,0-9.2-0.9-13.2-2.8c-4.1-1.8-7.5-4.1-10.5-6.9v33.9c0,2.2-1.1,3.3-3.3,3.3h-21.4c-1.1,0-1.9-0.3-2.5-0.8
		s-0.9-1.4-0.9-2.5V51.3H754.6z M782.1,103.7c1,2.8,2.4,5.2,4.3,7.4c1.9,2.1,4.2,3.9,6.9,5.2c2.7,1.3,5.8,2,9.3,2s6.6-0.6,9.4-1.8
		c2.8-1.2,5.2-2.8,7.1-4.9c2-2.1,3.5-4.5,4.6-7.3s1.6-5.8,1.6-9s-0.5-6.3-1.5-9.1c-1-2.9-2.4-5.3-4.3-7.4c-1.9-2.1-4.3-3.8-7-5
		c-2.8-1.2-6-1.8-9.7-1.8c-3.2,0-6.2,0.7-8.9,2c-2.7,1.4-5,3.1-7,5.3c-1.9,2.2-3.5,4.7-4.6,7.5s-1.6,5.6-1.6,8.5
		C780.6,98.1,781.1,100.9,782.1,103.7z"/>
	<path d="M866.7,17.4c0-1.7,0.4-3.2,1.3-4.4c0.9-1.2,2.5-1.8,4.8-1.8h16.9c2,0,3.4,0.5,4.3,1.6c0.8,1.1,1.3,2.6,1.3,4.5v13.9
		c0,2.1-0.5,3.5-1.4,4.3c-0.9,0.7-2.3,1.1-4.1,1.1h-16.9c-1.8,0-3.2-0.4-4.4-1.1c-1.1-0.7-1.7-2.1-1.7-4.2L866.7,17.4L866.7,17.4z
		 M866.8,51.3c0-1.1,0.3-1.9,1-2.4s1.4-0.8,2.2-0.8h21.8c0.9,0,1.7,0.3,2.3,0.9c0.6,0.6,0.9,1.4,0.9,2.3v87.4c0,2.1-1.1,3.2-3.2,3.2
		H870c-2.1,0-3.2-1.1-3.2-3.2V51.3z"/>
	<path d="M910.1,126.6c-0.3-0.5-0.5-1.1-0.7-1.6c-0.1-0.6-0.1-1.1,0.2-1.7c0.2-0.6,0.6-1.2,1.3-1.9l10.3-10.1c0.6-0.6,1.3-0.9,2-0.9
		c0.8,0,1.8,0.5,2.8,1.4c1.2,1.1,2.5,2.1,3.9,3.1s2.8,1.9,4.4,2.7c1.5,0.8,3.1,1.4,4.8,1.8c1.6,0.5,3.3,0.7,5,0.7
		c1.9,0,3.5-0.2,4.8-0.5s2.3-0.8,3.1-1.4s1.3-1.3,1.6-2.1c0.3-0.8,0.5-1.6,0.5-2.6c0-1.1-0.2-2-0.6-2.7c-0.4-0.7-1.1-1.4-2.2-2.1
		c-1.1-0.6-2.5-1.3-4.4-2s-4.3-1.4-7.3-2.3c-4.7-1.4-8.8-3-12.2-4.9s-6.2-4.1-8.5-6.7c-2.2-2.6-3.9-5.5-4.9-8.8
		c-1.1-3.3-1.6-7-1.6-11.2c0-3.8,0.8-7.3,2.3-10.5c1.6-3.2,3.8-6,6.8-8.3s6.7-4.1,11-5.5c4.4-1.3,9.3-2,14.9-2
		c4.1,0,7.8,0.4,10.8,1.3c3.1,0.9,5.8,2,8.2,3.3c2.3,1.3,4.4,2.8,6.2,4.3c1.8,1.6,3.4,3,4.9,4.4c1,0.9,1.6,1.8,1.6,2.7
		c0.1,0.9-0.5,1.8-1.7,2.9l-11.3,9.8c-0.9,0.8-1.7,1.1-2.4,1.1s-1.5-0.4-2.5-1.2c-0.9-0.7-1.8-1.4-2.6-2.1c-0.9-0.7-1.9-1.3-2.9-1.9
		c-1-0.5-2.2-1-3.4-1.3c-1.3-0.3-2.7-0.5-4.3-0.5c-2.9,0-5.1,0.5-6.5,1.4s-2.1,2-2.1,3.1s0.3,2.1,1,2.8s1.7,1.3,3.2,1.9
		s3.5,1.2,5.9,1.9c2.5,0.7,5.5,1.6,9,2.8c4.9,1.6,8.9,3.5,12,5.8s5.4,4.8,7.1,7.4c1.7,2.7,2.8,5.4,3.4,8.3c0.6,2.9,0.9,5.7,0.9,8.5
		c0,4.9-1,9.2-3,12.9c-2,3.8-4.7,6.9-8,9.5s-7.2,4.5-11.5,5.9s-8.7,2-13.3,2c-3.1,0-6.2-0.2-9.3-0.7s-6.2-1.3-9.2-2.5
		s-5.9-2.8-8.7-4.8s-5.4-4.6-7.9-7.7C910.7,127.6,910.4,127.2,910.1,126.6z"/>
</g>
<g>
	<g>
		<path class="st1" d="M7.8,90.2c0-29.8,0-59.5,0-89.3c0-0.6,0.1-0.7,0.7-0.7c59.4,0,118.8,0,178.3,0c0.7,0,0.8,0.2,0.8,0.8
			c0,59.6,0,119.1,0,178.7c0,0.6-0.1,0.8-0.8,0.8c-59.4,0-118.8,0-178.2,0c-0.7,0-0.8-0.2-0.8-0.8C7.8,149.8,7.8,120,7.8,90.2z
			 M107.1,11.6c-2.3,0.4-4.5,0.7-6.8,1.1c-1.6,0.3-3.2,0.6-4.8,0.9c-0.7,0.1-1.1,0.6-1.1,1.3c0.1,0.3,0.2,0.7,0.3,1
			c1.2,2.6,2.5,5.2,3.7,7.8c0.7,1.5,1.4,3,2.1,4.4c0.9,1.8,1.7,3.6,2.6,5.4c0.3,0.5,0.5,1.1,0.8,1.6c0.9,1.9,1.3,2.1,3.4,1.7
			c2.6-0.4,5.1-0.7,7.7-1.1c3.3-0.5,6.5-1,9.8-1.5c0.7-0.1,0.8-0.3,0.4-0.8c0-0.1,0-0.2,0-0.3c-2.3-4.9-4.7-9.9-7-14.8
			c-0.5-1.1-1-2.2-1.5-3.3c-0.4-0.8-0.8-1.6-1.2-2.4c-0.5-1-1.7-1.7-2.7-1.6C110.8,11.2,109,11.4,107.1,11.6z M122.6,14.9
			c0.6,1.2,1.1,2.4,1.7,3.6c0.9,1.9,1.8,3.8,2.6,5.7c1.2,2.5,2.3,4.9,3.5,7.4c0.4,0.8,1.1,1.3,2,1.4c1.8,0.2,3.5-0.5,5.2-0.8
			c0.6-0.1,0.6-0.6,0.4-1.1c-1.1-2.2-2.1-4.4-3.2-6.6c-0.7-1.6-1.4-3.1-2.2-4.7c-0.8-1.6-1.6-3.3-2.4-4.9c-0.8-1.8-1.7-3.6-2.5-5.3
			c-0.1-0.2-0.4-0.4-0.6-0.5c-0.3-0.1-0.6-0.3-0.9-0.3c-1.7,0.3-3.4,0.6-5,0.9c-0.6,0.1-0.7,0.6-0.4,1.2
			C121.3,12.2,121.9,13.6,122.6,14.9z M21,51.8c-0.6,4.2,3.3,8,6.6,8.6c5.4,1.5,11.1-2.8,10.7-8.6c0-2.4-0.8-4.5-2.5-6.1
			c-2.2-2-5-2.6-7.9-2c-1.8,0.5-3.4,1.5-4.7,3C21.9,48.2,21.1,49.8,21,51.8z M47.5,20.8c-1.3,0.2-2.7,0.4-4,0.4
			c-0.9,0-0.8,0.4-0.5,1c0.6,1.2,1.1,2.3,1.7,3.5c0.9,2,1.9,3.9,2.8,5.9c0.3,0.6,0.5,1.2,0.8,1.7c0.5,1.1,0.9,2.2,1.4,3.2
			c1.2,2.6,2.4,5.2,3.6,7.8c0.3,0.6,0.7,0.8,1.3,0.7c1.7-0.2,3.4-0.5,5.1-0.7c0.9-0.1,1-0.2,0.6-1.1c-0.8-1.8-1.6-3.5-2.4-5.3
			c-0.7-1.5-1.5-3.1-2.2-4.6c-1.6-3.5-3.3-7-4.9-10.6C50.1,21.3,49.1,20.6,47.5,20.8z M166.9,166.2c1.3,0,2.7-0.1,4-0.1
			c0.6,0,1-0.4,1.1-1c0.1-0.9,0.1-1.7,0.1-2.6c0-6.1,0-12.3,0-18.4c0-6.1,0-12.3,0-18.4c0-6.1,0-12.3,0-18.4c0-5.3,0-10.6,0-16
			c0-1.4-0.9-2.3-2.3-2.3c-1,0-2,0-2.9,0c-6.6,0-13.2,0-19.9,0c-6.7,0-13.3,0-20,0c-6.6,0-13.2,0-19.9,0c-1.4,0-2.8,0-4.1,0
			c-5.2,0-10.5,0-15.7,0c-6.6,0-13.2,0-19.9,0c-6.6,0-13.1,0-19.7,0c-6.7,0-13.4,0-20,0c-0.8,0-1.6,0-2.5,0c-1.6,0-2.6,0.9-2.6,2.6
			c0,5.2,0,10.5,0,15.7c0,6.1,0,12.3,0,18.4c0,6.1,0,12.3,0,18.4c0,6.1,0,12.3,0,18.4c0,0.4-0.1,0.8,0,1.3c0.2,1.3,0.3,2.2,2.1,2.4
			c1,0.1,2,0.1,3,0.1c0.9,0,1.8,0,2.8,0c5.8,0,11.5,0,17.3,0c0.7,0,1.4,0,2.1,0c5.9,0,11.8,0,17.6,0c0.8,0,1.6,0,2.4,0
			c5.8,0,11.7,0,17.5,0c0.8,0,1.6,0,2.4,0c5.8,0,11.7,0,17.5,0c0.7,0,1.5,0,2.2,0c5.9,0,11.8,0,17.6,0c0.6,0,1.3,0,1.9,0
			c6,0,12.1,0,18.1,0c0.9,0,1.8,0,2.8,0C155.5,166.2,161.2,166.2,166.9,166.2z M131,70.4c0.2-0.7,0.5-1.5,0.7-2.2
			c1-3.1,1.9-6.2,2.8-9.4c0.4-1.4,0.1-1.8-1.4-1.8c-2.1,0-4.1,0-6.2,0c-3.5,0-7.1,0-10.6,0c-1.6,0-2.4,0.5-2.9,2.1
			c-0.7,2.3-1.4,4.7-2.1,7c-0.4,1.4-0.8,2.7-1.1,4.1c-1,3.4-2,6.7-3,10.1c-0.4,1.2,0,1.7,1.3,1.7c5.5,0,11,0,16.6,0
			c0.6,0,1.3-0.4,1.9-0.6c0.3-0.4,0.8-0.8,0.9-1.3C129,76.9,130,73.6,131,70.4z M91.8,70.2c1.1-3.8,2.3-7.7,3.4-11.5
			c0.3-1.2,0-1.7-1.2-1.7c-2.2,0-4.5,0-6.7,0c-3,0-6,0-9,0c-2.2,0-3.4,0.9-4.2,2.9c-0.5,1.3-0.9,2.5-1.2,3.8
			c-0.6,2.1-1.2,4.3-1.8,6.4c-1,3.4-2,6.8-3,10.3c-0.3,1.2-0.1,1.5,1.1,1.5c5.8,0,11.6,0,17.4,0c0.3,0,0.6-0.1,0.9-0.2
			c1-0.2,1.3-1.1,1.5-1.9C90,76.7,90.9,73.5,91.8,70.2z M52.2,70.4c0.5-1.7,1-3.4,1.6-5.1c0.7-2.1,1.3-4.3,2-6.4c0.4-1.5,0-2-1.5-2
			c-2.7,0-5.4,0-8.1,0c-1.6-0.2-3,0.2-4.1,1.6c-0.4,0.6-0.8,1.2-1.2,1.8c-1.7,2.5-3.9,4.4-6.9,5.2c-2,0.6-4,0.6-6.1,0.5
			c-0.2,0-0.3-0.1-0.5-0.1c-2-0.3-3.9-0.9-5.7-2.1c-1.9-1.2-3.2-3-4.2-5c-0.5-1.1-1.4-1.7-2.6-2c-1.9-0.4-3.4,0.6-3.4,2.4
			c0,3.6,0,7.2,0,10.9c0,3.2,0,6.3,0,9.5c0,1.4,0.6,2,1.8,2.1c4.8,0.1,9.7,0.1,14.5,0.2c5.9,0,11.8,0,17.7,0c0.7,0,1.5-0.1,2.2-0.2
			c0.5-0.4,1.1-0.7,1.4-1.2c0.4-0.6,0.5-1.3,0.7-2C50.6,75.9,51.4,73.1,52.2,70.4z M67.4,63.6c0.5-1.7,1-3.3,1.4-5
			c0.3-1.2-0.2-1.7-1.4-1.7c-1.2,0-2.4,0-3.5,0.2c-1,0.1-1.9,0.6-2.2,1.7c-1.2,3.8-2.3,7.6-3.5,11.5c-1,3.1-1.9,6.3-2.8,9.4
			c-0.3,1,0.2,2,1.3,2.2c1.1,0.2,2.3,0.1,3.5,0.1c1.6,0,2.4-1,2.7-2.5c0.2-0.9,0.6-1.8,0.8-2.7c0.6-2.2,1.2-4.3,1.8-6.5
			C66.2,68,66.8,65.8,67.4,63.6z M107.1,57.2c-1.5,0-3.1,0-4.6,0c-1.1,0-1.6,0.4-1.9,1.5c-1.1,3.9-2.3,7.7-3.5,11.6
			c-1.1,3.8-2.3,7.5-3.5,11.3c-0.2,0.6,0,0.7,0.5,0.6c1.6,0,3.1,0,4.7,0c1.3,0,2.1-0.6,2.5-1.8c0.4-1.1,0.7-2.3,1.1-3.5
			c0.7-2.2,1.3-4.4,1.9-6.6c0.3-0.9,0.6-1.8,0.9-2.7c0.6-2.1,1.2-4.1,1.8-6.2c0.3-1,0.6-2,0.9-3C108.4,57.2,108.4,57.2,107.1,57.2z
			 M147,57.4c-1.3-0.1-2.7-0.5-3.9-0.4c-1.7,0.2-3.1,1.1-3.6,3c-0.4,1.6-1,3.2-1.5,4.8c-0.5,1.8-1,3.6-1.6,5.4
			c-1,3.4-2.1,6.9-3.1,10.3c-0.1,0.3,0.2,0.9,0.5,1.1c1.4,0.7,2.8,1,4.4,0.5c1.5-0.5,2.4-1.5,2.9-2.9c0.9-2.9,1.8-5.9,2.7-8.8
			c0.5-1.4,0.9-2.8,1.4-4.2c0.6-2,1.2-4.1,1.8-6.1c0.2-0.6,0.4-1.1,0.6-1.7C147.7,57.9,147.6,57.5,147,57.4z M88.1,14.9
			c-0.2-0.1-0.5-0.2-0.7-0.1c-1.5,0.2-3,0.4-4.5,0.7c-1.2,0.2-1.4,0.6-0.8,1.8c0.9,1.8,1.7,3.7,2.5,5.5c0.8,1.8,1.7,3.6,2.6,5.4
			c0.8,1.7,1.6,3.5,2.4,5.2c0.5,1.1,1,2.2,1.5,3.2c0.1,0.3,0.3,0.6,0.5,0.9c0.6,1.2,1.4,1.6,2.8,1.4c1.4-0.2,2.7-0.4,4.1-0.7
			c0.8-0.1,1.1-0.5,0.8-1.1c-0.6-1.3-1.2-2.6-1.8-3.8c-0.1-0.3-0.2-0.5-0.3-0.8c-0.9-2-1.9-4-2.8-6c-1.7-3.6-3.4-7.2-5.1-10.7
			C88.9,15.5,88.4,15.2,88.1,14.9z M11.8,125.5c0,6.1,0,12.3,0,18.4c0,6.1,0,12.3,0,18.4c0,4.1-0.1,8.3,0,12.4c0,2,1.1,2.9,3.1,3
			c4.3,0.1,8.5,0,12.8,0c0.9,0,1.8,0,2.8,0c5.8,0,11.5,0,17.3,0c0.7,0,1.4,0,2.1,0c5.9,0,11.7,0,17.6,0c1.5,0,3,0,4.4,0
			c5.1,0,10.3,0,15.4,0c0.9,0,1.8,0,2.7,0c5.7,0,11.4,0,17.2,0c0.8,0,1.6,0,2.5,0c5.8,0,11.6,0,17.4,0c0.8,0,1.7,0,2.5,0
			c5.8,0,11.7,0,17.5,0c1.5,0,3,0,4.4,0c5.1,0,10.3,0,15.4,0c4.1,0,8.2,0.1,12.3,0c0.8,0,1.7-0.3,2.5-0.7c1.4-0.8,1.5-2.3,1.6-3.6
			c0.1-3.7,0-7.4,0-11c0-1.6,0-3.2,0-4.7c0-4.6,0-9.1,0-13.7c0-0.3,0-0.6,0-0.9c0-5.9,0-11.7,0-17.6c0-6.1,0-12.3,0-18.4
			c0-5,0-10,0-14.9c0-3-0.5-3.5-3.5-3.5c-1.4,0-2.5,1-2.5,2.5c0,5.3,0,10.6,0,16c0,6.1,0,12.3,0,18.4c0,6.1,0,12.3,0,18.4
			c0,6.1,0,12.3,0,18.4c0,2.1,0.1,4.3,0,6.4c-0.1,1.9-0.9,2.6-2.3,2.7c-0.8,0-1.5,0.1-2.3,0.2c-0.2,0-0.4,0-0.6,0c-28,0-56,0-84,0
			c-0.2,0-0.5,0-0.7,0c-0.2,0-0.4,0-0.6,0c-12.8,0-25.6,0-38.4,0c-0.2,0-0.4,0-0.6,0c-2.7,0-5.5,0-8.2,0c-3.9,0-7.9,0-11.8,0
			c-1.6,0-3.2,0-4.8,0c-1,0-2-0.1-3-0.2c-1.3-0.1-1.9-0.9-2-2.2c-0.1-0.9-0.1-1.8-0.2-2.8c0-0.3,0-0.6,0-0.9c0-8.6,0-17.2,0-25.7
			c0-4.8,0-9.6,0-14.4c0-0.3,0-0.6,0-1c0-10.3,0-20.5,0-30.8c0-1,0.1-1.9,0-2.9c-0.1-0.5-0.3-1-0.6-1.4c-1-1.1-2.3-1-3.5-0.6
			c-1.2,0.4-1.6,1.3-1.7,2.5c0,5.2,0,10.5,0,15.7C11.8,113.3,11.8,119.4,11.8,125.5z M136.4,14.9c0.3,0.6,0.5,1.3,0.8,1.9
			c1.9,4.1,3.8,8.2,5.6,12.3c0.9,2.1,2.5,2.4,4.5,1.7c2.1-0.3,4.2-0.6,6.2-0.9c1.8-0.3,3.6-0.6,5.4-0.9c2-0.3,4-0.6,6-0.9
			c0.6-0.1,1.3-0.2,1.9-0.3c3.7-0.6,7.3-1.1,10.9-1.7c2.3-0.4,2.7-0.9,2.5-3.2c-0.2-2.6-0.6-5.3-0.9-7.9c-0.1-0.9-0.3-1.8-0.4-2.7
			c-0.3-1.9-0.6-3.7-0.9-5.6c-0.2-1.1-0.4-2.2-0.8-3.3c-0.3-1-1.1-1.7-2.3-1.6c-1.4,0.1-2.9,0.2-4.3,0.4c-1.4,0.2-2.7,0.5-4.1,0.8
			c-0.3,0-0.6,0-0.9,0c-2,0.3-3.9,0.6-5.9,0.9c-3,0.4-6.1,0.8-9.1,1.3c-1.3,0.2-2.5,0.4-3.8,0.6c-1.1,0.2-2.3,0.3-3.4,0.5
			c-3.2,0.5-6.3,0.9-9.5,1.4c-0.8,0.1-0.9,0.3-0.6,1.1C134.4,10.8,135.4,12.9,136.4,14.9z M42.3,33.4c-1.5-3.1-2.9-6.2-4.5-9.2
			C37,22.7,36.1,22,34,22.4c-0.7,0.1-1.4,0.2-2,0.3c-1.5,0.3-3,0.5-4.5,0.8c-0.8,0.1-1.5,0.2-2.3,0.3c-2.2,0.3-4.5,0.7-6.7,1
			c-1.3,0.2-2.6,0.4-3.8,0.8c-2,0.6-3.6,2.5-3.4,4.8c0.1,1,0,2,0,2.9c0,5.1,0,10.2,0,15.2c0,2,0.1,2.1,2.1,2.4c0,0,0,0,0.1,0
			c0.9,0.2,1.9-0.3,2.3-1.1c0.4-0.9,0.8-1.8,1.1-2.7c0.9-2.5,2.2-4.7,4.4-6.4c2-1.5,4.2-2.2,6.6-2.6c1.8,0.1,3.6,0,5.4,0.3
			c3.4,0.6,5.9,2.7,7.9,5.4c1.1,1.6,2.7,2,4.5,1.7c1.2-0.1,1.7-1,1.3-2.1c-0.4-1.2-0.9-2.5-1.5-3.7C44.4,37.7,43.4,35.6,42.3,33.4z
			 M62,33.4c0,0.1,0,0.2,0,0.2c1.1,2.4,2.2,4.8,3.4,7.2c0.4,0.8,1,1.5,2,1.6c0.3,0.1,0.6,0.2,0.8,0.1c2.1-0.2,4.1-0.5,6.2-0.8
			c3.8-0.6,7.5-1.2,11.3-1.9c1-0.2,1-0.2,0.6-1.2c-0.8-1.8-1.6-3.6-2.4-5.3c-0.7-1.5-1.4-2.9-2.1-4.4c-0.9-1.9-1.7-3.7-2.6-5.6
			c-0.9-1.8-1.9-3.7-2.9-5.5c-0.5-0.9-1.4-1.4-2.4-1.3c-2.2,0.2-4.3,0.5-6.5,0.8c-3.7,0.6-7.3,1.3-11,1.9c-0.9,0.2-0.9,0.3-0.5,1.1
			c1.2,2.5,2.4,5.1,3.6,7.6C60.3,29.9,61.2,31.6,62,33.4z M158.3,57.2c-0.5,0-1,0-1.4,0c-2.2,0-3.4,0.9-4.1,2.9
			c-1.1,3.4-2.2,6.8-3.3,10.1c-0.8,2.7-1.7,5.4-2.5,8.1c-0.2,0.8-0.5,1.6-0.7,2.4c-0.2,0.8-0.1,1,0.8,1.1c0.2,0,0.3,0.1,0.5,0.1
			c6.4,0,12.9,0,19.3,0c1.7,0,3.5,0,5.2,0c3.2,0,6.3,0,9.5,0c1.1,0,1.6-0.6,1.6-1.5c0-3.4,0-6.8,0-10.2c0-3,0.1-6,0-9
			c0-1.3-0.7-2.4-1.7-3.2c-1.3-1-2.8-1-4.3-1c-6-0.1-12.1,0-18.1,0C158.8,57.1,158.6,57.2,158.3,57.2z"/>
		<path class="st2" d="M27.7,88.9c6.7,0,13.4,0,20,0c0,6.1,0,12.2,0,18.2c-6.7,0-13.4,0-20,0l0,0C27.7,101,27.7,94.9,27.7,88.9z"/>
		<path class="st3" d="M127,88.9c6.7,0,13.3,0,20,0c0,6.1,0,12.2,0,18.2c-6.7,0-13.4,0-20,0C127,101,127,94.9,127,88.9z"/>
		<path class="st4" d="M147,107.1c0-6.1,0-12.2,0-18.2c6.6,0,13.2,0,19.9,0c0,6.1,0,12.2,0,18.2c0,0,0,0,0,0
			C160.3,107.1,153.6,107.1,147,107.1L147,107.1z"/>
		<path class="st5" d="M127,88.9c0,6.1,0,12.2,0,18.2c0,0,0,0,0,0c-0.4,0-0.7,0-1.1,0c-6.3,0-12.5,0-18.8,0c0-6.1,0-12.2,0-18.2
			C113.7,88.9,120.4,88.9,127,88.9z"/>
		<path class="st6" d="M47.7,107.1c0-6.1,0-12.2,0-18.2c6.6,0,13.1,0,19.7,0c0,6.1,0,12.2,0,18.2C60.8,107.1,54.3,107.1,47.7,107.1
			L47.7,107.1z"/>
		<path class="st7" d="M107.1,88.9c0,6.1,0,12.2,0,18.2c0,0,0,0,0,0c-4.3,0-8.7,0-13,0c-2.3-1.3-4.6-2.6-6.8-3.8c0-4.8,0-9.6,0-14.4
			c5.2,0,10.5,0,15.7,0C104.4,88.8,105.7,88.8,107.1,88.9z"/>
		<path class="st8" d="M87.3,88.9c0,4.8,0,9.6,0,14.4c-1.7-0.9-3.4-1.8-5.2-2.7c-0.5-0.2-1.1-0.3-1.6-0.2c-1,0.2-1.7,1.2-1.7,2.4
			c0,1.5,0,2.9,0,4.4c-3.7,0-7.5,0-11.2,0c0,0,0,0,0,0c0-6.1,0-12.2,0-18.2C74,88.9,80.6,88.9,87.3,88.9z"/>
		<path class="st9" d="M166.9,27.8c-0.6,0.1-1.3,0.2-1.9,0.3c-2,0.3-4,0.6-6,0.9c-1.8,0.3-3.6,0.6-5.4,0.9c-2.1,0.3-4.1,0.6-6.2,0.9
			c-0.1-0.3-0.3-0.6-0.3-0.8c0-5,0-10,0-15c6.6,0,13.2,0,19.9,0C166.9,19.2,166.9,23.5,166.9,27.8z"/>
		<path class="st10" d="M116.5,14.9c0.5,1.1,1,2.2,1.5,3.3c2.3,4.9,4.7,9.9,7,14.8c0,0.1,0,0.2,0,0.3c-5.9,0-11.9,0-17.8,0
			c-0.1,0-0.1,0-0.2,0c0-6.1,0-12.3,0-18.4C110.3,14.9,113.4,14.9,116.5,14.9z"/>
		<path class="st11" d="M47.7,81.8C47,81.9,46.2,82,45.5,82c-5.9,0-11.8,0-17.7,0c-0.1-0.3-0.1-0.5-0.1-0.8c0-3.7,0-7.3,0-11
			c6.7,0,13.3,0,20,0l0,0C47.7,74.1,47.7,78,47.7,81.8z"/>
		<path class="st12" d="M146.9,78.4c0.8-2.7,1.7-5.4,2.5-8.1c5.8,0,11.6,0,17.5,0l0,0c0,3.9,0,7.8,0,11.7c-6.4,0-12.9,0-19.3,0
			c-0.2,0-0.3-0.1-0.5-0.1C147,80.7,146.9,79.5,146.9,78.4z"/>
		<path class="st13" d="M127,81.4c-0.6,0.2-1.3,0.6-1.9,0.6c-5.5,0-11,0-16.6,0c-1.3,0-1.6-0.5-1.3-1.7c1-3.4,2-6.7,3-10.1
			c5.6,0,11.1,0,16.7,0l0,0C127,74,127,77.7,127,81.4z"/>
		<path class="st14" d="M166.9,14.9c-6.6,0-13.2,0-19.9,0l0,0c0-3.1,0-6.1,0-9.2c1.3-0.2,2.5-0.4,3.8-0.6c3-0.4,6.1-0.8,9.1-1.3
			c2-0.3,3.9-0.6,5.9-0.9c0.3,0,0.6,0,0.9,0c0.1,0.3,0.2,0.6,0.2,0.9C166.9,7.5,166.9,11.2,166.9,14.9L166.9,14.9z"/>
		<path class="st15" d="M158.3,57.2c0.3,0,0.6-0.1,0.8-0.1c6,0,12.1,0,18.1,0c1.5,0,3-0.1,4.3,1c1.1,0.8,1.7,1.9,1.7,3.2
			c0.1,3,0,6,0,9c-5.5,0-10.9,0-16.4,0c0,0,0,0,0,0c0-4.1,0-8.1,0-12.2c0-0.7-0.2-0.8-0.8-0.8C163.5,57.2,160.9,57.2,158.3,57.2z"/>
		<path class="st16" d="M87.4,81.8c-0.3,0.1-0.6,0.2-0.9,0.2c-5.8,0-11.6,0-17.4,0c-1.2,0-1.5-0.3-1.1-1.5c1-3.4,2-6.8,3-10.3
			c5.4,0,10.8,0,16.2,0c0,0,0,0,0,0c0,3.6,0,7.1,0,10.7C87.3,81.2,87.4,81.5,87.4,81.8z"/>
		<path class="st17" d="M67.4,17.5c2.2-0.3,4.3-0.6,6.5-0.8c1.1-0.1,1.9,0.4,2.4,1.3c1,1.8,2,3.6,2.9,5.5c0.9,1.8,1.8,3.7,2.6,5.6
			c0.7,1.5,1.4,2.9,2.1,4.4c-5.5,0-11,0-16.5,0C67.4,28.1,67.4,22.8,67.4,17.5z"/>
		<path class="st18" d="M158.3,57.2c2.6,0,5.2,0,7.8,0c0.7,0,0.9,0.2,0.8,0.8c0,4.1,0,8.1,0,12.2c-5.8,0-11.6,0-17.5,0
			c1.1-3.4,2.2-6.8,3.3-10.1c0.7-2,2-2.9,4.1-2.9C157.3,57.2,157.8,57.2,158.3,57.2z"/>
		<path class="st19" d="M127,70.2c-5.6,0-11.1,0-16.7,0c0.4-1.4,0.7-2.7,1.1-4.1c0.7-2.3,1.4-4.7,2.1-7c0.5-1.5,1.2-2.1,2.9-2.1
			c3.5,0,7.1,0,10.6,0C127,61.5,127,65.8,127,70.2z"/>
		<path class="st20" d="M166.9,70.2c5.5,0,10.9,0,16.4,0c0,3.4,0,6.8,0,10.2c0,1-0.6,1.5-1.6,1.5c-3.2,0-6.3,0-9.5,0
			c-1.7,0-3.5,0-5.2,0C166.9,78.1,166.9,74.2,166.9,70.2z"/>
		<path class="st21" d="M27.7,70.2c0,3.7,0,7.3,0,11c0,0.3,0.1,0.5,0.1,0.8c-4.8-0.1-9.7-0.1-14.5-0.2c-1.3,0-1.8-0.6-1.8-2.1
			c0-3.2,0-6.3,0-9.5C16.9,70.2,22.3,70.2,27.7,70.2L27.7,70.2z"/>
		<path class="st22" d="M87.3,70.2c-5.4,0-10.8,0-16.2,0c0.6-2.1,1.2-4.3,1.8-6.4c0.4-1.3,0.8-2.6,1.2-3.8c0.8-2,2-2.9,4.2-2.9
			c3,0,6,0,9,0C87.3,61.4,87.3,65.8,87.3,70.2z"/>
		<path class="st23" d="M27.8,38.3c-2.4,0.3-4.7,1.1-6.6,2.6c-2.2,1.6-3.5,3.9-4.4,6.4c-0.3,0.9-0.7,1.8-1.1,2.7
			c-0.4,0.9-1.4,1.3-2.3,1.1c0,0,0,0-0.1,0c-2-0.3-2.1-0.4-2.1-2.4c0-5.1,0-10.2,0-15.2c5.4,0,10.8,0,16.2,0c0.1,0,0.2,0,0.3,0
			C27.8,35,27.8,36.6,27.8,38.3z"/>
		<path class="st24" d="M47.7,70.2c-6.7,0-13.3,0-20,0c0,0,0,0,0,0c0-0.9,0-1.8,0-2.8c0-0.5,0.1-0.9,0.2-1.4c2.1,0.1,4.1,0,6.1-0.5
			c3-0.9,5.2-2.7,6.9-5.2c0.4-0.6,0.8-1.3,1.2-1.8c1-1.3,2.4-1.8,4.1-1.6c0.2,0,0.3,0.1,0.5,0.1c1.2,0,1.1-0.1,1.1,1.1
			C47.7,62.2,47.7,66.2,47.7,70.2z"/>
		<path class="st25" d="M166.9,27.8c0-4.3,0-8.6,0-12.9c0,0,0,0,0,0c4.2,0,8.4,0,12.5,0c0.3,2.6,0.7,5.2,0.9,7.9
			c0.2,2.3-0.3,2.8-2.5,3.2C174.2,26.7,170.5,27.2,166.9,27.8z"/>
		<path class="st26" d="M107.1,14.9c0,6.1,0,12.3,0,18.4c-0.8,0-1.5,0-2.3,0c-0.6,0-1.1,0.1-1.7,0.2c-0.9-1.8-1.7-3.6-2.6-5.4
			c-0.7-1.5-1.4-3-2.1-4.4c-1.2-2.6-2.5-5.2-3.7-7.8c-0.1-0.3-0.2-0.6-0.3-1C98.7,14.9,102.9,14.9,107.1,14.9
			C107.1,14.9,107.1,14.9,107.1,14.9z"/>
		<path class="st27" d="M172.6,171.6c0.8-0.1,1.5-0.1,2.3-0.2c1.4-0.1,2.2-0.8,2.3-2.7c0.1-2.1,0-4.3,0-6.4c2,0,4,0,6,0
			c0,3.7,0.1,7.4,0,11c0,1.4-0.2,2.9-1.6,3.6c-0.7,0.4-1.6,0.7-2.5,0.7c-4.1,0.1-8.2,0-12.3,0c0-2,0-4,0-6c1.4,0,2.9,0,4.3,0
			C171.7,171.8,172.1,171.7,172.6,171.6z"/>
		<path class="st28" d="M17.6,166.5c0.1,0.9,0.1,1.8,0.2,2.8c0.1,1.3,0.7,2,2,2.2c1,0.1,2,0.1,3,0.2c1.6,0,3.2,0,4.8,0
			c0,2,0,4.1,0,6.1c-4.3,0-8.5,0.1-12.8,0c-2-0.1-3-1-3.1-3c-0.1-4.1,0-8.3,0-12.4c1.6,0,3.1,0,4.7,0c1,0,1,0,1,1
			C17.5,164.5,17.6,165.5,17.6,166.5z"/>
		<path class="st29" d="M179.4,14.9c-4.2,0-8.4,0-12.5,0c0-3.7,0-7.5,0-11.2c0-0.3-0.1-0.6-0.2-0.9c1.4-0.3,2.7-0.6,4.1-0.8
			c1.4-0.2,2.9-0.2,4.3-0.4c1.2-0.1,1.9,0.6,2.3,1.6c0.4,1.1,0.6,2.2,0.8,3.3c0.3,1.9,0.6,3.7,0.9,5.6
			C179.2,13.1,179.3,14,179.4,14.9z"/>
		<path class="st30" d="M67.4,33.4c5.5,0,11,0,16.5,0c0.8,1.8,1.6,3.6,2.4,5.3c0.4,1,0.5,1-0.6,1.2c-3.8,0.6-7.5,1.3-11.3,1.9
			c-2,0.3-4.1,0.5-6.2,0.8c-0.3,0-0.5-0.1-0.8-0.1C67.4,39.4,67.4,36.4,67.4,33.4L67.4,33.4z"/>
		<path class="st31" d="M27.8,66.1c-0.1,0.5-0.1,0.9-0.2,1.4c0,0.9,0,1.8,0,2.8c-5.4,0-10.8,0-16.2,0c0-3.6,0-7.2,0-10.9
			c0-1.8,1.6-2.8,3.4-2.4c1.2,0.2,2,0.9,2.6,2c1,2,2.3,3.7,4.2,5c1.7,1.1,3.6,1.8,5.7,2.1C27.5,66,27.7,66,27.8,66.1z"/>
		<path class="st32" d="M27.5,33.4c-5.4,0-10.8,0-16.2,0c0-1,0.1-2,0-2.9c-0.2-2.3,1.4-4.2,3.4-4.8c1.2-0.4,2.5-0.6,3.8-0.8
			c2.2-0.4,4.5-0.7,6.7-1c0.8-0.1,1.5-0.2,2.3-0.3C27.5,26.8,27.5,30.1,27.5,33.4z"/>
		<path class="st33" d="M172.6,171.6c-0.5,0-0.9,0.1-1.4,0.1c-1.4,0-2.9,0-4.3,0c-6.3,0-12.6,0-19,0c-0.7,0-0.9,0.1-0.9,0.9
			c0.1,1.7,0,3.4,0,5.2c-5.8,0-11.7,0-17.5,0c-0.8,0-1.7,0-2.5,0c0-1.7,0-3.4,0-5.2c0-0.6-0.1-0.9-0.8-0.9c-6.4,0-12.7,0-19.1,0
			c-6.6,0-13.2,0-19.9,0c0,0,0-0.1,0-0.1c0.2,0,0.5,0,0.7,0c28,0,56,0,84,0C172.2,171.6,172.4,171.6,172.6,171.6z"/>
		<path class="st34" d="M67.4,17.5c0,5.3,0,10.6,0,15.9c0,0,0,0,0,0c-1.8,0-3.6,0-5.4,0c-0.8-1.8-1.7-3.5-2.5-5.3
			c-1.2-2.5-2.4-5.1-3.6-7.6c-0.4-0.8-0.4-0.9,0.5-1.1C60.1,18.8,63.7,18.1,67.4,17.5z"/>
		<path class="st35" d="M27.8,38.3c0-1.6,0-3.3,0-4.9c4.8,0,9.7,0,14.5,0c1.1,2.2,2.1,4.4,3.1,6.6c0.6,1.2,1.1,2.4,1.5,3.7
			c0.4,1.1-0.1,2-1.3,2.1c-1.8,0.2-3.3-0.2-4.5-1.7c-2-2.7-4.5-4.8-7.9-5.4C31.5,38.2,29.6,38.4,27.8,38.3z"/>
		<path class="st36" d="M42.3,33.4c-4.8,0-9.7,0-14.5,0c-0.1,0-0.2,0-0.3,0c0-3.3,0-6.6,0-9.9c1.5-0.3,3-0.5,4.5-0.8
			c0.7-0.1,1.4-0.2,2-0.3c2.1-0.4,3,0.3,3.8,1.7C39.4,27.1,40.8,30.3,42.3,33.4z"/>
		<path class="st37" d="M87.3,171.7c0,0,0,0.1,0,0.1c0,2,0,4,0,6c-5.1,0-10.3,0-15.4,0c-1.5,0-3,0-4.4,0c0-1.7,0-3.4,0-5.2
			c0-0.6-0.1-0.9-0.8-0.9c-6.3,0-12.6,0-18.9,0c0,0,0-0.1,0-0.1c0.2,0,0.4,0,0.6,0c12.8,0,25.6,0,38.4,0
			C86.9,171.6,87.1,171.6,87.3,171.7z"/>
		<path class="st38" d="M47.7,171.7c0,0,0,0.1,0,0.1c0,2,0,4,0,6c-5.8,0-11.5,0-17.3,0c-0.9,0-1.8,0-2.8,0c0-2,0-4.1,0-6.1
			c3.9,0,7.9,0,11.8,0C42.2,171.6,45,171.6,47.7,171.7z"/>
		<path class="st39" d="M147,177.8c0-1.7,0-3.4,0-5.2c0-0.7,0.2-0.9,0.9-0.9c6.3,0,12.6,0,19,0c0,2,0,4,0,6c-5.1,0-10.3,0-15.4,0
			C150,177.8,148.5,177.8,147,177.8z"/>
		<path class="st40" d="M107.1,171.8c6.4,0,12.7,0,19.1,0c0.7,0,0.8,0.2,0.8,0.9c0,1.7,0,3.4,0,5.2c-5.8,0-11.6,0-17.4,0
			c-0.8,0-1.6,0-2.5,0C107.1,175.8,107.1,173.8,107.1,171.8z"/>
		<path class="st41" d="M107.1,171.8c0,2,0,4,0,6c-5.7,0-11.4,0-17.2,0c-0.9,0-1.8,0-2.7,0c0-2,0-4,0-6
			C93.9,171.8,100.5,171.8,107.1,171.8z"/>
		<path class="st42" d="M47.7,177.8c0-2,0-4,0-6c6.3,0,12.6,0,18.9,0c0.7,0,0.8,0.2,0.8,0.9c0,1.7,0,3.4,0,5.2c-5.9,0-11.7,0-17.6,0
			C49.1,177.8,48.4,177.8,47.7,177.8z"/>
		<path class="st43" d="M130.2,14.9c0.8,1.6,1.6,3.2,2.4,4.9c0.7,1.5,1.5,3.1,2.2,4.7c1.1,2.2,2.1,4.4,3.2,6.6
			c0.3,0.5,0.2,1-0.4,1.1c-1.7,0.4-3.4,1-5.2,0.8c-1-0.1-1.6-0.6-2-1.4c-1.2-2.5-2.3-4.9-3.5-7.4c0-0.3,0.1-0.6,0.1-0.8
			c0-2.8,0-5.7,0-8.5l0,0C128.1,14.9,129.1,14.9,130.2,14.9z"/>
		<path class="st43" d="M147,14.9c0,5,0,10,0,15c0,0.3,0.2,0.6,0.3,0.8c-2,0.7-3.6,0.4-4.5-1.7c-1.8-4.1-3.7-8.2-5.6-12.3
			c-0.3-0.6-0.5-1.3-0.8-1.9C139.9,14.9,143.5,14.9,147,14.9L147,14.9z"/>
		<path class="st44" d="M17.6,166.5c0-1-0.1-2.1-0.1-3.1c0-1,0-1-1-1c-1.6,0-3.1,0-4.7,0c0-6.1,0-12.3,0-18.4c1.6,0,3.2,0,4.8,0
			c0.6,0,0.9-0.1,0.9-0.8c0-5.9,0-11.7,0-17.6l0.1,0l0.1,0c0,4.8,0,9.6,0,14.4c0,8.6,0,17.2,0,25.7C17.7,166,17.7,166.2,17.6,166.5z
			"/>
		<path class="st45" d="M183.2,162.4c-2,0-4,0-6,0c0-6.1,0-12.3,0-18.4c2,0,4,0,6,0c0,4.6,0,9.1,0,13.7
			C183.2,159.2,183.2,160.8,183.2,162.4z"/>
		<path class="st46" d="M183.2,107.1c0,6.1,0,12.3,0,18.4c-2,0-4,0-6,0c0-6.1,0-12.3,0-18.4C179.2,107.1,181.2,107.1,183.2,107.1z"
			/>
		<path class="st47" d="M177.2,125.5c2,0,4,0,6,0c0,5.9,0,11.7,0,17.6c0,0.3,0,0.6,0,0.9c-2,0-4,0-6,0
			C177.2,137.8,177.2,131.7,177.2,125.5z"/>
		<path class="st48" d="M183.2,107.1c-2,0-4,0-6,0c0-5.3,0-10.6,0-16c0-1.5,1.1-2.5,2.5-2.5c2.9,0,3.5,0.5,3.5,3.5
			C183.2,97.2,183.2,102.1,183.2,107.1z"/>
		<path class="st49" d="M17.6,125.5L17.6,125.5l-0.1,0l0,0c0-5.8,0-11.7,0-17.5c0-0.7-0.1-0.9-0.9-0.9c-1.6,0.1-3.2,0-4.8,0
			c0-5.2,0-10.5,0-15.7c0-1.1,0.5-2.1,1.7-2.5c1.3-0.4,2.5-0.5,3.5,0.6c0.3,0.4,0.6,0.9,0.6,1.4c0.1,0.9,0,1.9,0,2.9
			c0,10.3,0,20.5,0,30.8C17.7,124.9,17.6,125.2,17.6,125.5z"/>
		<path class="st50" d="M17.5,125.5c0,5.9,0,11.7,0,17.6c0,0.7-0.2,0.8-0.9,0.8c-1.6,0-3.2,0-4.8,0c0-6.1,0-12.3,0-18.4
			C13.7,125.5,15.6,125.5,17.5,125.5L17.5,125.5z"/>
		<path class="st51" d="M17.5,125.5c-1.9,0-3.8,0-5.7,0c0-6.1,0-12.3,0-18.4c1.6,0,3.2,0,4.8,0c0.7,0,0.9,0.2,0.9,0.9
			C17.5,113.8,17.5,119.7,17.5,125.5z"/>
		<path class="st52" d="M147,14.9c-3.5,0-7.1,0-10.6,0c-1-2.1-1.9-4.2-2.9-6.2c-0.3-0.7-0.2-1,0.6-1.1c3.2-0.5,6.3-0.9,9.5-1.4
			c1.1-0.2,2.3-0.3,3.4-0.5C147,8.8,147,11.9,147,14.9z"/>
		<path class="st26" d="M89.5,33.4c-0.8-1.7-1.6-3.5-2.4-5.3c0-4.1,0-8.2,0-12.3c0-0.8,0.2-1.1,1-0.9c0.3,0.3,0.8,0.6,1,0.9
			c1.7,3.6,3.4,7.2,5.1,10.7c0.9,2,1.9,4,2.8,6c0.1,0.3,0.2,0.5,0.3,0.8C94.7,33.4,92.1,33.4,89.5,33.4z"/>
		<path class="st53" d="M136.5,70.2c0.5-1.8,1-3.6,1.6-5.4c0.5-1.6,1.1-3.2,1.5-4.8c0.5-1.9,1.9-2.8,3.6-3c1.3-0.2,2.6,0.2,3.9,0.4
			c0,0.9,0,1.8,0,2.7c-0.6,2-1.2,4.1-1.8,6.1c-0.4,1.4-0.9,2.8-1.4,4.2c-0.3-0.1-0.5-0.2-0.8-0.2C140.9,70.2,138.7,70.2,136.5,70.2z
			"/>
		<path class="st45" d="M172.1,144c0,6.1,0,12.3,0,18.4c-1.7,0-3.5,0-5.2,0l0,0c0-6.1,0-12.3,0-18.4C168.6,144,170.4,144,172.1,144z
			"/>
		<path class="st46" d="M172.1,107.1c0,6.1,0,12.3,0,18.4c-1.7,0-3.5,0-5.2,0c0-6.1,0-12.3,0-18.4c0,0,0,0,0,0
			C168.6,107.1,170.4,107.1,172.1,107.1z"/>
		<path class="st47" d="M166.9,125.5c1.7,0,3.5,0,5.2,0c0,6.1,0,12.3,0,18.4c-1.7,0-3.5,0-5.2,0c0,0,0,0,0,0
			C166.9,137.8,166.9,131.7,166.9,125.5L166.9,125.5z"/>
		<path class="st48" d="M172.1,107.1c-1.7,0-3.5,0-5.2,0c0-6.1,0-12.2,0-18.2c1,0,2,0,2.9,0c1.4,0,2.3,1,2.3,2.3
			C172.1,96.5,172.1,101.8,172.1,107.1z"/>
		<path class="st51" d="M22.6,125.5c0-6.1,0-12.3,0-18.4c1.7,0,3.4,0,5.1,0c0,0,0,0,0,0c0,6.1,0,12.3,0,18.4
			C26,125.5,24.3,125.5,22.6,125.5z"/>
		<path class="st50" d="M22.6,125.5c1.7,0,3.4,0,5.1,0l0,0c0,6.1,0,12.3,0,18.4c-1.7,0-3.4,0-5.1,0
			C22.6,137.8,22.6,131.7,22.6,125.5z"/>
		<path class="st44" d="M22.6,144c1.7,0,3.4,0,5.1,0c0,0,0,0,0,0c0,6.1,0,12.3,0,18.4l0,0c-1.7,0-3.4,0-5.1,0
			C22.6,156.3,22.6,150.1,22.6,144z"/>
		<path class="st54" d="M97.2,70.2c1.2-3.9,2.3-7.7,3.5-11.6c0.3-1.1,0.8-1.5,1.9-1.5c1.5,0,3.1,0,4.6,0c0,1.4,0,2.7,0,4.1
			c-0.6,2.1-1.2,4.1-1.8,6.2c-0.3,0.9-0.6,1.8-0.9,2.7C102,70.2,99.6,70.2,97.2,70.2z"/>
		<path class="st49" d="M27.7,107.1c-1.7,0-3.4,0-5.1,0c0-5.2,0-10.5,0-15.7c0-1.6,1-2.5,2.6-2.6c0.8,0,1.6,0,2.5,0
			C27.7,94.9,27.7,101,27.7,107.1z"/>
		<path class="st55" d="M58.2,70.2c1.1-3.8,2.3-7.7,3.5-11.5c0.3-1.1,1.2-1.6,2.2-1.7c1.2-0.2,2.4-0.1,3.5-0.2c0,2.2,0,4.4,0,6.7
			c-0.6,2.2-1.3,4.4-1.9,6.7C63.1,70.2,60.7,70.2,58.2,70.2z"/>
		<path class="st55" d="M47.7,70.2c0-4,0-8.1,0-12.1c0-1.1,0.1-1.1-1.1-1.1c-0.2,0-0.3-0.1-0.5-0.1c2.7,0,5.4,0,8.1,0
			c1.5,0,1.9,0.5,1.5,2c-0.6,2.1-1.3,4.3-2,6.4c-0.5,1.7-1,3.4-1.6,5.1c-0.2-0.1-0.5-0.2-0.7-0.2C50.2,70.2,48.9,70.2,47.7,70.2
			L47.7,70.2z"/>
		<path class="st56" d="M97.2,70.2c2.4,0,4.8,0,7.3,0c-0.6,2.2-1.3,4.4-1.9,6.6c-0.3,1.2-0.7,2.3-1.1,3.5c-0.4,1.2-1.3,1.8-2.5,1.8
			c-1.6,0-3.1,0-4.7,0c-0.5,0-0.7-0.1-0.5-0.6C94.9,77.8,96,74,97.2,70.2z"/>
		<path class="st57" d="M136.5,70.2c2.2,0,4.4,0,6.5,0c0.3,0,0.5,0.1,0.8,0.2c-0.9,2.9-1.7,5.9-2.7,8.8c-0.5,1.4-1.4,2.5-2.9,2.9
			c-1.5,0.5-3,0.2-4.4-0.5c-0.3-0.1-0.6-0.8-0.5-1.1C134.4,77.1,135.5,73.7,136.5,70.2z"/>
		<path class="st54" d="M87.3,70.2c0-4.4,0-8.8,0-13.2c2.2,0,4.5,0,6.7,0c1.2,0,1.6,0.5,1.2,1.7c-1.1,3.8-2.3,7.7-3.4,11.5
			C90.3,70.2,88.8,70.2,87.3,70.2C87.3,70.2,87.3,70.2,87.3,70.2z"/>
		<path class="st58" d="M58.2,70.2c2.4,0,4.9,0,7.3,0c-0.6,2.2-1.2,4.3-1.8,6.5c-0.3,0.9-0.6,1.8-0.8,2.7c-0.4,1.4-1.1,2.4-2.7,2.5
			c-1.2,0-2.3,0.1-3.5-0.1c-1-0.2-1.6-1.2-1.3-2.2C56.3,76.5,57.3,73.4,58.2,70.2z"/>
		<path class="st59" d="M55.7,33.4c0.7,1.5,1.5,3.1,2.2,4.6c0.8,1.7,1.6,3.5,2.4,5.3c0.4,0.9,0.3,0.9-0.6,1.1
			c-1.7,0.3-3.4,0.5-5.1,0.7c-0.6,0.1-1-0.1-1.3-0.7c-1.2-2.6-2.4-5.2-3.6-7.8c-0.5-1.1-1-2.2-1.4-3.2
			C50.8,33.4,53.2,33.4,55.7,33.4z"/>
		<path class="st53" d="M127,70.2c0-4.4,0-8.8,0-13.2c2.1,0,4.1,0,6.2,0c1.5,0,1.8,0.4,1.4,1.8c-0.9,3.1-1.9,6.2-2.8,9.4
			c-0.2,0.7-0.5,1.5-0.7,2.2c-0.2-0.1-0.5-0.2-0.7-0.2C129.2,70.2,128.1,70.2,127,70.2L127,70.2z"/>
		<path class="st24" d="M38.3,51.8c0.4,5.8-5.3,10.1-10.7,8.6c0-2.9,0-5.7,0-8.6c0,0,0.1,0,0.1,0C31.3,51.8,34.8,51.8,38.3,51.8z"/>
		<path class="st38" d="M47.7,166.2c-5.8,0-11.5,0-17.3,0c-0.9,0-1.8,0-2.8,0c0-1.3,0-2.5,0-3.8c0,0,0,0,0,0c6.7,0,13.4,0,20,0
			C47.7,163.7,47.7,164.9,47.7,166.2z"/>
		<path class="st33" d="M147,166.2c-6,0-12.1,0-18.1,0c-0.6,0-1.3,0-1.9,0c0-1.3,0-2.5,0-3.8c6.7,0,13.4,0,20,0l0,0
			C147,163.7,147,164.9,147,166.2z"/>
		<path class="st37" d="M87.3,166.2c-5.8,0-11.7,0-17.5,0c-0.8,0-1.6,0-2.4,0c0-1.3,0-2.5,0-3.8c6.6,0,13.2,0,19.9,0
			C87.3,163.7,87.3,164.9,87.3,166.2z"/>
		<path class="st41" d="M87.3,166.2c0-1.3,0-2.5,0-3.8c0,0,0,0,0,0c6.6,0,13.2,0,19.9,0c0,1.3,0,2.5,0,3.8c-5.8,0-11.7,0-17.5,0
			C88.9,166.2,88.1,166.2,87.3,166.2z"/>
		<path class="st40" d="M107.1,166.2c0-1.3,0-2.5,0-3.8c0,0,0,0,0,0c6.6,0,13.2,0,19.9,0l0,0c0,1.3,0,2.5,0,3.8
			c-5.9,0-11.8,0-17.6,0C108.6,166.2,107.9,166.2,107.1,166.2z"/>
		<path class="st39" d="M147,166.2c0-1.3,0-2.5,0-3.8c6.6,0,13.2,0,19.9,0c0,0,0,0,0,0c0,1.3,0,2.5,0,3.8c-5.7,0-11.4,0-17.1,0
			C148.9,166.2,147.9,166.2,147,166.2z"/>
		<path class="st42" d="M67.4,162.4c0,1.3,0,2.5,0,3.8c-5.9,0-11.8,0-17.6,0c-0.7,0-1.4,0-2.1,0c0-1.3,0-2.5,0-3.8c0,0,0,0,0,0
			C54.3,162.4,60.8,162.4,67.4,162.4L67.4,162.4z"/>
		<path class="st35" d="M38.3,51.8c-3.5,0-7,0-10.5,0c0-2.7,0-5.4,0-8.1c3-0.6,5.7,0,7.9,2C37.5,47.3,38.4,49.4,38.3,51.8z"/>
		<path class="st34" d="M55.7,33.4c-2.4,0-4.9,0-7.3,0c-0.3-0.6-0.5-1.2-0.8-1.7c0-3.6,0-7.2,0-10.8c1.6-0.2,2.6,0.5,3.2,1.9
			C52.3,26.3,54,29.8,55.7,33.4z"/>
		<path class="st31" d="M27.7,51.8c0,2.9,0,5.7,0,8.6c-3.3-0.6-7.3-4.4-6.6-8.6C23.2,51.8,25.5,51.8,27.7,51.8z"/>
		<path class="st60" d="M89.5,33.4c2.6,0,5.2,0,7.8,0c0.6,1.3,1.2,2.5,1.8,3.8c0.3,0.6,0,0.9-0.8,1.1c-1.4,0.2-2.7,0.4-4.1,0.7
			c-1.3,0.2-2.2-0.2-2.8-1.4c-0.2-0.3-0.3-0.6-0.5-0.9C90.5,35.5,90,34.5,89.5,33.4z"/>
		<path class="st23" d="M27.7,51.8c-2.2,0-4.4,0-6.7,0c0-2,0.9-3.6,2.2-5.1c1.2-1.5,2.8-2.4,4.7-3c0,2.7,0,5.4,0,8.1
			C27.8,51.8,27.7,51.8,27.7,51.8z"/>
		<path class="st17" d="M88.1,14.9c-0.7-0.1-1,0.2-1,0.9c0,4.1,0,8.2,0,12.3c-0.9-1.8-1.8-3.6-2.6-5.4c-0.9-1.8-1.7-3.7-2.5-5.5
			c-0.5-1.1-0.3-1.6,0.8-1.8c1.5-0.3,3-0.5,4.5-0.7C87.6,14.8,87.8,14.9,88.1,14.9z"/>
		<path class="st61" d="M107.3,33.4c5.9,0,11.9,0,17.8,0c0.4,0.5,0.4,0.7-0.4,0.8c-3.3,0.5-6.5,1-9.8,1.5c-2.6,0.4-5.1,0.8-7.7,1.1
			C107.3,35.7,107.3,34.5,107.3,33.4z"/>
		<path class="st62" d="M122.6,14.9c-0.6-1.3-1.3-2.7-1.9-4c-0.3-0.5-0.2-1,0.4-1.2c1.7-0.4,3.3-0.7,5-0.9c0.3,0,0.6,0.2,0.9,0.3
			c0,2,0,3.9,0,5.9c0,0,0,0,0,0C125.5,14.9,124,14.9,122.6,14.9z"/>
		<path class="st58" d="M47.7,70.2c1.2,0,2.5,0,3.7,0c0.2,0,0.5,0.1,0.7,0.2c-0.8,2.7-1.5,5.5-2.3,8.2c-0.2,0.7-0.4,1.4-0.7,2
			c-0.3,0.5-0.9,0.8-1.4,1.2C47.7,78,47.7,74.1,47.7,70.2z"/>
		<path class="st56" d="M87.3,70.2c1.5,0,3.1,0,4.6,0c-1,3.2-1.9,6.5-2.9,9.7c-0.2,0.8-0.5,1.7-1.5,1.9c-0.1-0.3-0.2-0.6-0.2-0.9
			C87.3,77.4,87.3,73.8,87.3,70.2z"/>
		<path class="st62" d="M116.5,14.9c-3.1,0-6.2,0-9.4,0c0,0,0,0,0,0c0-1.1,0-2.2,0-3.3c1.8-0.2,3.6-0.4,5.5-0.6
			c1-0.1,2.2,0.5,2.7,1.6C115.7,13.3,116.1,14.1,116.5,14.9z"/>
		<path class="st59" d="M62,33.4c1.8,0,3.6,0,5.4,0c0,3,0,6,0,9.1c-1-0.1-1.6-0.8-2-1.6c-1.2-2.4-2.3-4.8-3.4-7.2
			C62,33.5,62,33.4,62,33.4z"/>
		<path class="st63" d="M107.1,11.6c0,1.1,0,2.2,0,3.3c-4.2,0-8.5,0-12.7,0c0-0.7,0.4-1.2,1.1-1.3c1.6-0.3,3.2-0.6,4.8-0.9
			C102.6,12.3,104.9,12,107.1,11.6z"/>
		<path class="st36" d="M47.5,20.8c0,3.6,0,7.2,0,10.8c-0.9-2-1.9-3.9-2.8-5.9c-0.6-1.2-1.1-2.3-1.7-3.5c-0.3-0.6-0.3-0.9,0.5-1
			C44.9,21.2,46.2,21,47.5,20.8z"/>
		<path class="st57" d="M127,70.2c1.1,0,2.2,0,3.2,0c0.2,0,0.5,0.1,0.7,0.2c-1,3.2-2,6.5-3,9.7c-0.2,0.5-0.6,0.9-0.9,1.3
			C127,77.7,127,74,127,70.2z"/>
		<path class="st10" d="M122.6,14.9c1.5,0,3,0,4.4,0c0,2.8,0,5.7,0,8.5c0,0.3-0.1,0.6-0.1,0.8c-0.9-1.9-1.8-3.8-2.6-5.7
			C123.7,17.4,123.1,16.2,122.6,14.9z"/>
		<path class="st27" d="M166.9,166.2c0-1.3,0-2.5,0-3.8c1.7,0,3.5,0,5.2,0c0,0.9-0.1,1.7-0.1,2.6c0,0.6-0.4,1-1.1,1
			C169.6,166.1,168.2,166.1,166.9,166.2z"/>
		<path class="st28" d="M27.7,162.4c0,1.3,0,2.5,0,3.8c-1,0-2,0-3-0.1c-1.8-0.2-1.9-1.1-2.1-2.4c-0.1-0.4,0-0.8,0-1.3
			C24.3,162.4,26,162.4,27.7,162.4z"/>
		<path class="st60" d="M107.3,33.4c0,1.2,0,2.3,0,3.5c-2.1,0.4-2.4,0.2-3.4-1.7c-0.3-0.5-0.5-1.1-0.8-1.6c0.6-0.1,1.1-0.1,1.7-0.2
			c0.8,0,1.5,0,2.3,0C107.2,33.4,107.2,33.4,107.3,33.4z"/>
		<path class="st52" d="M127,14.9c0-2,0-3.9,0-5.9c0.2,0.2,0.5,0.3,0.6,0.5c0.9,1.8,1.7,3.6,2.5,5.3C129.1,14.9,128.1,14.9,127,14.9
			z"/>
		<path class="st64" d="M67.4,63.6c0-2.2,0-4.4,0-6.7c1.2,0,1.7,0.5,1.4,1.7C68.4,60.3,67.9,61.9,67.4,63.6z"/>
		<path class="st65" d="M107.1,61.3c0-1.4,0-2.7,0-4.1c1.3,0,1.3,0,0.9,1.1C107.8,59.4,107.4,60.3,107.1,61.3z"/>
		<path class="st66" d="M146.9,78.4c0,1.2,0.1,2.3,0.1,3.5c-0.9-0.1-1-0.3-0.8-1.1C146.4,80,146.7,79.2,146.9,78.4z"/>
		<path class="st67" d="M147,60.1c0-0.9,0-1.8,0-2.7c0.6,0.1,0.7,0.6,0.6,1C147.5,59,147.2,59.5,147,60.1z"/>
		<path class="st68" d="M27.7,125.5c0-6.1,0-12.3,0-18.4c6.7,0,13.4,0,20,0c0,0,0,0,0,0c0,6.1,0,12.3,0,18.4
			C41,125.5,34.4,125.5,27.7,125.5L27.7,125.5z"/>
		<path class="st69" d="M127,107.1c6.7,0,13.4,0,20,0c0,0,0,0,0,0c0,6.1,0,12.3,0,18.4c0,0,0,0,0,0c-6.7,0-13.3,0-20,0
			C127,119.4,127,113.3,127,107.1L127,107.1z"/>
		<path class="st70" d="M147,125.5c0-6.1,0-12.3,0-18.4c6.6,0,13.3,0,19.9,0c0,6.1,0,12.3,0,18.4c0,0,0,0,0,0
			C160.3,125.5,153.6,125.5,147,125.5z"/>
		<path class="st71" d="M127,107.1c0,6.1,0,12.3,0,18.4c0,0,0,0,0,0c-0.3,0-0.5,0-0.8,0c-0.2-0.1-0.3-0.2-0.5-0.3
			c-3.6-2.1-7.3-4.2-10.9-6.3c-2.5-1.5-5.1-2.9-7.6-4.4c0-2.4,0-4.9,0-7.3c0,0,0,0,0,0c6.3,0,12.5,0,18.8,0
			C126.3,107.1,126.6,107.1,127,107.1z"/>
		<path class="st72" d="M47.7,125.5c0-6.1,0-12.3,0-18.4c6.6,0,13.1,0,19.7,0c0,0,0,0,0,0c0,6.1,0,12.3,0,18.4
			C60.8,125.5,54.3,125.5,47.7,125.5L47.7,125.5z"/>
		<path class="st73" d="M107.1,114.5c-2.4-1.3-4.8-2.6-7.2-4c-2-1.1-3.9-2.2-5.9-3.4c4.3,0,8.7,0,13,0
			C107.1,109.6,107.1,112,107.1,114.5z"/>
		<path class="st74" d="M78.7,107.1c0,5.2,0,10.3,0,15.5c0,9.6,0,19.3,0,28.9c0,0.7,0,1.3,0.1,2c-0.1-0.3-0.2-0.6-0.2-0.9
			c0-2.9,0-5.7,0-8.6c0-6,0-11.9,0-17.9c0-0.6-0.3-0.6-0.7-0.6c-3.5,0-6.9,0-10.4,0l0,0c0-6.1,0-12.3,0-18.4
			C71.2,107.1,74.9,107.1,78.7,107.1z"/>
		<path class="st75" d="M166.9,162.4c-6.6,0-13.2,0-19.9,0c0,0,0,0,0,0c0-6.1,0-12.3,0-18.4c6.6,0,13.2,0,19.9,0c0,0,0,0,0,0
			C166.9,150.1,166.9,156.2,166.9,162.4z"/>
		<path class="st76" d="M166.9,144c-6.6,0-13.2,0-19.9,0l0,0c0-6.1,0-12.3,0-18.4c0,0,0,0,0,0c6.6,0,13.2,0,19.9,0
			C166.9,131.7,166.9,137.8,166.9,144z"/>
		<path class="st77" d="M27.7,125.5c6.7,0,13.3,0,20,0c0,0,0,0,0,0c0,6.1,0,12.3,0,18.4l0,0c-6.7,0-13.3,0-20,0c0,0,0,0,0,0
			C27.7,137.8,27.7,131.7,27.7,125.5z"/>
		<path class="st78" d="M27.7,144c6.7,0,13.3,0,20,0c0,6.1,0,12.3,0,18.4c0,0,0,0,0,0c-6.7,0-13.4,0-20,0
			C27.7,156.3,27.7,150.1,27.7,144z"/>
		<path class="st79" d="M147,144c0,6.1,0,12.3,0,18.4c-6.7,0-13.4,0-20,0c0,0,0,0,0,0c0-6.1,0-12.3,0-18.4
			C133.7,144,140.3,144,147,144L147,144z"/>
		<path class="st80" d="M78.5,144c0,2.9,0,5.7,0,8.6c0,0.3,0.1,0.6,0.2,0.9c1,1.8,1.5,2,3.3,1.3c0.6-0.2,1.1-0.5,1.7-0.8
			c1.1-0.6,2.3-1.3,3.4-1.9c0.1,0.2,0.1,0.5,0.1,0.7c0,3.2,0,6.4,0,9.6c0,0,0,0,0,0c-6.6,0-13.2,0-19.9,0c0,0,0,0,0,0
			c0-6.1,0-12.3,0-18.4l0,0C71.1,144,74.8,144,78.5,144z"/>
		<path class="st81" d="M87.3,162.4c0-3.2,0-6.4,0-9.6c0-0.2-0.1-0.5-0.1-0.7c3.8-2.2,7.6-4.4,11.5-6.5c1-0.6,2-1.1,3-1.7
			c0.3,0,0.5,0.1,0.8,0.1c1.6,0,3.2,0,4.8,0c0,0,0,0,0,0c0,6.1,0,12.3,0,18.4c0,0,0,0,0,0C100.5,162.4,93.9,162.4,87.3,162.4z"/>
		<path class="st82" d="M107.1,162.4c0-6.1,0-12.3,0-18.4c6.6,0,13.2,0,19.9,0l0,0c0,6.1,0,12.3,0,18.4
			C120.4,162.4,113.8,162.4,107.1,162.4z"/>
		<path class="st83" d="M67.4,144c0,6.1,0,12.3,0,18.4c-6.6,0-13.1,0-19.7,0c0-6.1,0-12.3,0-18.4c0,0,0,0,0,0
			C54.3,144,60.8,144,67.4,144z"/>
		<path class="st84" d="M147,144c-6.7,0-13.3,0-20,0c0,0,0,0,0,0c0-5,0-10,0-14.9c0.9-1.2,0.9-1.6,0-2.8c0-0.2,0-0.4,0-0.6
			c0,0,0,0,0,0c6.7,0,13.3,0,20,0C147,131.7,147,137.8,147,144z"/>
		<path class="st85" d="M127,125.5c0,0.2,0,0.4,0,0.6c-0.3-0.2-0.5-0.4-0.8-0.6C126.5,125.5,126.7,125.5,127,125.5z"/>
		<path class="st86" d="M67.4,144c-6.6,0-13.1,0-19.7,0c0-6.1,0-12.3,0-18.4c6.6,0,13.1,0,19.7,0c0,0,0,0,0,0
			C67.4,131.7,67.4,137.8,67.4,144L67.4,144z"/>
		<path class="st87" d="M107.1,135.4c-4.4,2.5-8.7,5-13.1,7.5c-0.7,0.4-1.3,0.7-2,1.1c-1.6,0-3.2,0-4.8,0l0,0c0-6.1,0-12.3,0-18.4
			l0,0c6.6,0,13.2,0,19.9,0C107.1,128.8,107.1,132.1,107.1,135.4z"/>
		<path class="st73" d="M107.1,125.5c-6.6,0-13.2,0-19.9,0c0-5.6,0-11.2,0-16.8c3.6,2,7.2,4,10.7,6.1c3,1.7,6.1,3.5,9.1,5.2
			C107.1,121.8,107.1,123.7,107.1,125.5L107.1,125.5z"/>
		<path class="st88" d="M127,129c0,5,0,10,0,14.9c-6.6,0-13.2,0-19.9,0c0,0,0,0,0,0c0-1.1,0-2.1,0-3.2c3.4-1.9,6.8-3.9,10.1-5.8
			c2.7-1.5,5.3-3,8-4.6C125.8,130,126.4,129.5,127,129z"/>
		<path class="st88" d="M107.1,135.4c0-3.3,0-6.6,0-9.9c0,0,0,0,0,0c3.3,0,6.7,0,10,0c1.2,0.7,2.5,1.3,3.8,2.1
			c-2.8,1.6-5.4,3.1-8,4.6C111,133.3,109.1,134.3,107.1,135.4z"/>
		<path class="st89" d="M87.3,108.7c0,5.6,0,11.2,0,16.8c0,0,0,0,0,0c-0.8,0-1.7,0-2.5,0c-0.6,0-0.8,0.1-0.8,0.8
			c0,5.9,0,11.8,0,17.7c0,1.5,0,3,0,4.5c0-0.3-0.1-0.6-0.1-0.8c0-13.3,0-26.5,0-39.8c0-1,0.1-1.1,1-0.6
			C85.6,107.7,86.4,108.2,87.3,108.7z"/>
		<path class="st71" d="M117.1,125.5c-3.3,0-6.7,0-10,0c0-1.9,0-3.7,0-5.6c2.3,1.3,4.7,2.6,7,3.9C115.1,124.4,116.1,125,117.1,125.5
			z"/>
		<path class="st90" d="M83.9,148.5c0-1.5,0-3,0-4.5c1.1,0,2.2,0,3.3,0c0,0,0,0,0,0c0,0.9,0,1.8,0,2.8c-1,0.6-2,1.2-3.1,1.8
			C84.2,148.6,84,148.5,83.9,148.5z"/>
		<path class="st87" d="M107.1,140.8c0,1.1,0,2.1,0,3.2c-1.6,0-3.2,0-4.8,0c-0.3,0-0.5-0.1-0.8-0.1
			C103.4,142.8,105.3,141.8,107.1,140.8z"/>
		<path class="st81" d="M87.3,146.7c0-0.9,0-1.8,0-2.8c1.6,0,3.2,0,4.8,0C90.5,144.9,88.9,145.8,87.3,146.7z"/>
		<path class="st91" d="M67.4,144c0-6.1,0-12.3,0-18.4c3.5,0,6.9,0,10.4,0c0.4,0,0.7,0,0.7,0.6c0,6,0,11.9,0,17.9
			C74.8,144,71.1,144,67.4,144z"/>
		<path class="st91" d="M87.3,144c-1.1,0-2.2,0-3.3,0c0-5.9,0-11.8,0-17.7c0-0.7,0.2-0.8,0.8-0.8c0.8,0,1.7,0,2.5,0
			C87.3,131.7,87.3,137.8,87.3,144z"/>
	</g>
</g>
</svg>
