<?xml version="1.0" encoding="utf-8"?>
<!-- Generator: Adobe Illustrator 24.1.3, SVG Export Plug-In . SVG Version: 6.00 Build 0)  -->
<svg version="1.1" id="图层_1" xmlns="http://www.w3.org/2000/svg" xmlns:xlink="http://www.w3.org/1999/xlink" x="0px" y="0px"
	 viewBox="0 0 983 180.2" style="enable-background:new 0 0 983 180.2;" xml:space="preserve">
<style type="text/css">
	.st0{enable-background:new    ;}
</style>
<g>
	<path d="M88.7,88.6c23.2,0,46.5,0,69.7,0c2.4,0,2.8,0,2.8,2.8c0,23.2,0,46.3,0,69.5c0,2.8-0.1,2.9-2.9,2.9c-46.3,0-92.6,0-138.9,0
		c-0.2,0-0.5,0-0.7,0c-2.4-0.1-2.9-0.7-2.9-3.1c0-23,0-46,0-69c0-0.6,0.1-1.2,0.2-1.8c0.1-0.8,0.7-1.2,1.5-1.3c0.6,0,1.2,0,1.8,0
		C42.4,88.6,65.5,88.6,88.7,88.6z M70.7,131.3L70.7,131.3c0,6,0,12.1,0,18.1c0,0.8,0.1,1.6,0.2,2.4c0.2,1.1,1,1.5,2.1,1.2
		c0.6-0.2,1.2-0.4,1.8-0.8c2.5-1.4,4.9-2.8,7.4-4.2c10.9-6.2,21.8-12.3,32.6-18.5c0.9-0.5,1.8-1.1,2.5-1.8c1-0.9,1-1.9,0-2.8
		c-0.6-0.6-1.3-1.1-2-1.5c-10.6-6.1-21.3-12.2-32-18.2c-3-1.7-5.9-3.3-8.9-4.9c-2.4-1.3-3.6-0.6-4,2c-0.1,0.4,0,0.8,0,1.2
		c0.1,3.3,0.2,6.6,0.2,9.9C70.7,119.5,70.7,125.4,70.7,131.3z"/>
	<path d="M90,175.1c-25.6,0-51.1,0-76.7,0c-1.6,0-3,0-4.6,0c-2,0-3.4-0.9-3.4-3c0-0.4,0-0.8,0-1.2c0-26.2,0-52.3,0-78.5
		c0-0.2,0-0.3,0-0.5c-0.2-3.1,1-3.4,4.1-2.9c0.9,0.1,1.4,0.9,1.5,1.8c0.1,0.7,0,1.4,0,2c0,23.8,0,47.5,0,71.3c0,1,0.1,2,0.2,3
		c0.2,1.1,0.8,1.7,1.9,1.9c0.9,0.1,1.8,0.2,2.7,0.2c48.6,0,97.2,0,145.8,0c0.9,0,1.8-0.1,2.7-0.2c1.3-0.2,1.8-1,2-2.2
		c0.1-0.5,0-1,0-1.6c0-24,0-48.1,0-72.1c0-0.7,0.1-1.4,0.2-2.1c0.4-1.7,1.6-2.7,3-2.5c1.8,0.2,2.6,1.1,2.6,3.1c0,26.3,0,52.6,0,78.8
		c0,0.2,0,0.5,0,0.7c-0.2,2.8-1.3,4-4.2,4c-12.4,0-24.9,0-37.3,0C117.2,175.1,103.6,175.1,90,175.1z"/>
	<path d="M123.4,11.2c1.9-0.3,3.6-0.5,5.4-0.8c4.1-0.6,8.1-1.2,12.2-1.8c5.2-0.8,10.5-1.5,15.7-2.3c2-0.3,3.9-0.6,5.9-0.9
		c2.6-0.4,3.7,0.2,4.2,2.8c0.8,4.9,1.5,9.8,2.3,14.8c0.2,1.1,0.2,2.1,0.2,3.2c0,1.7-0.5,2.4-2.2,2.8c-2.2,0.5-4.4,0.8-6.6,1.1
		c-6,0.9-12,1.8-18,2.8c-2.2,0.3-4.5,0.7-6.7,1c-1.3,0.2-2.4-0.4-2.9-1.6c-3.1-6.7-6.1-13.4-9.2-20.1
		C123.6,12,123.6,11.7,123.4,11.2z"/>
	<path d="M27,83.4c-2,0-3.9,0-5.9,0c-4.6-0.1-9.1-0.1-13.7-0.2C5.5,83.2,5,82.9,5,81c-0.1-6.4,0-12.9,0-19.3c0-1.1,0.2-2.3,1.7-2.5
		c2.3-0.3,3.2,0.1,4.1,1.8c2.1,4.4,5.7,6.5,10.4,7c5.9,0.6,10.3-1.8,13.2-6.9c0.8-1.3,1.8-2,3.4-2c2.9,0.1,5.8,0,8.6,0
		c1.7,0,2,0.4,1.5,2.1c-1,3.2-2,6.3-2.9,9.5c-1,3.4-2,6.7-2.9,10.1c-0.6,2.1-1.3,2.6-3.4,2.6C34.8,83.4,30.9,83.4,27,83.4z"/>
	<path d="M153.6,83.4c-5.4,0-10.7,0-16.1,0c-1.6,0-1.8-0.2-1.3-1.7c1.8-6,3.7-12,5.6-17.9c0.2-0.6,0.4-1.1,0.6-1.7
		c0.7-2,2.2-2.8,4.1-2.8c7,0,14.1-0.1,21.1,0c2.8,0,4.5,1.8,4.5,4.8c0.1,5.8,0,11.7,0,17.5c0,1.4-0.6,1.9-2.3,1.9
		c-3.6,0-7.3,0-10.9,0C157.2,83.4,155.4,83.4,153.6,83.4z"/>
	<path d="M4.8,43c0-3.4,0-6.7,0-10.1c0-2.3,2-4.3,4.8-4.7c6-1,12.1-1.9,18.1-2.8c1.1-0.2,2.3,0.6,3,2c1.8,3.6,3.5,7.2,5.3,10.8
		c0.9,1.9,1.8,3.9,2.7,5.9c0.2,0.4,0.3,0.7,0.5,1.1c0.8,2.2,0.2,3.1-2.1,3c-1.4-0.1-2.4-0.5-3.3-1.8c-2.9-4.1-7-5.9-12-5.6
		c-5.7,0.4-9.7,3.2-11.6,8.7C10,50,9.8,50.6,9.6,51.1c-0.8,2.1-1.2,2.3-3.4,2.2c-0.9,0-1.2-0.4-1.3-1.2"/>
	<path d="M69.4,83.4c-2.9,0-5.8,0-8.6,0c-0.9,0-1.1-0.3-0.9-1.2c1.8-6.3,3.7-12.6,5.5-18.8c0-0.1,0.1-0.2,0.1-0.3
		c1.2-3.3,2-3.9,5.5-3.9c4.6,0,9.1,0,13.7,0c1.8,0,2.2,0.4,1.6,2.2c-2,6.7-4,13.4-6,20.1c-0.4,1.5-1.2,2-2.7,2
		C74.9,83.4,72.1,83.4,69.4,83.4z"/>
	<path d="M115.8,36.8c-2.9,0.4-5.6,0.9-8.4,1.3c-3.2,0.5-6.4,1-9.6,1.5c-1.4,0.2-2,0-2.7-1.3c-1.2-2.5-2.4-5-3.6-7.6
		c-1.7-3.6-3.4-7.2-5.1-10.8c-0.1-0.1-0.1-0.2-0.2-0.3c-0.9-2-0.5-2.7,1.7-3c3.9-0.6,7.7-1.2,11.6-1.8c1.3-0.2,2.7-0.3,4-0.4
		c1.1,0,1.9,0.4,2.5,1.5c3.1,6.6,6.2,13.2,9.3,19.7C115.5,35.9,115.6,36.3,115.8,36.8z"/>
	<path d="M107.5,83.4c-2.7,0-5.4,0-8,0c-1.5,0-1.7-0.3-1.3-1.7c2-6.8,4-13.6,6-20.4c0.5-1.6,1.2-2.1,2.9-2.1c5.4,0,10.7,0,16.1,0
		c1.7,0,1.9,0.3,1.4,1.9c-2,6.7-4.1,13.4-6.2,20.1c-0.5,1.7-1.3,2.2-3.1,2.2C112.6,83.4,110,83.4,107.5,83.4z"/>
	<path d="M48,22.7c4.8-0.8,9.5-1.7,14.3-2.5c0.9-0.2,1.9-0.2,2.9-0.3c1.5-0.2,2.5,0.5,3.2,1.8c1.7,3.3,3.3,6.6,4.9,10
		c1.5,3.2,3,6.4,4.4,9.6c0.1,0.2,0.2,0.5,0.4,1c-2.1,0.4-4.2,0.8-6.3,1.2c-3.7,0.6-7.4,1.1-11.1,1.6c-1.1,0.2-2.6-0.5-3.1-1.5
		C54.4,36.9,51.2,30,48,23.2C48,23.1,48,23,48,22.7z"/>
	<path d="M14.2,54.5c0-4.4,4.2-8.6,8.6-8.5c5.4,0.2,8.4,3.9,8.3,8.6c-0.1,4.2-3.3,8.1-8.5,8.1C17.5,62.7,13.8,58,14.2,54.5z"/>
	<path d="M90.3,40.1c0.2,0.6-0.7,0.7-1.1,0.8c-1.2,0.3-2.5,0.6-3.8,0.7c-1,0.1-2.1-0.2-2.6-1.3c-3.1-6.7-6.2-13.3-9.3-20
		c-0.5-1.2-0.3-1.4,1-1.6c1.1-0.2,2.3-0.4,3.4-0.6c1.5-0.3,2.1,0,2.8,1.5c2.2,4.6,4.3,9.2,6.5,13.8"/>
	<path d="M123.4,35.9c-1.5,0-2.3-0.4-2.8-1.5c-3.1-6.5-6.1-13.1-9.2-19.6c-0.7-1.5-0.6-1.5,0.9-1.9c1.2-0.3,2.3-0.5,3.5-0.7
		c1.1-0.2,1.9,0.2,2.4,1.2c3.2,6.7,6.4,13.4,9.6,20.1c0.6,1.2,0.4,1.5-0.9,1.7C125.7,35.5,124.4,35.7,123.4,35.9z"/>
	<path d="M126.7,83.8c-0.6-0.1-1.7-0.3-2.6-0.7c-0.3-0.1-0.6-0.8-0.5-1c2-6.9,4.1-13.9,6.2-20.8c0.3-1.1,2.2-2.2,3.3-2.2
		c1.8,0,2.1,0.1,3.1,0.2c1,0.1,1.4,0.5,1.1,1.5c-1.3,4.1-2.5,8.2-3.8,12.2c-0.7,2.4-1.4,4.8-2.1,7.1
		C130.7,82.2,129.5,83.8,126.7,83.8z"/>
	<path d="M84.8,83.6c1.4-4.6,2.7-8.8,4-13.1c1-3.1,1.9-6.3,2.8-9.4c0.4-1.5,0.8-1.8,2.4-1.8c1.7,0,3.3,0,5.2,0
		c-0.5,1.7-0.9,3.3-1.4,4.9C96,70,94.3,75.8,92.5,81.6c-0.4,1.4-1.2,2-2.7,2C88.2,83.7,86.6,83.6,84.8,83.6z"/>
	<path d="M51,83.4c-0.6,0-1.1,0-1.7,0c-1.2-0.1-1.9-1.1-1.6-2.3c2-6.7,4-13.4,6-20c0.4-1.3,1.3-1.8,2.5-1.9c1-0.1,1.9-0.2,2.9-0.2
		c1.6,0,2,0.6,1.6,2.1c-0.5,1.7-1,3.5-1.5,5.2c-1.3,4.6-2.6,9.2-4,13.8c0,0.1,0,0.2-0.1,0.2C54.4,83,53.9,83.4,51,83.4z"/>
	<path d="M35.3,24.5c2-0.2,3.7-0.6,5.5-0.6c0.7,0,1.7,0.6,2,1.2C46.1,32,49.3,39,52.5,46c0.1,0.1,0.1,0.3,0.2,0.6
		c-2,0.3-3.9,0.7-5.9,0.9c-0.9,0.1-1.1-0.8-1.4-1.4c-2.3-4.9-4.6-9.9-6.9-14.9C37.5,29.1,36.5,26.9,35.3,24.5z"/>
	<path d="M111.4,126.3c-12.2,6.9-24,13.6-36,20.5c0-13.7,0-27.1,0-40.8C87.3,112.7,99.2,119.5,111.4,126.3z"/>
	<g class="st0">
		<path d="M257.5,115.2c1.8-0.2,3.5-0.6,5.1-1.1V94.6c0-2.1,1.1-3.2,3.2-3.2h20.5c0.6,0,1.3,0.2,2,0.6s1.1,1.3,1.1,2.6v35.5
			c0,0.7-0.1,1.4-0.3,2c-0.2,0.6-0.7,1.1-1.4,1.5c-4.5,2.9-9.7,5.1-15.7,6.7c-6,1.6-12.3,2.4-19,2.4c-7.8,0-15.1-1.5-22-4.4
			c-6.8-3-12.8-7-18-12.1c-5.1-5.1-9.2-11.1-12.1-17.9c-3-6.8-4.4-14.2-4.4-22s1.5-15.1,4.4-21.9s6.9-12.7,12-17.7s11-9,17.9-11.9
			c6.8-2.9,14.1-4.4,21.9-4.4c6.6,0,12.5,0.9,17.7,2.6c5.1,1.7,9.9,4.3,14.4,7.6c0.8,0.6,1.2,1.2,1.4,2c0.2,0.7,0,1.5-0.5,2.2
			L273.4,62c-0.6,0.9-1.3,1.3-2.3,1.3c-0.7,0-1.4-0.3-2.1-0.8c-2.2-1.6-4.7-3-7.4-3.9c-2.7-1-5.6-1.5-8.8-1.5
			c-4.3,0-8.2,0.8-11.6,2.3c-3.4,1.5-6.4,3.6-8.8,6.2c-2.5,2.6-4.3,5.7-5.7,9.2c-1.3,3.5-2,7.3-2,11.4c0,4,0.7,7.8,2,11.4
			c1.4,3.6,3.3,6.7,5.7,9.3c2.5,2.7,5.3,4.8,8.7,6.3c3.3,1.6,7,2.3,11,2.3C254,115.5,255.7,115.4,257.5,115.2z"/>
		<path d="M307.7,50.6c0-2.2,1.1-3.4,3.3-3.4h12.6c1.1,0,2.1,0.2,3,0.5c0.9,0.4,1.7,1.5,2.5,3.3l3.2,8.2c1.5-1.7,3-3.3,4.5-4.9
			c1.5-1.6,3-2.9,4.8-4.1c1.7-1.2,3.7-2.2,5.8-2.9c2.2-0.7,4.7-1.1,7.7-1.1c3.1,0,6,0.5,8.9,1.5s5.5,2.2,7.8,3.5s4.3,2.6,6,3.9
			c1.7,1.3,2.8,2.2,3.4,2.8c1.3,1.1,1.9,2.1,1.9,3s-0.4,1.9-1.1,2.9l-9.6,13.6c-0.7,1-1.4,1.5-2.3,1.5c-0.8,0-1.6-0.4-2.4-1.1
			c-0.7-0.6-1.5-1.3-2.4-2.1c-0.9-0.8-2-1.6-3.3-2.3c-1.3-0.7-2.7-1.4-4.3-1.9c-1.6-0.5-3.3-0.8-5.3-0.8c-2.2,0-4.4,0.3-6.4,1
			s-3.7,1.7-5.2,3.1s-2.7,3.1-3.6,5.2s-1.3,4.5-1.3,7.2v50.6c0,2.2-1.1,3.3-3.4,3.3h-21.6c-2.2,0-3.3-1.1-3.3-3.3L307.7,50.6
			L307.7,50.6z"/>
		<path d="M456,110.3c0.9,0,1.6,0.4,2.1,1.1l9.4,13c0.8,1,1.1,1.9,1.1,2.7c0,0.8-0.4,1.5-1.3,2.3c-3.1,2.7-6.1,4.9-9.1,6.7
			c-3,1.7-6,3.1-8.9,4.1s-5.8,1.6-8.7,2c-2.9,0.4-5.7,0.5-8.6,0.5c-6.3,0-12.4-1.3-18.2-3.8s-10.9-6-15.4-10.3
			c-4.4-4.3-7.9-9.4-10.6-15.3c-2.6-5.8-3.9-12.1-3.9-18.7s1.1-12.9,3.4-18.7s5.5-10.9,9.7-15.3s9.2-7.8,15-10.3s12.2-3.8,19.2-3.8
			c2.9,0,6,0.4,9.3,1.1c3.3,0.8,6.6,2,9.8,3.6s6.3,3.7,9.3,6.2s5.6,5.6,7.8,9.1c2.2,3.5,4,7.6,5.4,12.1s2,9.7,2,15.3
			c0,2-0.2,3.6-0.6,4.8c-0.4,1.2-1,2.2-1.9,2.8c-0.9,0.6-2,1.1-3.4,1.3c-1.4,0.2-3.1,0.3-5.1,0.3h-53c0.7,2.5,1.7,4.8,3.1,6.7
			c1.3,2,2.9,3.7,4.8,5.1c1.8,1.4,3.9,2.5,6.1,3.3s4.6,1.1,7,1.1c3.5,0,6.4-0.3,8.7-0.8c2.3-0.6,4.3-1.3,5.9-2.1s3-1.7,4.1-2.7
			s2.2-1.9,3.4-2.8C454.7,110.5,455.3,110.3,456,110.3z M424.6,69.7c-1.8,0.7-3.5,1.7-5.1,2.9s-2.9,2.7-4.1,4.3
			c-1.2,1.6-2.2,3.4-3.1,5.3h37.2c-1.9-4.3-4.5-7.7-7.8-10s-7-3.5-11.3-3.5C428.4,68.6,426.4,69,424.6,69.7z"/>
		<path d="M491,23.4c0-1.2,0.3-2,1-2.6s1.5-0.8,2.6-0.8h20.8c1,0,1.9,0.3,2.5,1c0.7,0.6,1,1.5,1,2.5v114.2c0,1-0.3,1.9-0.9,2.5
			s-1.5,1-2.6,1h-20.8c-1.1,0-2-0.3-2.6-0.8c-0.6-0.6-1-1.4-1-2.6V23.4z"/>
		<path d="M537.5,75.7c2.5-5.8,6-10.9,10.4-15.3s9.5-7.8,15.4-10.3s12.2-3.8,18.8-3.8c6.7,0,13,1.3,18.9,3.8s11,6,15.4,10.3
			c4.4,4.4,7.9,9.5,10.4,15.3s3.8,12.1,3.8,18.7s-1.3,12.9-3.8,18.7c-2.6,5.8-6,11-10.4,15.3c-4.4,4.4-9.5,7.8-15.4,10.3
			s-12.2,3.8-18.8,3.8c-6.7,0-13-1.3-18.8-3.8c-5.9-2.5-11-6-15.4-10.3s-7.9-9.4-10.4-15.3s-3.8-12.1-3.8-18.8
			C533.7,87.8,535,81.5,537.5,75.7z M562.2,103.4c1,2.8,2.5,5.3,4.4,7.5c1.9,2.1,4.1,3.8,6.7,5.1c2.6,1.3,5.6,1.9,8.8,1.9
			c3.2,0,6.1-0.6,8.7-1.9c2.6-1.3,4.9-3,6.7-5.1c1.9-2.1,3.3-4.6,4.4-7.4c1-2.8,1.5-5.8,1.5-8.9s-0.5-6.1-1.5-8.9s-2.5-5.3-4.3-7.4
			c-1.9-2.1-4.1-3.8-6.7-5.1c-2.6-1.3-5.5-1.9-8.7-1.9c-3.2,0-6.1,0.6-8.8,1.9c-2.6,1.3-4.9,2.9-6.8,5.1c-1.9,2.1-3.4,4.6-4.4,7.4
			s-1.6,5.8-1.6,9C560.7,97.6,561.2,100.5,562.2,103.4z"/>
		<path d="M705.2,50.7c-0.1-1.2,0.2-2,0.9-2.6c0.6-0.6,1.5-0.8,2.6-0.8H730c2.3,0,3.4,1.1,3.4,3.4v87c0,2.3-1.1,3.4-3.4,3.4h-13.6
			c-1.2,0-2.3-0.4-3.3-1.3c-1-0.8-1.7-1.8-2-3l-2.1-8.2c-1.9,2.6-4.1,4.8-6.4,6.6c-2.3,1.8-4.8,3.2-7.3,4.3s-5.1,1.9-7.8,2.3
			c-2.7,0.5-5.3,0.7-8,0.7c-2,0-4.3-0.2-6.9-0.7c-2.6-0.5-5.1-1.3-7.7-2.4c-2.6-1.1-5.1-2.7-7.5-4.6c-2.4-1.9-4.6-4.4-6.4-7.4
			c-1.9-3-3.4-6.6-4.5-10.7s-1.7-9-1.7-14.5V50.6c0-2.2,1.1-3.4,3.4-3.4H669c2.2,0,3.4,1.1,3.4,3.4v49.7c0,2.1,0.4,4.2,1.2,6.1
			c0.8,1.9,1.9,3.7,3.4,5.1c1.5,1.5,3.2,2.7,5.3,3.5c2.1,0.9,4.4,1.3,7,1.3c1.2,0,2.7-0.2,4.6-0.7c1.8-0.5,3.6-1.3,5.2-2.5
			c1.7-1.2,3.1-2.9,4.3-5c1.2-2.1,1.8-4.8,1.8-8V50.7z"/>
		<path d="M751,50.5c0-1.1,0.3-1.9,0.9-2.5c0.6-0.6,1.5-0.8,2.5-0.8H770c0.8,0,1.4,0.2,1.9,0.6c0.5,0.4,0.9,0.9,1.2,1.5
			c0.3,0.6,0.5,1.3,0.7,2c0.2,0.7,0.3,1.4,0.5,1.9l1.6,6.3c3.2-4,7.1-7.2,11.6-9.7s9.8-3.7,15.7-3.7c6.2,0,12,1.1,17.4,3.4
			c5.4,2.3,10.1,5.5,14.1,9.7s7.2,9.2,9.5,15.1c2.3,5.9,3.4,12.4,3.4,19.7c0,6.6-1.1,12.9-3.2,18.7c-2.1,5.8-5.1,11-9.1,15.3
			c-3.9,4.4-8.7,7.8-14.2,10.3s-11.7,3.8-18.5,3.8c-4.8,0-9.2-0.9-13.2-2.8c-4.1-1.8-7.5-4.1-10.5-6.9v33.9c0,2.2-1.1,3.3-3.3,3.3
			h-21.4c-1.1,0-1.9-0.3-2.5-0.8s-0.9-1.4-0.9-2.5V50.5H751z M778.5,102.9c1,2.8,2.4,5.2,4.3,7.4c1.9,2.1,4.2,3.9,6.9,5.2
			c2.7,1.3,5.8,2,9.3,2s6.6-0.6,9.4-1.8c2.8-1.2,5.2-2.8,7.1-4.9c2-2.1,3.5-4.5,4.6-7.3s1.6-5.8,1.6-9s-0.5-6.3-1.5-9.1
			c-1-2.9-2.4-5.3-4.3-7.4s-4.3-3.8-7-5c-2.8-1.2-6-1.8-9.7-1.8c-3.2,0-6.2,0.7-8.9,2c-2.7,1.4-5,3.1-7,5.3
			c-1.9,2.2-3.5,4.7-4.6,7.5s-1.6,5.6-1.6,8.5C777,97.3,777.5,100.1,778.5,102.9z"/>
		<path d="M863.1,16.6c0-1.7,0.4-3.2,1.3-4.4c0.9-1.2,2.5-1.8,4.8-1.8h16.9c2,0,3.4,0.5,4.3,1.6c0.8,1.1,1.3,2.6,1.3,4.5v13.9
			c0,2.1-0.5,3.5-1.4,4.3c-0.9,0.7-2.3,1.1-4.1,1.1h-16.9c-1.8,0-3.2-0.4-4.4-1.1c-1.1-0.7-1.7-2.1-1.7-4.2L863.1,16.6L863.1,16.6z
			 M863.2,50.5c0-1.1,0.3-1.9,1-2.4c0.7-0.5,1.4-0.8,2.2-0.8h21.8c0.9,0,1.7,0.3,2.3,0.9c0.6,0.6,0.9,1.4,0.9,2.3v87.4
			c0,2.1-1.1,3.2-3.2,3.2h-21.8c-2.1,0-3.2-1.1-3.2-3.2V50.5z"/>
		<path d="M906.5,125.8c-0.3-0.5-0.5-1.1-0.7-1.6c-0.1-0.6-0.1-1.1,0.2-1.7c0.2-0.6,0.6-1.2,1.3-1.9l10.3-10.1
			c0.6-0.6,1.3-0.9,2-0.9c0.8,0,1.8,0.5,2.8,1.4c1.2,1.1,2.5,2.1,3.9,3.1s2.8,1.9,4.4,2.7c1.5,0.8,3.1,1.4,4.8,1.8
			c1.6,0.5,3.3,0.7,5,0.7c1.9,0,3.5-0.2,4.8-0.5c1.3-0.3,2.3-0.8,3.1-1.4c0.8-0.6,1.3-1.3,1.6-2.1c0.3-0.8,0.5-1.6,0.5-2.6
			c0-1.1-0.2-2-0.6-2.7s-1.1-1.4-2.2-2.1c-1.1-0.6-2.5-1.3-4.4-2s-4.3-1.4-7.3-2.3c-4.7-1.4-8.8-3-12.2-4.9s-6.2-4.1-8.5-6.7
			c-2.2-2.6-3.9-5.5-4.9-8.8c-1.1-3.3-1.6-7-1.6-11.2c0-3.8,0.8-7.3,2.3-10.5c1.6-3.2,3.8-6,6.8-8.3s6.7-4.1,11-5.5
			c4.4-1.3,9.3-2,14.9-2c4.1,0,7.8,0.4,10.8,1.3c3.1,0.9,5.8,2,8.2,3.3c2.3,1.3,4.4,2.8,6.2,4.3c1.8,1.6,3.4,3,4.9,4.4
			c1,0.9,1.6,1.8,1.6,2.7c0.1,0.9-0.5,1.8-1.7,2.9l-11.3,9.8c-0.9,0.8-1.7,1.1-2.4,1.1c-0.7,0-1.5-0.4-2.5-1.2
			c-0.9-0.7-1.8-1.4-2.6-2.1c-0.9-0.7-1.9-1.3-2.9-1.9c-1-0.5-2.2-1-3.4-1.3c-1.3-0.3-2.7-0.5-4.3-0.5c-2.9,0-5.1,0.5-6.5,1.4
			s-2.1,2-2.1,3.1s0.3,2.1,1,2.8c0.7,0.7,1.7,1.3,3.2,1.9s3.5,1.2,5.9,1.9c2.5,0.7,5.5,1.6,9,2.8c4.9,1.6,8.9,3.5,12,5.8
			s5.4,4.8,7.1,7.4c1.7,2.7,2.8,5.4,3.4,8.3s0.9,5.7,0.9,8.5c0,4.9-1,9.2-3,12.9c-2,3.8-4.7,6.9-8,9.5c-3.3,2.6-7.2,4.5-11.5,5.9
			c-4.3,1.4-8.7,2-13.3,2c-3.1,0-6.2-0.2-9.3-0.7s-6.2-1.3-9.2-2.5s-5.9-2.8-8.7-4.8c-2.8-2-5.4-4.6-7.9-7.7
			C907.1,126.8,906.8,126.4,906.5,125.8z"/>
	</g>
</g>
</svg>
