<?xml version="1.0" encoding="utf-8"?>
<!-- Generator: Adobe Illustrator 24.1.3, SVG Export Plug-In . SVG Version: 6.00 Build 0)  -->
<svg version="1.1" id="图层_1" xmlns="http://www.w3.org/2000/svg" xmlns:xlink="http://www.w3.org/1999/xlink" x="0px" y="0px"
	 viewBox="0 0 983 180.2" style="enable-background:new 0 0 983 180.2;" xml:space="preserve">
<style type="text/css">
	.st0{fill:#FFFFFF;stroke:#FFFFFF;stroke-width:0.25;}
	.st1{fill:#FFFFFF;}
	.st2{enable-background:new    ;}
</style>
<path class="st0" d="M40.2,54.8c1.4,0,2.9,0,4.2,0c40.4,0,80.7,0,121.1,0c7.4,0,10.5,3.1,10.5,10.6c0.1,19.3,0.1,38.7,0.1,58
	c0,14,0,27.8,0,41.8c0,2.1-0.2,4.2-0.9,6.2c-1.3,3.4-4.2,4.3-7.4,4.8c-0.8,0.1-1.7,0.1-2.5,0.1c-49.2,0-98.6,0-147.8,0
	c-1.9,0-3.8-0.1-5.7-0.5c-4.7-0.7-7-3.4-7.2-8.1c0-0.8,0-1.7,0-2.5c0-42.7,0-85.5,0-128.2c0-7.8,3-11.3,10.6-12.6
	c19.2-3,38.5-5.8,57.6-8.8c16.3-2.5,32.6-4.9,48.9-7.4c12.8-1.9,25.6-3.9,38.3-6c7-1.1,9.8,0.8,11,7.7c0.9,5.3,1.7,10.5,2.3,15.8
	c0.5,5.2-2.2,7.9-7.3,8.6c-10.6,1.5-21.3,3.2-31.9,4.8c-13,1.9-26.2,4-39.3,6c-9.8,1.5-19.8,3-29.6,4.5c-7.9,1.3-15.8,2.5-23.7,3.9
	c-0.5,0.1-0.8,0.2-1.3,0.5C40.2,54.4,40.2,54.6,40.2,54.8z M90.6,161.3c22.4,0,44.9,0,67.2,0c3.8,0,3.9,0,3.9-3.8
	c0-22.1,0-44.3,0-66.4c0-3.7-0.1-3.8-3.7-3.8c-45.2,0-90.4,0-135.6-0.1c-2.7,0-3.3,0.9-3.3,3.4c0.1,22.4,0.1,44.9,0,67.2
	c0,2.7,0.8,3.3,3.4,3.3C45.1,161.3,67.8,161.3,90.6,161.3z M90.2,172.4c25.2,0,50.4,0,75.6,0c5.3,0,6.2-1,6.2-6.2
	c0-21.5,0-43.2,0-64.7c0-3.9,0.1-7.8,0-11.7c0-0.8-0.5-2.1-1-2.3c-3.1-1.5-5.5,0.1-5.5,3.5c0,23.2,0,46.6,0,69.8
	c0,4.1-0.3,4.5-4.3,4.5c-47.2,0-94.2,0-141.4,0c-4.1,0-4.3-0.3-4.3-4.5c0-23.4,0-46.7,0-70.1c0-2.9-1-3.5-3.7-3.5
	c-2.6,0-3.1,0.9-3.1,3.3c0.1,24.8,0,49.8,0,74.6c0,1.1,0,2.3,0.1,3.4c0.2,2.1,1.4,3.3,3.4,3.5c1.3,0.1,2.5,0.1,3.7,0.1
	C40.7,172.4,65.4,172.4,90.2,172.4z M123.8,12.2c-0.1,0.6-0.2,0.8-0.1,0.9c3.2,7,6.4,14,9.7,20.9c0.3,0.6,1.7,1.1,2.5,1
	c9.8-1.4,19.8-3,29.6-4.5c3.3-0.6,4.1-1.5,3.8-4.8c-0.6-5-1.5-10.2-2.2-15.2c-0.6-3.8-1.6-4.7-5.3-4.1c-10.8,1.5-21.4,3.1-32.2,4.8
	C127.7,11.4,125.7,11.9,123.8,12.2z M26.6,83.3c5.3,0,10.5-0.1,15.7,0c1.9,0,2.9-0.7,3.4-2.5c1.8-6.5,3.8-12.9,5.8-19.5
	c0.6-2.1,0-2.6-1.9-2.5c-2.9,0.1-5.7,0.1-8.6,0c-1.7-0.1-2.7,0.7-3.5,2.2c-3.1,5.5-9.3,7.8-15.2,5.7c-3.1-1-5.6-3-7-6.1
	c-1.3-2.7-3.5-1.9-5.4-1.7C9.3,59.1,8.6,61,8.6,62c-0.1,6.2,0,12.4-0.1,18.5c0,2.1,0.7,2.6,2.6,2.6C16.3,83.2,21.4,83.3,26.6,83.3z
	 M135.7,82.7c0.7,0.3,0.8,0.5,1,0.5c11.1,0,22.1,0,33.2,0.1c1.8,0,2.3-0.8,2.3-2.5c0-5.4,0-10.6,0-16c0-4.2-1.8-6.1-6.2-6.1
	c-4.9,0-10,0-14.9,0c-8,0-8.1,0-10.5,7.7C138.8,71.8,137.3,77.3,135.7,82.7z M8.7,53.9c4,0.6,4.3,0.3,5.6-3.2
	c1.6-4.5,4.6-7.6,9.3-8.5c5.3-1,9.8,0.5,13,4.9c0.5,0.6,0.8,1.7,1.3,1.8c1.7,0.3,3.3,0.6,5.2,0.3c1.4-0.2,0.3-2.3-0.1-3.2
	c-2.8-5.9-5.5-12-8.5-18c-0.5-0.9-2.1-1.9-3-1.8c-6.1,0.8-12,1.7-18,2.9C11,29.5,9,31.2,8.9,33.8C8.6,40.5,8.7,47.1,8.7,53.9z
	 M61.5,82.6c0.5,0.3,0.6,0.6,0.7,0.6c6.2,0,12.4,0.1,18.5,0c0.6,0,1.5-0.9,1.6-1.5c2.2-6.8,4.1-13.6,6.2-20.5
	c0.6-2.1-0.3-2.5-2.2-2.5c-3.4,0.1-6.9,0-10.3,0c-7.4,0-7.4,0-9.6,7.1c-0.1,0.2-0.2,0.6-0.3,0.8C64.7,72.1,63.1,77.4,61.5,82.6z
	 M50.3,23.5c0.1,0.8,0,1.1,0.1,1.4c3.1,6.8,6.2,13.5,9.5,20.1c0.3,0.8,1.9,1.5,2.9,1.4c4.6-0.5,9.3-1.3,13.9-2.1
	c1.4-0.2,2.6-0.6,4.3-1c-2.9-6.1-5.4-11.7-8-17.2c-2.7-5.8-2.9-5.7-9-4.8c-0.7,0.1-1.4,0.1-1.9,0.2C58,22.1,54.1,22.8,50.3,23.5z
	 M98.6,82.6c-0.2,0.5,0.9,0.6,1.3,0.6c5.8,0,11.7,0.1,17.4,0c0.8,0,2.1-1.3,2.4-2.2c2.1-6.5,4-13.2,6-19.7c0.6-1.9,0-2.6-1.9-2.6
	c-5.3,0.1-10.5,0.1-15.7,0c-1.7,0-2.6,0.7-3.1,2.3C102.9,68.2,100.8,75.3,98.6,82.6z M117.7,37.8c-3.5-7.6-6.8-14.5-10.2-21.5
	c-0.3-0.7-1.8-1.4-2.7-1.3c-5.2,0.6-10.3,1.6-15.6,2.2c-2.5,0.3-2.5,1.3-1.7,3.2c2.9,6.1,5.7,12.2,8.6,18.3c0.7,1.6,1.6,2.4,3.5,1.8
	c1.9-0.6,4-0.6,6-0.9C109.5,39.1,113.4,38.6,117.7,37.8z M26.5,46c-4.9,0.1-8.9,4.2-8.8,9c0.1,4.6,4.5,8.6,9,8.5
	c4.9-0.1,8.6-4,8.5-8.9C35.1,49.4,31.5,45.9,26.5,46z M101.5,58.8c-2.6,0-4.8-0.1-6.9,0c-0.5,0-1.3,0.7-1.4,1.1
	c-2.3,7.6-4.6,15-7,23.2c2.1,0,3.5,0,5.2,0c3,0,3.3-0.5,3.8-2.7c0.8-3.3,1.9-6.5,3-9.8C99.2,67,100.2,63.2,101.5,58.8z M74.7,19.7
	c0.1,0.7,0.1,1,0.3,1.4c3.1,6.8,6.2,13.5,9.4,20.1c0.3,0.7,1.6,1.1,2.5,1.3c1.1,0.1,2.3-0.3,3.4-0.3c2.1-0.1,2.7-0.9,1.7-3
	c-3-6.3-6-12.6-8.9-18.8c-0.3-0.7-1.4-1.7-1.9-1.7C79,18.8,77,19.3,74.7,19.7z M123.4,82.5c5.6,2.1,7.9,1,9.3-4
	c1.5-5.3,3.1-10.5,4.7-15.8c1.1-3.8,1.1-3.9-2.7-3.9c-0.8,0-1.6-0.2-2.3,0c-0.9,0.3-2.2,1-2.4,1.7C127.8,67.9,125.6,75.1,123.4,82.5
	z M38.4,25.2c-0.1,0.6-0.2,0.8-0.1,0.9c3.2,7.1,6.5,14.2,9.7,21.2c0.2,0.5,1,1,1.5,1c2.2-0.2,4.2-0.7,6.3-1c0.1-0.5,0.2-0.7,0.1-0.8
	c-3.2-7.1-6.5-14.2-9.8-21.2c-0.2-0.6-1.4-1-2.1-0.9C42.2,24.5,40.2,24.8,38.4,25.2z M111.2,14.2c0.5,1.3,0.8,2.3,1.3,3.2
	c2.7,5.7,5.6,11.4,8.1,17.3c0.9,1.9,1.9,2.6,3.9,2.2c0.8-0.2,1.7-0.3,2.5-0.3c2.2-0.1,2.5-1.1,1.6-3c-3.1-6.3-6.1-12.7-9.2-19.1
	c-0.3-0.7-1.4-1.5-2.1-1.5C115.4,13.2,113.5,13.7,111.2,14.2z M54.9,83.6c1.5,0,2.9-1.3,3.5-4c1.4-5.3,3.1-10.4,4.6-15.6
	s1.5-5.3-4-5c-1,0-2.6,0.7-2.9,1.5c-2.3,7-4.3,14-6.3,21.1c-0.2,1,0,1.5,1.4,1.9C52.5,83.7,53.6,83.6,54.9,83.6z"/>
<path class="st1" d="M73.8,104.6c0-2.7,1.1-3.4,3.4-2.1c11.2,6.3,22.5,12.6,33.7,19c4,2.3,4.1,3.2,0.1,5.4
	c-11.3,6.5-22.7,12.8-34.1,19.2c-1.9,1.1-2.8,0.7-3-1.7 M77.3,106.6c0,12,0,23.4,0,35.3c10.5-5.9,20.7-11.7,31.3-17.7
	C98,118.3,87.8,112.5,77.3,106.6z"/>
<g class="st2">
	<path class="st1" d="M263.3,114.3c1.8-0.2,3.5-0.6,5.1-1.1V93.7c0-2.1,1.1-3.2,3.2-3.2h20.5c0.6,0,1.3,0.2,2,0.6s1.1,1.3,1.1,2.6
		v35.5c0,0.7-0.1,1.4-0.3,2c-0.2,0.6-0.7,1.1-1.4,1.5c-4.5,2.9-9.7,5.1-15.7,6.7c-6,1.6-12.3,2.4-19,2.4c-7.8,0-15.1-1.5-22-4.4
		c-6.8-3-12.8-7-18-12.1c-5.1-5.1-9.2-11.1-12.1-17.9c-3-6.8-4.4-14.2-4.4-22s1.5-15.1,4.4-21.9s6.9-12.7,12-17.7s11-9,17.9-11.9
		c6.8-2.9,14.1-4.4,21.9-4.4c6.6,0,12.5,0.9,17.7,2.6c5.1,1.7,9.9,4.3,14.4,7.6c0.8,0.6,1.2,1.2,1.4,2c0.2,0.7,0,1.5-0.5,2.2
		l-12.3,17.2c-0.6,0.9-1.3,1.3-2.3,1.3c-0.7,0-1.4-0.3-2.1-0.8c-2.2-1.6-4.7-3-7.4-3.9c-2.7-1-5.6-1.5-8.8-1.5
		c-4.3,0-8.2,0.8-11.6,2.3c-3.4,1.5-6.4,3.6-8.8,6.2c-2.5,2.6-4.3,5.7-5.7,9.2c-1.3,3.5-2,7.3-2,11.4c0,4,0.7,7.8,2,11.4
		c1.4,3.6,3.3,6.7,5.7,9.3c2.5,2.7,5.3,4.8,8.7,6.3c3.3,1.6,7,2.3,11,2.3C259.8,114.6,261.5,114.5,263.3,114.3z"/>
	<path class="st1" d="M313.5,49.7c0-2.2,1.1-3.4,3.3-3.4h12.6c1.1,0,2.1,0.2,3,0.5c0.9,0.4,1.7,1.5,2.5,3.3l3.2,8.2
		c1.5-1.7,3-3.3,4.5-4.9c1.5-1.6,3-2.9,4.8-4.1c1.7-1.2,3.7-2.2,5.8-2.9c2.2-0.7,4.7-1.1,7.7-1.1c3.1,0,6,0.5,8.9,1.5
		s5.5,2.2,7.8,3.5s4.3,2.6,6,3.9c1.7,1.3,2.8,2.2,3.4,2.8c1.3,1.1,1.9,2.1,1.9,3s-0.4,1.9-1.1,2.9l-9.6,13.6c-0.7,1-1.4,1.5-2.3,1.5
		c-0.8,0-1.6-0.4-2.4-1.1c-0.7-0.6-1.5-1.3-2.4-2.1c-0.9-0.8-2-1.6-3.3-2.3c-1.3-0.7-2.7-1.4-4.3-1.9c-1.6-0.5-3.3-0.8-5.3-0.8
		c-2.2,0-4.4,0.3-6.4,1s-3.7,1.7-5.2,3.1s-2.7,3.1-3.6,5.2s-1.3,4.5-1.3,7.2v50.6c0,2.2-1.1,3.3-3.4,3.3h-21.6
		c-2.2,0-3.3-1.1-3.3-3.3L313.5,49.7L313.5,49.7z"/>
	<path class="st1" d="M461.8,109.4c0.9,0,1.6,0.4,2.1,1.1l9.4,13c0.8,1,1.1,1.9,1.1,2.7c0,0.8-0.4,1.5-1.3,2.3
		c-3.1,2.7-6.1,4.9-9.1,6.7c-3,1.7-6,3.1-8.9,4.1s-5.8,1.6-8.7,2c-2.9,0.4-5.7,0.5-8.6,0.5c-6.3,0-12.4-1.3-18.2-3.8
		s-10.9-6-15.4-10.3c-4.4-4.3-7.9-9.4-10.6-15.3c-2.6-5.8-3.9-12.1-3.9-18.7s1.1-12.9,3.4-18.7s5.5-10.9,9.7-15.3s9.2-7.8,15-10.3
		s12.2-3.8,19.2-3.8c2.9,0,6,0.4,9.3,1.1c3.3,0.8,6.6,2,9.8,3.6s6.3,3.7,9.3,6.2s5.6,5.6,7.8,9.1c2.2,3.5,4,7.6,5.4,12.1
		s2,9.7,2,15.3c0,2-0.2,3.6-0.6,4.8c-0.4,1.2-1,2.2-1.9,2.8c-0.9,0.6-2,1.1-3.4,1.3c-1.4,0.2-3.1,0.3-5.1,0.3h-53
		c0.7,2.5,1.7,4.8,3.1,6.7c1.3,2,2.9,3.7,4.8,5.1c1.8,1.4,3.9,2.5,6.1,3.3s4.6,1.1,7,1.1c3.5,0,6.4-0.3,8.7-0.8
		c2.3-0.6,4.3-1.3,5.9-2.1s3-1.7,4.1-2.7s2.2-1.9,3.4-2.8C460.5,109.6,461.1,109.4,461.8,109.4z M430.4,68.8
		c-1.8,0.7-3.5,1.7-5.1,2.9s-2.9,2.7-4.1,4.3c-1.2,1.6-2.2,3.4-3.1,5.3h37.2c-1.9-4.3-4.5-7.7-7.8-10s-7-3.5-11.3-3.5
		C434.2,67.7,432.2,68.1,430.4,68.8z"/>
	<path class="st1" d="M496.8,22.5c0-1.2,0.3-2,1-2.6s1.5-0.8,2.6-0.8h20.8c1,0,1.9,0.3,2.5,1c0.7,0.6,1,1.5,1,2.5v114.2
		c0,1-0.3,1.9-0.9,2.5c-0.6,0.6-1.5,1-2.6,1h-20.8c-1.1,0-2-0.3-2.6-0.8c-0.6-0.6-1-1.4-1-2.6V22.5z"/>
	<path class="st1" d="M543.3,74.8c2.5-5.8,6-10.9,10.4-15.3s9.5-7.8,15.4-10.3s12.2-3.8,18.8-3.8c6.7,0,13,1.3,18.9,3.8
		s11,6,15.4,10.3c4.4,4.4,7.9,9.5,10.4,15.3s3.8,12.1,3.8,18.7s-1.3,12.9-3.8,18.7c-2.6,5.8-6,11-10.4,15.3
		c-4.4,4.4-9.5,7.8-15.4,10.3s-12.2,3.8-18.8,3.8c-6.7,0-13-1.3-18.8-3.8c-5.9-2.5-11-6-15.4-10.3c-4.4-4.3-7.9-9.4-10.4-15.3
		s-3.8-12.1-3.8-18.8C539.5,86.9,540.8,80.6,543.3,74.8z M568,102.5c1,2.8,2.5,5.3,4.4,7.5c1.9,2.1,4.1,3.8,6.7,5.1
		c2.6,1.3,5.6,1.9,8.8,1.9c3.2,0,6.1-0.6,8.7-1.9s4.9-3,6.7-5.1c1.9-2.1,3.3-4.6,4.4-7.4c1-2.8,1.5-5.8,1.5-8.9s-0.5-6.1-1.5-8.9
		s-2.5-5.3-4.3-7.4c-1.9-2.1-4.1-3.8-6.7-5.1c-2.6-1.3-5.5-1.9-8.7-1.9c-3.2,0-6.1,0.6-8.8,1.9c-2.6,1.3-4.9,2.9-6.8,5.1
		c-1.9,2.1-3.4,4.6-4.4,7.4s-1.6,5.8-1.6,9C566.5,96.7,567,99.6,568,102.5z"/>
	<path class="st1" d="M711,49.8c-0.1-1.2,0.2-2,0.9-2.6c0.6-0.6,1.5-0.8,2.6-0.8h21.3c2.3,0,3.4,1.1,3.4,3.4v87
		c0,2.3-1.1,3.4-3.4,3.4h-13.6c-1.2,0-2.3-0.4-3.3-1.3c-1-0.8-1.7-1.8-2-3l-2.1-8.2c-1.9,2.6-4.1,4.8-6.4,6.6s-4.8,3.2-7.3,4.3
		s-5.1,1.9-7.8,2.3c-2.7,0.5-5.3,0.7-8,0.7c-2,0-4.3-0.2-6.9-0.7c-2.6-0.5-5.1-1.3-7.7-2.4c-2.6-1.1-5.1-2.7-7.5-4.6
		c-2.4-1.9-4.6-4.4-6.4-7.4c-1.9-3-3.4-6.6-4.5-10.7s-1.7-9-1.7-14.5V49.7c0-2.2,1.1-3.4,3.4-3.4h20.8c2.2,0,3.4,1.1,3.4,3.4v49.7
		c0,2.1,0.4,4.2,1.2,6.1c0.8,1.9,1.9,3.7,3.4,5.1c1.5,1.5,3.2,2.7,5.3,3.5c2.1,0.9,4.4,1.3,7,1.3c1.2,0,2.7-0.2,4.6-0.7
		c1.8-0.5,3.6-1.3,5.2-2.5c1.7-1.2,3.1-2.9,4.3-5c1.2-2.1,1.8-4.8,1.8-8V49.8z"/>
	<path class="st1" d="M756.8,49.6c0-1.1,0.3-1.9,0.9-2.5s1.5-0.8,2.5-0.8h15.6c0.8,0,1.4,0.2,1.9,0.6c0.5,0.4,0.9,0.9,1.2,1.5
		c0.3,0.6,0.5,1.3,0.7,2c0.2,0.7,0.3,1.4,0.5,1.9l1.6,6.3c3.2-4,7.1-7.2,11.6-9.7s9.8-3.7,15.7-3.7c6.2,0,12,1.1,17.4,3.4
		c5.4,2.3,10.1,5.5,14.1,9.7s7.2,9.2,9.5,15.1c2.3,5.9,3.4,12.4,3.4,19.7c0,6.6-1.1,12.9-3.2,18.7c-2.1,5.8-5.1,11-9.1,15.3
		c-3.9,4.4-8.7,7.8-14.2,10.3s-11.7,3.8-18.5,3.8c-4.8,0-9.2-0.9-13.2-2.8c-4.1-1.8-7.5-4.1-10.5-6.9v33.9c0,2.2-1.1,3.3-3.3,3.3
		H760c-1.1,0-1.9-0.3-2.5-0.8s-0.9-1.4-0.9-2.5V49.6H756.8z M784.3,102c1,2.8,2.4,5.2,4.3,7.4c1.9,2.1,4.2,3.9,6.9,5.2
		c2.7,1.3,5.8,2,9.3,2s6.6-0.6,9.4-1.8c2.8-1.2,5.2-2.8,7.1-4.9c2-2.1,3.5-4.5,4.6-7.3s1.6-5.8,1.6-9s-0.5-6.3-1.5-9.1
		c-1-2.9-2.4-5.3-4.3-7.4c-1.9-2.1-4.3-3.8-7-5c-2.8-1.2-6-1.8-9.7-1.8c-3.2,0-6.2,0.7-8.9,2c-2.7,1.4-5,3.1-7,5.3
		c-1.9,2.2-3.5,4.7-4.6,7.5s-1.6,5.6-1.6,8.5C782.8,96.4,783.3,99.2,784.3,102z"/>
	<path class="st1" d="M868.9,15.7c0-1.7,0.4-3.2,1.3-4.4c0.9-1.2,2.5-1.8,4.8-1.8h16.9c2,0,3.4,0.5,4.3,1.6c0.8,1.1,1.3,2.6,1.3,4.5
		v13.9c0,2.1-0.5,3.5-1.4,4.3c-0.9,0.7-2.3,1.1-4.1,1.1h-16.9c-1.8,0-3.2-0.4-4.4-1.1c-1.1-0.7-1.7-2.1-1.7-4.2L868.9,15.7
		L868.9,15.7z M869,49.6c0-1.1,0.3-1.9,1-2.4c0.7-0.5,1.4-0.8,2.2-0.8H894c0.9,0,1.7,0.3,2.3,0.9c0.6,0.6,0.9,1.4,0.9,2.3V137
		c0,2.1-1.1,3.2-3.2,3.2h-21.8c-2.1,0-3.2-1.1-3.2-3.2V49.6z"/>
	<path class="st1" d="M912.3,124.9c-0.3-0.5-0.5-1.1-0.7-1.6c-0.1-0.6-0.1-1.1,0.2-1.7c0.2-0.6,0.6-1.2,1.3-1.9l10.3-10.1
		c0.6-0.6,1.3-0.9,2-0.9c0.8,0,1.8,0.5,2.8,1.4c1.2,1.1,2.5,2.1,3.9,3.1s2.8,1.9,4.4,2.7c1.5,0.8,3.1,1.4,4.8,1.8
		c1.6,0.5,3.3,0.7,5,0.7c1.9,0,3.5-0.2,4.8-0.5c1.3-0.3,2.3-0.8,3.1-1.4c0.8-0.6,1.3-1.3,1.6-2.1c0.3-0.8,0.5-1.6,0.5-2.6
		c0-1.1-0.2-2-0.6-2.7c-0.4-0.7-1.1-1.4-2.2-2.1c-1.1-0.6-2.5-1.3-4.4-2s-4.3-1.4-7.3-2.3c-4.7-1.4-8.8-3-12.2-4.9s-6.2-4.1-8.5-6.7
		c-2.2-2.6-3.9-5.5-4.9-8.8c-1.1-3.3-1.6-7-1.6-11.2c0-3.8,0.8-7.3,2.3-10.5c1.6-3.2,3.8-6,6.8-8.3s6.7-4.1,11-5.5
		c4.4-1.3,9.3-2,14.9-2c4.1,0,7.8,0.4,10.8,1.3c3.1,0.9,5.8,2,8.2,3.3c2.3,1.3,4.4,2.8,6.2,4.3c1.8,1.6,3.4,3,4.9,4.4
		c1,0.9,1.6,1.8,1.6,2.7c0.1,0.9-0.5,1.8-1.7,2.9l-11.3,9.8c-0.9,0.8-1.7,1.1-2.4,1.1c-0.7,0-1.5-0.4-2.5-1.2
		c-0.9-0.7-1.8-1.4-2.6-2.1c-0.9-0.7-1.9-1.3-2.9-1.9c-1-0.5-2.2-1-3.4-1.3c-1.3-0.3-2.7-0.5-4.3-0.5c-2.9,0-5.1,0.5-6.5,1.4
		s-2.1,2-2.1,3.1s0.3,2.1,1,2.8c0.7,0.7,1.7,1.3,3.2,1.9s3.5,1.2,5.9,1.9c2.5,0.7,5.5,1.6,9,2.8c4.9,1.6,8.9,3.5,12,5.8
		s5.4,4.8,7.1,7.4c1.7,2.7,2.8,5.4,3.4,8.3c0.6,2.9,0.9,5.7,0.9,8.5c0,4.9-1,9.2-3,12.9c-2,3.8-4.7,6.9-8,9.5
		c-3.3,2.6-7.2,4.5-11.5,5.9c-4.3,1.4-8.7,2-13.3,2c-3.1,0-6.2-0.2-9.3-0.7s-6.2-1.3-9.2-2.5s-5.9-2.8-8.7-4.8
		c-2.8-2-5.4-4.6-7.9-7.7C912.9,125.9,912.6,125.5,912.3,124.9z"/>
</g>
</svg>
