<?xml version="1.0" encoding="utf-8"?>
<!-- Generator: Adobe Illustrator 24.1.3, SVG Export Plug-In . SVG Version: 6.00 Build 0)  -->
<svg version="1.1" id="图层_1" xmlns="http://www.w3.org/2000/svg" xmlns:xlink="http://www.w3.org/1999/xlink" x="0px" y="0px"
	 viewBox="0 0 319.4 249.1" style="enable-background:new 0 0 319.4 249.1;" xml:space="preserve">
<style type="text/css">
	.st0{fill:#3670C9;}
	.st1{enable-background:new    ;}
</style>
<path class="st0" d="M159.9,85.4c20.6,0,41.4,0,62,0c2.1,0,2.5,0,2.5,2.5c0,20.6,0,41.2,0,61.8c0,2.5-0.1,2.6-2.6,2.6
	c-41.2,0-82.4,0-123.6,0c-0.2,0-0.4,0-0.6,0c-2.1-0.1-2.6-0.6-2.6-2.8c0-20.5,0-40.9,0-61.4c0-0.5,0.1-1.1,0.2-1.6
	c0.1-0.7,0.6-1.1,1.3-1.2c0.5,0,1.1,0,1.6,0C118.7,85.4,139.3,85.4,159.9,85.4z M143.9,123.4L143.9,123.4c0,5.3,0,10.8,0,16.1
	c0,0.7,0.1,1.4,0.2,2.1c0.2,1,0.9,1.3,1.9,1.1c0.5-0.2,1.1-0.4,1.6-0.7c2.2-1.2,4.4-2.5,6.6-3.7c9.7-5.5,19.4-10.9,29-16.5
	c0.8-0.4,1.6-1,2.2-1.6c0.9-0.8,0.9-1.7,0-2.5c-0.5-0.5-1.2-1-1.8-1.3c-9.4-5.4-19-10.9-28.5-16.2c-2.7-1.5-5.3-2.9-7.9-4.4
	c-2.1-1.2-3.2-0.5-3.6,1.8c-0.1,0.4,0,0.7,0,1.1c0.1,2.9,0.2,5.9,0.2,8.8C143.9,112.9,143.9,118.1,143.9,123.4z"/>
<path class="st0" d="M161.1,162.4c-22.8,0-45.5,0-68.3,0c-1.4,0-2.7,0-4.1,0c-1.8,0-3-0.8-3-2.7c0-0.4,0-0.7,0-1.1
	c0-23.3,0-46.5,0-69.9c0-0.2,0-0.3,0-0.4c-0.2-2.8,0.9-3,3.6-2.6c0.8,0.1,1.2,0.8,1.3,1.6c0.1,0.6,0,1.2,0,1.8c0,21.2,0,42.3,0,63.4
	c0,0.9,0.1,1.8,0.2,2.7c0.2,1,0.7,1.5,1.7,1.7c0.8,0.1,1.6,0.2,2.4,0.2c43.2,0,86.5,0,129.7,0c0.8,0,1.6-0.1,2.4-0.2
	c1.2-0.2,1.6-0.9,1.8-2c0.1-0.4,0-0.9,0-1.4c0-21.4,0-42.8,0-64.2c0-0.6,0.1-1.2,0.2-1.9c0.4-1.5,1.4-2.4,2.7-2.2
	c1.6,0.2,2.3,1,2.3,2.8c0,23.4,0,46.8,0,70.1c0,0.2,0,0.4,0,0.6c-0.2,2.5-1.2,3.6-3.7,3.6c-11,0-22.2,0-33.2,0
	C185.3,162.4,173.2,162.4,161.1,162.4z"/>
<path class="st0" d="M190.8,16.5c1.7-0.3,3.2-0.4,4.8-0.7c3.6-0.5,7.2-1.1,10.9-1.6c4.6-0.7,9.3-1.3,14-2c1.8-0.3,3.5-0.5,5.3-0.8
	c2.3-0.4,3.3,0.2,3.7,2.5c0.7,4.4,1.3,8.7,2,13.2c0.2,1,0.2,1.9,0.2,2.8c0,1.5-0.4,2.1-2,2.5c-2,0.4-3.9,0.7-5.9,1
	c-5.3,0.8-10.7,1.6-16,2.5c-2,0.3-4,0.6-6,0.9c-1.2,0.2-2.1-0.4-2.6-1.4c-2.8-6-5.4-11.9-8.2-17.9C191,17.2,191,17,190.8,16.5z"/>
<path class="st0" d="M105,80.8c-1.8,0-3.5,0-5.3,0c-4.1-0.1-8.1-0.1-12.2-0.2c-1.7,0-2.1-0.3-2.1-2c-0.1-5.7,0-11.5,0-17.2
	c0-1,0.2-2,1.5-2.2c2-0.3,2.8,0.1,3.6,1.6c1.9,3.9,5.1,5.8,9.3,6.2c5.3,0.5,9.2-1.6,11.7-6.1c0.7-1.2,1.6-1.8,3-1.8
	c2.6,0.1,5.2,0,7.7,0c1.5,0,1.8,0.4,1.3,1.9c-0.9,2.8-1.8,5.6-2.6,8.5c-0.9,3-1.8,6-2.6,9c-0.5,1.9-1.2,2.3-3,2.3
	C111.9,80.8,108.5,80.8,105,80.8z"/>
<path class="st0" d="M217.7,80.8c-4.8,0-9.5,0-14.3,0c-1.4,0-1.6-0.2-1.2-1.5c1.6-5.3,3.3-10.7,5-15.9c0.2-0.5,0.4-1,0.5-1.5
	c0.6-1.8,2-2.5,3.6-2.5c6.2,0,12.5-0.1,18.8,0c2.5,0,4,1.6,4,4.3c0.1,5.2,0,10.4,0,15.6c0,1.2-0.5,1.7-2,1.7c-3.2,0-6.5,0-9.7,0
	C220.9,80.8,219.3,80.8,217.7,80.8z"/>
<path class="st0" d="M85.2,44.8c0-3,0-6,0-9c0-2,1.8-3.8,4.3-4.2c5.3-0.9,10.8-1.7,16.1-2.5c1-0.2,2,0.5,2.7,1.8
	c1.6,3.2,3.1,6.4,4.7,9.6c0.8,1.7,1.6,3.5,2.4,5.3c0.2,0.4,0.3,0.6,0.4,1c0.7,2,0.2,2.8-1.9,2.7c-1.2-0.1-2.1-0.4-2.9-1.6
	c-2.6-3.6-6.2-5.3-10.7-5c-5.1,0.4-8.6,2.8-10.3,7.7c-0.2,0.4-0.4,1-0.5,1.4c-0.7,1.9-1.1,2-3,2c-0.8,0-1.1-0.4-1.1-1.1"/>
<path class="st0" d="M142.7,80.8c-2.6,0-5.2,0-7.7,0c-0.8,0-1-0.3-0.8-1.1c1.6-5.6,3.3-11.2,4.9-16.7c0-0.1,0.1-0.2,0.1-0.3
	c1.1-2.9,1.8-3.5,4.9-3.5c4.1,0,8.1,0,12.2,0c1.6,0,2,0.4,1.4,2c-1.8,6-3.6,11.9-5.3,17.9c-0.4,1.3-1.1,1.8-2.4,1.8
	C147.6,80.8,145.1,80.8,142.7,80.8z"/>
<path class="st0" d="M184,39.3c-2.6,0.4-5,0.8-7.5,1.2c-2.8,0.4-5.7,0.9-8.5,1.3c-1.2,0.2-1.8,0-2.4-1.2c-1.1-2.2-2.1-4.4-3.2-6.8
	c-1.5-3.2-3-6.4-4.5-9.6c-0.1-0.1-0.1-0.2-0.2-0.3c-0.8-1.8-0.4-2.4,1.5-2.7c3.5-0.5,6.9-1.1,10.3-1.6c1.2-0.2,2.4-0.3,3.6-0.4
	c1,0,1.7,0.4,2.2,1.3c2.8,5.9,5.5,11.7,8.3,17.5C183.8,38.5,183.8,38.9,184,39.3z"/>
<path class="st0" d="M176.6,80.8c-2.4,0-4.8,0-7.1,0c-1.3,0-1.5-0.3-1.2-1.5c1.8-6.1,3.6-12.1,5.3-18.2c0.4-1.4,1.1-1.9,2.6-1.9
	c4.8,0,9.5,0,14.3,0c1.5,0,1.7,0.3,1.2,1.7c-1.8,6-3.6,11.9-5.5,17.9c-0.4,1.5-1.2,2-2.8,2C181.2,80.8,178.9,80.8,176.6,80.8z"/>
<path class="st0" d="M123.7,26.8c4.3-0.7,8.5-1.5,12.7-2.2c0.8-0.2,1.7-0.2,2.6-0.3c1.3-0.2,2.2,0.4,2.8,1.6
	c1.5,2.9,2.9,5.9,4.4,8.9c1.3,2.8,2.7,5.7,3.9,8.5c0.1,0.2,0.2,0.4,0.4,0.9c-1.9,0.4-3.7,0.7-5.6,1.1c-3.3,0.5-6.6,1-9.9,1.4
	c-1,0.2-2.3-0.4-2.8-1.3c-2.8-6-5.7-12.1-8.5-18.2C123.7,27.1,123.7,27,123.7,26.8z"/>
<path class="st0" d="M93.6,55.1c0-3.9,3.7-7.7,7.7-7.6c4.8,0.2,7.5,3.5,7.4,7.7c-0.1,3.7-2.9,7.2-7.6,7.2
	C96.5,62.3,93.2,58.2,93.6,55.1z"/>
<path class="st0" d="M161.3,42.3c0.2,0.6-0.6,0.6-1,0.7c-1.1,0.3-2.2,0.5-3.4,0.6c-0.9,0.1-1.9-0.2-2.3-1.2
	c-2.8-6-5.5-11.8-8.3-17.8c-0.4-1.1-0.3-1.2,0.9-1.4c1-0.2,2-0.4,3-0.5c1.3-0.3,1.9,0,2.5,1.3c2,4.1,3.8,8.2,5.8,12.3"/>
<path class="st0" d="M190.8,38.5c-1.3,0-2-0.4-2.5-1.3c-2.8-5.8-5.4-11.7-8.2-17.4c-0.6-1.3-0.5-1.3,0.8-1.7c1.1-0.3,2-0.4,3.1-0.6
	c1-0.2,1.7,0.2,2.1,1.1c2.8,6,5.7,11.9,8.5,17.9c0.5,1.1,0.4,1.3-0.8,1.5C192.8,38.1,191.7,38.3,190.8,38.5z"/>
<path class="st0" d="M193.7,81.1c-0.5-0.1-1.5-0.3-2.3-0.6c-0.3-0.1-0.5-0.7-0.4-0.9c1.8-6.1,3.6-12.4,5.5-18.5c0.3-1,2-2,2.9-2
	c1.6,0,1.9,0.1,2.8,0.2c0.9,0.1,1.2,0.4,1,1.3c-1.2,3.6-2.2,7.3-3.4,10.9c-0.6,2.1-1.2,4.3-1.9,6.3
	C197.3,79.7,196.2,81.1,193.7,81.1z"/>
<path class="st0" d="M156.4,80.9c1.2-4.1,2.4-7.8,3.6-11.7c0.9-2.8,1.7-5.6,2.5-8.4c0.4-1.3,0.7-1.6,2.1-1.6c1.5,0,2.9,0,4.6,0
	c-0.4,1.5-0.8,2.9-1.2,4.4c-1.6,5.2-3.1,10.3-4.7,15.5c-0.4,1.2-1.1,1.8-2.4,1.8C159.5,81,158,80.9,156.4,80.9z"/>
<path class="st0" d="M126.4,80.8c-0.5,0-1,0-1.5,0c-1.1-0.1-1.7-1-1.4-2c1.8-6,3.6-11.9,5.3-17.8c0.4-1.2,1.2-1.6,2.2-1.7
	c0.9-0.1,1.7-0.2,2.6-0.2c1.4,0,1.8,0.5,1.4,1.9c-0.4,1.5-0.9,3.1-1.3,4.6c-1.2,4.1-2.3,8.2-3.6,12.3c0,0.1,0,0.2-0.1,0.2
	C129.4,80.4,128.9,80.8,126.4,80.8z"/>
<path class="st0" d="M112.4,28.4c1.8-0.2,3.3-0.5,4.9-0.5c0.6,0,1.5,0.5,1.8,1.1c2.9,6.1,5.8,12.4,8.6,18.6c0,0.1,0.1,0.3,0.2,0.5
	c-1.8,0.3-3.5,0.6-5.3,0.8c-0.8,0.1-1-0.7-1.2-1.2c-2-4.4-4.1-8.8-6.1-13.3C114.3,32.4,113.5,30.5,112.4,28.4z"/>
<path class="st0" d="M180.1,118.9c-10.9,6.1-21.4,12.1-32,18.2c0-12.2,0-24.1,0-36.3C158.7,106.8,169.2,112.9,180.1,118.9z"/>
<g class="st1">
	<path class="st0" d="M25.7,213.2c0.7-0.1,1.4-0.2,2.1-0.4v-7.9c0-0.9,0.4-1.3,1.3-1.3h8.3c0.2,0,0.5,0.1,0.8,0.2s0.4,0.5,0.4,1.1
		v14.4c0,0.3,0,0.6-0.1,0.8c-0.1,0.2-0.3,0.4-0.6,0.6c-1.8,1.2-3.9,2.1-6.4,2.7c-2.4,0.6-5,1-7.7,1c-3.2,0-6.1-0.6-8.9-1.8
		c-2.8-1.2-5.2-2.8-7.3-4.9c-2.1-2.1-3.7-4.5-4.9-7.3c-1.2-2.8-1.8-5.8-1.8-8.9s0.6-6.1,1.8-8.9s2.8-5.2,4.9-7.2
		c2.1-2,4.5-3.7,7.3-4.8c2.8-1.2,5.7-1.8,8.9-1.8c2.7,0,5.1,0.4,7.2,1.1c2.1,0.7,4,1.7,5.8,3.1c0.3,0.2,0.5,0.5,0.6,0.8
		c0.1,0.3,0,0.6-0.2,0.9l-5,7c-0.2,0.4-0.5,0.5-0.9,0.5c-0.3,0-0.6-0.1-0.9-0.3c-0.9-0.6-1.9-1.2-3-1.6c-1.1-0.4-2.3-0.6-3.6-0.6
		c-1.7,0-3.3,0.3-4.7,0.9c-1.4,0.6-2.6,1.5-3.6,2.5c-1,1.1-1.7,2.3-2.3,3.7c-0.5,1.4-0.8,3-0.8,4.6c0,1.6,0.3,3.2,0.8,4.6
		c0.6,1.5,1.3,2.7,2.3,3.8c1,1.1,2.2,1.9,3.5,2.6c1.3,0.6,2.8,0.9,4.5,0.9C24.3,213.3,25,213.3,25.7,213.2z"/>
	<path class="st0" d="M46.1,187c0-0.9,0.4-1.4,1.3-1.4h5.1c0.4,0,0.9,0.1,1.2,0.2c0.4,0.2,0.7,0.6,1,1.3l1.3,3.3
		c0.6-0.7,1.2-1.3,1.8-2s1.2-1.2,1.9-1.7c0.7-0.5,1.5-0.9,2.4-1.2c0.9-0.3,1.9-0.4,3.1-0.4c1.3,0,2.4,0.2,3.6,0.6
		c1.2,0.4,2.2,0.9,3.2,1.4c0.9,0.5,1.7,1.1,2.4,1.6s1.1,0.9,1.4,1.1c0.5,0.4,0.8,0.9,0.8,1.2c0,0.4-0.2,0.8-0.4,1.2l-3.9,5.5
		c-0.3,0.4-0.6,0.6-0.9,0.6c-0.3,0-0.6-0.2-1-0.4c-0.3-0.2-0.6-0.5-1-0.9s-0.8-0.6-1.3-0.9c-0.5-0.3-1.1-0.6-1.7-0.8
		c-0.6-0.2-1.3-0.3-2.2-0.3c-0.9,0-1.8,0.1-2.6,0.4s-1.5,0.7-2.1,1.3c-0.6,0.6-1.1,1.3-1.5,2.1c-0.4,0.9-0.5,1.8-0.5,2.9v20.5
		c0,0.9-0.4,1.3-1.4,1.3h-8.8c-0.9,0-1.3-0.4-1.3-1.3L46.1,187L46.1,187z"/>
	<path class="st0" d="M106.3,211.2c0.4,0,0.6,0.2,0.9,0.4l3.8,5.3c0.3,0.4,0.4,0.8,0.4,1.1s-0.2,0.6-0.5,0.9c-1.3,1.1-2.5,2-3.7,2.7
		c-1.2,0.7-2.4,1.3-3.6,1.7c-1.2,0.4-2.4,0.6-3.5,0.8c-1.2,0.2-2.3,0.2-3.5,0.2c-2.6,0-5-0.5-7.4-1.5c-2.4-1-4.4-2.4-6.3-4.2
		c-1.8-1.7-3.2-3.8-4.3-6.2c-1.1-2.4-1.6-4.9-1.6-7.6c0-2.7,0.4-5.2,1.4-7.6c0.9-2.4,2.2-4.4,3.9-6.2c1.7-1.8,3.7-3.2,6.1-4.2
		c2.4-1,5-1.5,7.8-1.5c1.2,0,2.4,0.2,3.8,0.4c1.3,0.3,2.7,0.8,4,1.5c1.3,0.6,2.6,1.5,3.8,2.5c1.2,1,2.3,2.3,3.2,3.7
		c0.9,1.4,1.6,3.1,2.2,4.9c0.6,1.8,0.8,3.9,0.8,6.2c0,0.8-0.1,1.5-0.2,1.9c-0.2,0.5-0.4,0.9-0.8,1.1s-0.8,0.4-1.4,0.5
		c-0.6,0.1-1.3,0.1-2.1,0.1H88c0.3,1,0.7,1.9,1.3,2.7c0.5,0.8,1.2,1.5,1.9,2.1c0.7,0.6,1.6,1,2.5,1.3c0.9,0.3,1.9,0.4,2.8,0.4
		c1.4,0,2.6-0.1,3.5-0.3c0.9-0.2,1.7-0.5,2.4-0.9c0.6-0.3,1.2-0.7,1.7-1.1s0.9-0.8,1.4-1.1C105.8,211.3,106.1,211.2,106.3,211.2z
		 M93.6,194.7c-0.7,0.3-1.4,0.7-2.1,1.2c-0.6,0.5-1.2,1.1-1.7,1.7c-0.5,0.6-0.9,1.4-1.3,2.2h15.1c-0.8-1.7-1.8-3.1-3.2-4.1
		s-2.8-1.4-4.6-1.4C95.1,194.3,94.3,194.5,93.6,194.7z"/>
	<path class="st0" d="M120.6,175.9c0-0.5,0.1-0.8,0.4-1.1s0.6-0.3,1.1-0.3h8.4c0.4,0,0.8,0.1,1,0.4c0.3,0.2,0.4,0.6,0.4,1v46.4
		c0,0.4-0.1,0.8-0.4,1c-0.2,0.2-0.6,0.4-1.1,0.4H122c-0.4,0-0.8-0.1-1.1-0.3c-0.2-0.2-0.4-0.6-0.4-1.1V175.9z"/>
	<path class="st0" d="M139.4,197.2c1-2.4,2.4-4.4,4.2-6.2c1.8-1.8,3.9-3.2,6.3-4.2c2.4-1,5-1.5,7.6-1.5c2.7,0,5.3,0.5,7.7,1.5
		c2.4,1,4.5,2.4,6.3,4.2c1.8,1.8,3.2,3.9,4.2,6.2c1,2.4,1.5,4.9,1.5,7.6c0,2.7-0.5,5.2-1.5,7.6c-1.1,2.4-2.4,4.5-4.2,6.2
		c-1.8,1.8-3.9,3.2-6.3,4.2c-2.4,1-5,1.5-7.6,1.5c-2.7,0-5.3-0.5-7.6-1.5c-2.4-1-4.5-2.4-6.3-4.2c-1.8-1.7-3.2-3.8-4.2-6.2
		c-1-2.4-1.5-4.9-1.5-7.6C137.9,202.1,138.4,199.5,139.4,197.2z M149.5,208.4c0.4,1.1,1,2.2,1.8,3c0.8,0.9,1.7,1.5,2.7,2.1
		c1.1,0.5,2.3,0.8,3.6,0.8c1.3,0,2.5-0.2,3.5-0.8c1.1-0.5,2-1.2,2.7-2.1c0.8-0.9,1.3-1.9,1.8-3c0.4-1.1,0.6-2.4,0.6-3.6
		c0-1.3-0.2-2.5-0.6-3.6c-0.4-1.1-1-2.2-1.7-3c-0.8-0.9-1.7-1.5-2.7-2.1c-1.1-0.5-2.2-0.8-3.5-0.8c-1.3,0-2.5,0.2-3.6,0.8
		c-1.1,0.5-2,1.2-2.8,2.1c-0.8,0.9-1.4,1.9-1.8,3c-0.4,1.1-0.6,2.4-0.6,3.7C148.9,206.1,149.1,207.3,149.5,208.4z"/>
	<path class="st0" d="M207.5,187c0-0.5,0.1-0.8,0.4-1.1c0.2-0.2,0.6-0.3,1.1-0.3h8.6c0.9,0,1.4,0.4,1.4,1.4v35.3
		c0,0.9-0.4,1.4-1.4,1.4h-5.5c-0.5,0-0.9-0.2-1.3-0.5c-0.4-0.3-0.7-0.7-0.8-1.2l-0.9-3.3c-0.8,1.1-1.7,1.9-2.6,2.7
		c-0.9,0.7-1.9,1.3-3,1.7c-1,0.4-2.1,0.8-3.2,0.9c-1.1,0.2-2.2,0.3-3.2,0.3c-0.8,0-1.7-0.1-2.8-0.3s-2.1-0.5-3.1-1
		c-1.1-0.4-2.1-1.1-3-1.9c-1-0.8-1.9-1.8-2.6-3c-0.8-1.2-1.4-2.7-1.8-4.3c-0.4-1.7-0.7-3.7-0.7-5.9v-21c0-0.9,0.4-1.4,1.4-1.4h8.4
		c0.9,0,1.4,0.4,1.4,1.4v20.2c0,0.9,0.2,1.7,0.5,2.5s0.8,1.5,1.4,2.1c0.6,0.6,1.3,1.1,2.2,1.4c0.9,0.4,1.8,0.5,2.8,0.5
		c0.5,0,1.1-0.1,1.9-0.3c0.7-0.2,1.5-0.5,2.1-1c0.7-0.5,1.3-1.2,1.7-2s0.7-1.9,0.7-3.2V187z"/>
	<path class="st0" d="M226.1,187c0-0.4,0.1-0.8,0.4-1c0.2-0.2,0.6-0.3,1-0.3h6.3c0.3,0,0.6,0.1,0.8,0.2s0.4,0.4,0.5,0.6
		c0.1,0.2,0.2,0.5,0.3,0.8c0.1,0.3,0.1,0.6,0.2,0.8l0.6,2.6c1.3-1.6,2.9-2.9,4.7-3.9c1.8-1,4-1.5,6.4-1.5c2.5,0,4.9,0.4,7.1,1.4
		c2.2,0.9,4.1,2.2,5.7,3.9c1.6,1.7,2.9,3.7,3.9,6.1c0.9,2.4,1.4,5,1.4,8c0,2.7-0.4,5.2-1.3,7.6c-0.9,2.4-2.1,4.5-3.7,6.2
		c-1.6,1.8-3.5,3.2-5.8,4.2c-2.2,1-4.8,1.5-7.5,1.5c-1.9,0-3.7-0.4-5.4-1.1c-1.7-0.7-3-1.7-4.3-2.8V234c0,0.9-0.4,1.3-1.3,1.3h-8.7
		c-0.4,0-0.8-0.1-1-0.3c-0.2-0.2-0.4-0.6-0.4-1L226.1,187L226.1,187z M237.3,208.2c0.4,1.1,1,2.1,1.7,3c0.8,0.9,1.7,1.6,2.8,2.1
		c1.1,0.5,2.4,0.8,3.8,0.8c1.4,0,2.7-0.2,3.8-0.7c1.1-0.5,2.1-1.1,2.9-2c0.8-0.9,1.4-1.8,1.9-3c0.4-1.1,0.6-2.4,0.6-3.7
		s-0.2-2.6-0.6-3.7c-0.4-1.2-1-2.2-1.7-3c-0.8-0.9-1.7-1.5-2.8-2c-1.1-0.5-2.4-0.7-3.9-0.7c-1.3,0-2.5,0.3-3.6,0.8
		c-1.1,0.6-2,1.3-2.8,2.2c-0.8,0.9-1.4,1.9-1.9,3c-0.4,1.1-0.6,2.3-0.6,3.5C236.7,206,236.9,207.1,237.3,208.2z"/>
	<path class="st0" d="M271.6,173.2c0-0.7,0.2-1.3,0.5-1.8c0.4-0.5,1-0.7,1.9-0.7h6.9c0.8,0,1.4,0.2,1.7,0.6c0.3,0.4,0.5,1.1,0.5,1.8
		v5.6c0,0.9-0.2,1.4-0.6,1.7c-0.4,0.3-0.9,0.4-1.7,0.4h-6.9c-0.7,0-1.3-0.2-1.8-0.4c-0.4-0.3-0.7-0.9-0.7-1.7L271.6,173.2
		L271.6,173.2z M271.7,187c0-0.4,0.1-0.8,0.4-1s0.6-0.3,0.9-0.3h8.9c0.4,0,0.7,0.1,0.9,0.4s0.4,0.6,0.4,0.9v35.5
		c0,0.9-0.4,1.3-1.3,1.3H273c-0.9,0-1.3-0.4-1.3-1.3V187z"/>
	<path class="st0" d="M289.3,217.5c-0.1-0.2-0.2-0.4-0.3-0.6c0-0.2,0-0.4,0.1-0.7c0.1-0.2,0.2-0.5,0.5-0.8l4.2-4.1
		c0.2-0.2,0.5-0.4,0.8-0.4c0.3,0,0.7,0.2,1.1,0.6c0.5,0.4,1,0.9,1.6,1.3c0.6,0.4,1.1,0.8,1.8,1.1c0.6,0.3,1.3,0.6,1.9,0.7
		c0.6,0.2,1.3,0.3,2,0.3c0.8,0,1.4-0.1,1.9-0.2c0.5-0.1,0.9-0.3,1.3-0.6s0.5-0.5,0.6-0.9s0.2-0.6,0.2-1.1c0-0.4-0.1-0.8-0.2-1.1
		c-0.2-0.3-0.4-0.6-0.9-0.9c-0.4-0.2-1-0.5-1.8-0.8s-1.7-0.6-3-0.9c-1.9-0.6-3.6-1.2-5-2c-1.4-0.8-2.5-1.7-3.5-2.7
		c-0.9-1.1-1.6-2.2-2-3.6c-0.4-1.3-0.6-2.8-0.6-4.5c0-1.5,0.3-3,0.9-4.3c0.6-1.3,1.5-2.4,2.8-3.4s2.7-1.7,4.5-2.2
		c1.8-0.5,3.8-0.8,6-0.8c1.7,0,3.2,0.2,4.4,0.5c1.3,0.4,2.4,0.8,3.3,1.3c0.9,0.5,1.8,1.1,2.5,1.7c0.7,0.6,1.4,1.2,2,1.8
		c0.4,0.4,0.6,0.7,0.6,1.1c0,0.4-0.2,0.7-0.7,1.2l-4.6,4c-0.4,0.3-0.7,0.4-1,0.4c-0.3,0-0.6-0.2-1-0.5c-0.4-0.3-0.7-0.6-1.1-0.9
		c-0.4-0.3-0.8-0.5-1.2-0.8c-0.4-0.2-0.9-0.4-1.4-0.5c-0.5-0.1-1.1-0.2-1.7-0.2c-1.2,0-2.1,0.2-2.6,0.6c-0.6,0.4-0.9,0.8-0.9,1.3
		s0.1,0.9,0.4,1.1c0.3,0.3,0.7,0.5,1.3,0.8c0.6,0.2,1.4,0.5,2.4,0.8c1,0.3,2.2,0.6,3.7,1.1c2,0.6,3.6,1.4,4.9,2.4
		c1.3,0.9,2.2,1.9,2.9,3c0.7,1.1,1.1,2.2,1.4,3.4c0.2,1.2,0.4,2.3,0.4,3.5c0,2-0.4,3.7-1.2,5.2c-0.8,1.5-1.9,2.8-3.2,3.9
		c-1.3,1.1-2.9,1.8-4.7,2.4s-3.5,0.8-5.4,0.8c-1.3,0-2.5-0.1-3.8-0.3s-2.5-0.5-3.7-1s-2.4-1.1-3.5-1.9c-1.1-0.8-2.2-1.9-3.2-3.1
		C289.5,217.9,289.4,217.8,289.3,217.5z"/>
</g>
</svg>
