<?xml version="1.0" encoding="utf-8"?>
<!-- Generator: Adobe Illustrator 24.1.3, SVG Export Plug-In . SVG Version: 6.00 Build 0)  -->
<svg version="1.1" id="图层_1" xmlns="http://www.w3.org/2000/svg" xmlns:xlink="http://www.w3.org/1999/xlink" x="0px" y="0px"
	 viewBox="0 0 983 180.2" style="enable-background:new 0 0 983 180.2;" xml:space="preserve">
<style type="text/css">
	.st0{fill:#FFFFFF;}
</style>
<g>
	<path class="st0" d="M983,118.6c-0.4,2.1-0.7,4.2-1.1,6.3c-1.9,10.6-8.3,17.3-18.2,21.1c-4.8,1.8-9.7,2.6-14.8,2.9
		c-6.8,0.3-13.6-0.2-20-2.6c-6.6-2.5-12.1-6.5-16.6-11.8c-0.4-0.5-0.8-0.9-1.1-1.4c-1.7-2.6-1.8-4.8,0.2-7.3c1.9-2.2,4-4.3,6-6.3
		c0.8-0.8,1.7-1.5,2.7-2.2c2.2-1.5,4.6-1.8,7-0.6c1.4,0.7,2.7,1.5,4,2.4c5.6,4,11.8,5.2,18.4,4.5c3.5-0.4,5.4-2.6,5.3-5.8
		c0-2-1.3-3.4-2.9-4.2c-3.2-1.6-6.4-3-9.7-4.3c-4.4-1.7-9-3-13.2-5C918.2,99.1,912.7,89,913.5,77c0.4-5,1.5-9.6,4.3-13.8
		c3.3-4.9,7.9-8.1,13.5-9.9c7.8-2.5,15.8-3.6,24-2.2c8.4,1.4,15.4,5.5,21.3,11.7c2.3,2.4,2.4,5.2,0.2,7.7c-2.6,3-5.8,5.5-9.3,7.5
		c-2.1,1.2-4.3,1.1-6.5,0.3c-1.7-0.6-3.3-1.3-4.9-2.2c-3.2-1.7-6.6-2.8-10.3-2.4c-2.7,0.2-4.2,1.4-4.7,3.8c-0.5,2.3,0.5,4,2.9,5.2
		c0.7,0.3,1.5,0.6,2.2,0.8c7.6,2.3,15.2,4.8,22.2,8.6c2.5,1.4,5,2.9,7.2,4.7c4.4,3.4,6.6,8.1,7.2,13.6c0,0.3,0.2,0.6,0.2,0.9
		C983,113.8,983,116.2,983,118.6z"/>
	<path class="st0" d="M88.7,88.6c23.2,0,46.5,0,69.7,0c2.4,0,2.8,0,2.8,2.8c0,23.2,0,46.3,0,69.5c0,2.8-0.1,2.9-2.9,2.9
		c-46.3,0-92.6,0-138.9,0c-0.2,0-0.5,0-0.7,0c-2.4-0.1-2.9-0.7-2.9-3.1c0-23,0-46,0-69c0-0.6,0.1-1.2,0.2-1.8
		c0.1-0.8,0.7-1.2,1.5-1.3c0.6,0,1.2,0,1.8,0C42.4,88.6,65.5,88.6,88.7,88.6z M70.7,131.3L70.7,131.3c0,6,0,12.1,0,18.1
		c0,0.8,0.1,1.6,0.2,2.4c0.2,1.1,1,1.5,2.1,1.2c0.6-0.2,1.2-0.4,1.8-0.8c2.5-1.4,4.9-2.8,7.4-4.2c10.9-6.2,21.8-12.3,32.6-18.5
		c0.9-0.5,1.8-1.1,2.5-1.8c1-0.9,1-1.9,0-2.8c-0.6-0.6-1.3-1.1-2-1.5c-10.6-6.1-21.3-12.2-32-18.2c-3-1.7-5.9-3.3-8.9-4.9
		c-2.4-1.3-3.6-0.6-4,2c-0.1,0.4,0,0.8,0,1.2c0.1,3.3,0.2,6.6,0.2,9.9C70.7,119.5,70.7,125.4,70.7,131.3z"/>
	<path class="st0" d="M784.1,137c-0.1,2.1-0.3,4-0.4,5.8c0,8.1,0,16.2,0,24.2c0,1.1-0.1,2.2-0.3,3.3c-0.6,3.1-2.4,5-5.6,5
		c-5.9,0.1-11.8,0-17.7-0.3c-3.1-0.1-4.7-1.9-4.9-5.1c-0.2-4.3-0.1-8.7-0.2-13.1c0-0.6,0-1.2,0-1.8c0-31.6,0-63.3,0-94.9
		c0-1.3,0.1-2.6,0.3-3.8c0.4-2.5,1.6-3.9,4.1-4c3.9-0.3,7.8-0.4,11.7-0.3c2,0,3.7,1.2,4.7,2.9c1.6,2.8,3.1,5.7,4.6,8.6
		c0.8,1.5,0.8,1.6,1.9,0.2c4.5-6.1,10.1-10.6,17.7-12.4c6.4-1.5,12.7-0.8,18.8,1c18.5,5.4,29.4,18.1,33.3,36.5
		c3.7,17.5-1.2,33.1-13.7,45.9c-8.1,8.3-18.2,12.4-29.8,13.1c-7.1,0.4-13.2-1.4-18.7-6c-1.5-1.2-3-2.4-4.5-3.6
		C785.3,138,784.8,137.6,784.1,137z M805,122.9c6.3,0,12-2.7,15.8-7.7c6.5-8.4,6.8-21.6,0.6-30.2c-4-5.5-9.4-8.5-16.2-8.6
		c-13.5-0.2-25,12.4-23,26.2C783.8,114,793.7,122.9,805,122.9z"/>
	<path class="st0" d="M277.1,68.6c-4.9-1.6-9.5-3.3-14.3-4.6c-5.4-1.5-10.8-1.9-16.2,0.2c-7,2.7-11.8,7.8-14.6,14.6
		c-4.4,10.7-3.9,21.3,3,30.9c6.3,8.8,15.3,11.9,25.9,10.4c1.8-0.3,3.7-0.8,5.5-1.2c0.7-0.1,0.9-0.4,0.9-1.1c0-5,0-9.9-0.1-14.9
		c0-0.5,0-1,0-1.6c0.1-2.7,1.5-4.3,4.2-4.6c1.2-0.1,2.5-0.1,3.7-0.1c4,0,8.1,0,12.1,0c0.1,0,0.2,0,0.2,0c4.7-0.4,6.9,1.6,7,6.3
		c0,1.7-0.1,3.4-0.1,5c0,5.7,0.1,11.4,0.1,17c0,2.6,0,5.2-0.3,7.8c-0.3,3.6-1.9,6.4-5.4,8c-8.1,3.8-16.5,6.6-25.5,7.4
		c-11.3,1-21.9-1.2-31.8-6.5c-12.9-6.9-22.4-16.9-27.4-30.8c-4.4-12-4-24.1-0.3-36.2c3.5-11.5,9.6-21.2,19.4-28.4
		c8.1-6,17.3-9.4,27.2-10.9c13.1-1.9,25.2,0.8,36.4,7.7c0.9,0.6,1.8,1.2,2.6,1.9c1.6,1.4,1.9,3.1,1,5c-0.3,0.6-0.6,1.2-1,1.7
		c-3.8,5.3-7.6,10.6-11.4,15.8C277.6,67.9,277.3,68.3,277.1,68.6z"/>
	<path class="st0" d="M415.5,108.4c0.6,6.7,5,13.7,13.8,15.4c8.8,1.7,16.8,0,24-5.5c3.5-2.7,6.2-2.7,9.3,0.5
		c2.4,2.4,4.6,4.9,6.5,7.6c2.8,3.9,2.3,7.2-1.5,10c-7.6,5.7-16,9.8-25.5,11.2c-13.7,2-25.6-2.4-36.3-10.7
		c-7.6-5.9-13.5-13.2-16.6-22.4c-3-8.9-3-18-0.9-27.1c2.2-9.7,6.4-18.5,14.1-25.1c20-17.3,49.5-16.4,67.3,6.6
		c6.1,7.9,9.3,16.9,9.4,26.9c0,2.2-0.2,4.4-0.5,6.6c-0.6,3.2-2.5,4.8-5.7,5.1c-2.5,0.2-4.9,0.2-7.4,0.2c-12.8,0-25.5-0.1-38.3,0
		C423.3,107.8,419.4,108.1,415.5,108.4z M417.2,86.6c11.6,0,23.1,0,35,0c-1.2-1.8-2.3-3.5-3.5-5.1c-3.9-5-8.8-8-15.4-7.8
		C426.4,73.9,418.9,79.8,417.2,86.6z"/>
	<path class="st0" d="M634.3,100.1c0,26.2-21.5,48-47.2,48.3c-26.7,0.4-49.7-20.3-49.7-48.6c0-27,21.9-49.3,49.1-48.7
		C613,51.7,634.1,71.9,634.3,100.1z M564.6,98.7c0,4.3,0.6,7.9,2,11.4c5.9,14.5,25.1,17.2,34.7,4.9c6.1-7.8,6.5-20.4,1.1-29.2
		c-6.9-11-22.2-12.8-31.4-3.6C566.4,86.9,564.7,92.8,564.6,98.7z"/>
	<path class="st0" d="M712.4,133c-2.1,2.4-4.1,4.8-6.3,7c-8.6,8.2-18.9,9.9-29.9,6.6c-15-4.5-23.7-14.9-26.4-30.3
		c-0.8-4.5-0.7-9.2-0.8-13.9c-0.1-14.5-0.2-29-0.2-43.4c0-0.6,0-1.2,0.1-1.8c0.5-3.3,2.3-4.9,5.7-4.9c2.7,0,5.4,0,8.2,0.1
		c2.7,0,5.4,0,8.1,0.1c3.9,0.1,5.5,1.7,5.7,5.6c0.1,1.7,0.2,3.4,0.2,5c0,13.6,0,27.1,0,40.7c0,5.1,1.5,9.7,5.2,13.2
		c6.6,6.3,16.5,5.6,22.5-1.5c2.9-3.4,4.4-7.4,4.4-11.9c0.1-11.5,0.1-23,0.1-34.4c0-3-0.1-6-0.1-9c0-1,0.1-2.1,0.3-3.1
		c0.6-3.3,2.7-5.1,6.2-5.1c4.2,0,8.3,0.1,12.5,0.1c1.2,0,2.5-0.1,3.7,0c3.1,0.3,4.9,2,5.3,5.1c0.2,1,0.2,2.1,0.2,3.1
		c0,26.1,0,52.2,0,78.2c0,0.6,0,1.3-0.1,1.9c-0.6,3.8-2.4,5.7-6.3,6.1c-2.7,0.3-5.4,0.4-8.1,0.5c-3.1,0.1-5.5-1.2-6.7-4.1
		c-1.2-2.8-2.2-5.7-3.3-8.6C712.7,133.8,712.5,133.3,712.4,133z"/>
	<path class="st0" d="M338.3,65.7c1.4-1.7,2.9-3.3,4.1-5c3.2-4.5,7.2-8,12.7-9.3c4.9-1.2,9.7-0.4,14.4,1.2c5.4,1.8,10,4.9,14.4,8.4
		c2.4,1.9,2.9,3.8,1.5,6.5c-2.3,4.4-4.8,8.7-7.5,12.9c-2,3.1-4.3,3.4-7.6,1.6c-1.8-1-3.6-2.3-5.4-3.3c-5.2-3-10.4-3.5-15.8-0.4
		c-5.6,3.3-8.6,8.1-8.6,14.8c0.1,14,0.2,28,0.2,42c0,1.5,0.1,3,0,4.6c-0.3,4.7-2.4,7.1-7,7.3c-5.4,0.2-10.8,0-16.2-0.4
		c-3.7-0.2-5.1-2-5.3-5.7c-0.1-3.2-0.1-6.4-0.1-9.6c0-23.4,0-46.8,0-70.2c0-1.4,0-2.7,0.3-4.1c0.3-1.9,1.5-3.3,3.4-3.9
		c3.9-1.2,7.9-1.6,12-0.8c3.9,0.8,6.2,3.4,7.7,6.9C336.4,61.4,337.3,63.5,338.3,65.7z"/>
	<path class="st0" d="M494.4,86.2c0-14.8,0-29.7,0-44.5c0-3.4,0-6.8,0-10.2c0-0.5,0.1-1,0.2-1.5c0.7-3.7,2.8-5.4,6.6-5.4
		c3.3,0,6.6,0.2,9.9,0.2c2,0,4-0.2,6,0c3.4,0.4,5.3,2.4,5.6,5.8c0.1,0.8,0.1,1.5,0.1,2.3c0,35.2,0,70.4,0,105.6c0,0.9,0,1.8-0.2,2.7
		c-0.7,3.7-2.7,5.7-6.8,5.8c-5.5,0.2-11,0-16.5-0.3c-3.3-0.2-4.5-1.8-4.9-5c-0.1-1.1-0.2-2.2-0.2-3.4c0-17.4,0-34.7,0-52.1
		C494.3,86.2,494.4,86.2,494.4,86.2z"/>
	<path class="st0" d="M867.6,99.5c0-12.7,0-25.4,0-38c0-1.4,0.1-2.9,0.3-4.3c0.4-2.7,1.8-4.3,4.5-4.6c6.2-0.6,12.5-0.8,18.8,0
		c3.2,0.4,4.6,2,5,5.2c0.2,1.2,0.2,2.5,0.3,3.7c0,14.3,0,28.6,0,43c0,9-0.1,17.9-0.1,26.9c0,2.6,0.1,5.1,0.1,7.7
		c0,5.1-2.2,7.6-7.2,7.8c-5.2,0.2-10.5,0.1-15.7-0.1c-3.7-0.1-5.2-1.8-5.7-5.4c-0.2-1.3-0.2-2.7-0.2-4.1
		C867.6,124.6,867.6,112,867.6,99.5z"/>
	<path class="st0" d="M90,175.1c-25.6,0-51.1,0-76.7,0c-1.6,0-3,0-4.6,0c-2,0-3.4-0.9-3.4-3c0-0.4,0-0.8,0-1.2c0-26.2,0-52.3,0-78.5
		c0-0.2,0-0.3,0-0.5c-0.2-3.1,1-3.4,4.1-2.9c0.9,0.1,1.4,0.9,1.5,1.8c0.1,0.7,0,1.4,0,2c0,23.8,0,47.5,0,71.3c0,1,0.1,2,0.2,3
		c0.2,1.1,0.8,1.7,1.9,1.9c0.9,0.1,1.8,0.2,2.7,0.2c48.6,0,97.2,0,145.8,0c0.9,0,1.8-0.1,2.7-0.2c1.3-0.2,1.8-1,2-2.2
		c0.1-0.5,0-1,0-1.6c0-24,0-48.1,0-72.1c0-0.7,0.1-1.4,0.2-2.1c0.4-1.7,1.6-2.7,3-2.5c1.8,0.2,2.6,1.1,2.6,3.1c0,26.3,0,52.6,0,78.8
		c0,0.2,0,0.5,0,0.7c-0.2,2.8-1.3,4-4.2,4c-12.4,0-24.9,0-37.3,0C117.2,175.1,103.6,175.1,90,175.1z"/>
	<path class="st0" d="M123.4,11.2c1.9-0.3,3.6-0.5,5.4-0.8c4.1-0.6,8.1-1.2,12.2-1.8c5.2-0.8,10.5-1.5,15.7-2.3
		c2-0.3,3.9-0.6,5.9-0.9c2.6-0.4,3.7,0.2,4.2,2.8c0.8,4.9,1.5,9.8,2.3,14.8c0.2,1.1,0.2,2.1,0.2,3.2c0,1.7-0.5,2.4-2.2,2.8
		c-2.2,0.5-4.4,0.8-6.6,1.1c-6,0.9-12,1.8-18,2.8c-2.2,0.3-4.5,0.7-6.7,1c-1.3,0.2-2.4-0.4-2.9-1.6c-3.1-6.7-6.1-13.4-9.2-20.1
		C123.6,12,123.6,11.7,123.4,11.2z"/>
	<path class="st0" d="M27,83.4c-2,0-3.9,0-5.9,0c-4.6-0.1-9.1-0.1-13.7-0.2C5.5,83.2,5,82.9,5,81c-0.1-6.4,0-12.9,0-19.3
		c0-1.1,0.2-2.3,1.7-2.5c2.3-0.3,3.2,0.1,4.1,1.8c2.1,4.4,5.7,6.5,10.4,7c5.9,0.6,10.3-1.8,13.2-6.9c0.8-1.3,1.8-2,3.4-2
		c2.9,0.1,5.8,0,8.6,0c1.7,0,2,0.4,1.5,2.1c-1,3.2-2,6.3-2.9,9.5c-1,3.4-2,6.7-2.9,10.1c-0.6,2.1-1.3,2.6-3.4,2.6
		C34.8,83.4,30.9,83.4,27,83.4z"/>
	<path class="st0" d="M153.6,83.4c-5.4,0-10.7,0-16.1,0c-1.6,0-1.8-0.2-1.3-1.7c1.8-6,3.7-12,5.6-17.9c0.2-0.6,0.4-1.1,0.6-1.7
		c0.7-2,2.2-2.8,4.1-2.8c7,0,14.1-0.1,21.1,0c2.8,0,4.5,1.8,4.5,4.8c0.1,5.8,0,11.7,0,17.5c0,1.4-0.6,1.9-2.3,1.9
		c-3.6,0-7.3,0-10.9,0C157.2,83.4,155.4,83.4,153.6,83.4z"/>
	<path class="st0" d="M881.9,41.5c-3.2-0.2-6.3-0.2-9.3-0.5c-3.2-0.3-4.8-1.7-4.9-5c-0.2-5.3-0.2-10.7,0.1-16c0.1-3.2,2-4.7,5.5-4.9
		c4.3-0.2,8.5-0.2,12.8-0.2c1.7,0,3.4,0.1,5,0.4c3.2,0.5,4.7,1.8,4.8,5c0.3,5.3,0.3,10.7,0.1,16c-0.1,3-1.7,4.4-4.7,4.7
		C888.1,41.3,884.9,41.4,881.9,41.5z"/>
	<path class="st0" d="M4.8,43c0-3.4,0-6.7,0-10.1c0-2.3,2-4.3,4.8-4.7c6-1,12.1-1.9,18.1-2.8c1.1-0.2,2.3,0.6,3,2
		c1.8,3.6,3.5,7.2,5.3,10.8c0.9,1.9,1.8,3.9,2.7,5.9c0.2,0.4,0.3,0.7,0.5,1.1c0.8,2.2,0.2,3.1-2.1,3c-1.4-0.1-2.4-0.5-3.3-1.8
		c-2.9-4.1-7-5.9-12-5.6c-5.7,0.4-9.7,3.2-11.6,8.7C10,50,9.8,50.6,9.6,51.1c-0.8,2.1-1.2,2.3-3.4,2.2c-0.9,0-1.2-0.4-1.3-1.2"/>
	<path class="st0" d="M69.4,83.4c-2.9,0-5.8,0-8.6,0c-0.9,0-1.1-0.3-0.9-1.2c1.8-6.3,3.7-12.6,5.5-18.8c0-0.1,0.1-0.2,0.1-0.3
		c1.2-3.3,2-3.9,5.5-3.9c4.6,0,9.1,0,13.7,0c1.8,0,2.2,0.4,1.6,2.2c-2,6.7-4,13.4-6,20.1c-0.4,1.5-1.2,2-2.7,2
		C74.9,83.4,72.1,83.4,69.4,83.4z"/>
	<path class="st0" d="M115.8,36.8c-2.9,0.4-5.6,0.9-8.4,1.3c-3.2,0.5-6.4,1-9.6,1.5c-1.4,0.2-2,0-2.7-1.3c-1.2-2.5-2.4-5-3.6-7.6
		c-1.7-3.6-3.4-7.2-5.1-10.8c-0.1-0.1-0.1-0.2-0.2-0.3c-0.9-2-0.5-2.7,1.7-3c3.9-0.6,7.7-1.2,11.6-1.8c1.3-0.2,2.7-0.3,4-0.4
		c1.1,0,1.9,0.4,2.5,1.5c3.1,6.6,6.2,13.2,9.3,19.7C115.5,35.9,115.6,36.3,115.8,36.8z"/>
	<path class="st0" d="M107.5,83.4c-2.7,0-5.4,0-8,0c-1.5,0-1.7-0.3-1.3-1.7c2-6.8,4-13.6,6-20.4c0.5-1.6,1.2-2.1,2.9-2.1
		c5.4,0,10.7,0,16.1,0c1.7,0,1.9,0.3,1.4,1.9c-2,6.7-4.1,13.4-6.2,20.1c-0.5,1.7-1.3,2.2-3.1,2.2C112.6,83.4,110,83.4,107.5,83.4z"
		/>
	<path class="st0" d="M48,22.7c4.8-0.8,9.5-1.7,14.3-2.5c0.9-0.2,1.9-0.2,2.9-0.3c1.5-0.2,2.5,0.5,3.2,1.8c1.7,3.3,3.3,6.6,4.9,10
		c1.5,3.2,3,6.4,4.4,9.6c0.1,0.2,0.2,0.5,0.4,1c-2.1,0.4-4.2,0.8-6.3,1.2c-3.7,0.6-7.4,1.1-11.1,1.6c-1.1,0.2-2.6-0.5-3.1-1.5
		C54.4,36.9,51.2,30,48,23.2C48,23.1,48,23,48,22.7z"/>
	<path class="st0" d="M14.2,54.5c0-4.4,4.2-8.6,8.6-8.5c5.4,0.2,8.4,3.9,8.3,8.6c-0.1,4.2-3.3,8.1-8.5,8.1
		C17.5,62.7,13.8,58,14.2,54.5z"/>
	<path class="st0" d="M90.3,40.1c0.2,0.6-0.7,0.7-1.1,0.8c-1.2,0.3-2.5,0.6-3.8,0.7c-1,0.1-2.1-0.2-2.6-1.3
		c-3.1-6.7-6.2-13.3-9.3-20c-0.5-1.2-0.3-1.4,1-1.6c1.1-0.2,2.3-0.4,3.4-0.6c1.5-0.3,2.1,0,2.8,1.5c2.2,4.6,4.3,9.2,6.5,13.8"/>
	<path class="st0" d="M123.4,35.9c-1.5,0-2.3-0.4-2.8-1.5c-3.1-6.5-6.1-13.1-9.2-19.6c-0.7-1.5-0.6-1.5,0.9-1.9
		c1.2-0.3,2.3-0.5,3.5-0.7c1.1-0.2,1.9,0.2,2.4,1.2c3.2,6.7,6.4,13.4,9.6,20.1c0.6,1.2,0.4,1.5-0.9,1.7
		C125.7,35.5,124.4,35.7,123.4,35.9z"/>
	<path class="st0" d="M126.7,83.8c-0.6-0.1-1.7-0.3-2.6-0.7c-0.3-0.1-0.6-0.8-0.5-1c2-6.9,4.1-13.9,6.2-20.8
		c0.3-1.1,2.2-2.2,3.3-2.2c1.8,0,2.1,0.1,3.1,0.2c1,0.1,1.4,0.5,1.1,1.5c-1.3,4.1-2.5,8.2-3.8,12.2c-0.7,2.4-1.4,4.8-2.1,7.1
		C130.7,82.2,129.5,83.8,126.7,83.8z"/>
	<path class="st0" d="M84.8,83.6c1.4-4.6,2.7-8.8,4-13.1c1-3.1,1.9-6.3,2.8-9.4c0.4-1.5,0.8-1.8,2.4-1.8c1.7,0,3.3,0,5.2,0
		c-0.5,1.7-0.9,3.3-1.4,4.9C96,70,94.3,75.8,92.5,81.6c-0.4,1.4-1.2,2-2.7,2C88.2,83.7,86.6,83.6,84.8,83.6z"/>
	<path class="st0" d="M51,83.4c-0.6,0-1.1,0-1.7,0c-1.2-0.1-1.9-1.1-1.6-2.3c2-6.7,4-13.4,6-20c0.4-1.3,1.3-1.8,2.5-1.9
		c1-0.1,1.9-0.2,2.9-0.2c1.6,0,2,0.6,1.6,2.1c-0.5,1.7-1,3.5-1.5,5.2c-1.3,4.6-2.6,9.2-4,13.8c0,0.1,0,0.2-0.1,0.2
		C54.4,83,53.9,83.4,51,83.4z"/>
	<path class="st0" d="M35.3,24.5c2-0.2,3.7-0.6,5.5-0.6c0.7,0,1.7,0.6,2,1.2C46.1,32,49.3,39,52.5,46c0.1,0.1,0.1,0.3,0.2,0.6
		c-2,0.3-3.9,0.7-5.9,0.9c-0.9,0.1-1.1-0.8-1.4-1.4c-2.3-4.9-4.6-9.9-6.9-14.9C37.5,29.1,36.5,26.9,35.3,24.5z"/>
	<path class="st0" d="M111.4,126.3c-12.2,6.9-24,13.6-36,20.5c0-13.7,0-27.1,0-40.8C87.3,112.7,99.2,119.5,111.4,126.3z"/>
</g>
</svg>
