<?xml version="1.0" encoding="utf-8"?>
<!-- Generator: Adobe Illustrator 24.1.3, SVG Export Plug-In . SVG Version: 6.00 Build 0)  -->
<svg version="1.1" id="图层_1" xmlns="http://www.w3.org/2000/svg" xmlns:xlink="http://www.w3.org/1999/xlink" x="0px" y="0px"
	 viewBox="0 0 983 180.2" style="enable-background:new 0 0 983 180.2;" xml:space="preserve">
<style type="text/css">
	.st0{stroke:#FFFFFF;stroke-width:0.25;}
</style>
<g>
	<path d="M983,118.6c-0.4,2.1-0.7,4.2-1.1,6.3c-1.9,10.6-8.3,17.3-18.2,21.1c-4.8,1.8-9.7,2.6-14.8,2.9c-6.8,0.3-13.6-0.2-20-2.6
		c-6.6-2.5-12.1-6.5-16.6-11.8c-0.4-0.5-0.8-0.9-1.1-1.4c-1.7-2.6-1.8-4.8,0.2-7.3c1.9-2.2,4-4.3,6-6.3c0.8-0.8,1.7-1.5,2.7-2.2
		c2.2-1.5,4.6-1.8,7-0.6c1.4,0.7,2.7,1.5,4,2.4c5.6,4,11.8,5.2,18.4,4.5c3.5-0.4,5.4-2.6,5.3-5.8c0-2-1.3-3.4-2.9-4.2
		c-3.2-1.6-6.4-3-9.7-4.3c-4.4-1.7-9-3-13.2-5C918.2,99.1,912.7,89,913.5,77c0.4-5,1.5-9.6,4.3-13.8c3.3-4.9,7.9-8.1,13.5-9.9
		c7.8-2.5,15.8-3.6,24-2.2c8.4,1.4,15.4,5.5,21.3,11.7c2.3,2.4,2.4,5.2,0.2,7.7c-2.6,3-5.8,5.5-9.3,7.5c-2.1,1.2-4.3,1.1-6.5,0.3
		c-1.7-0.6-3.3-1.3-4.9-2.2c-3.2-1.7-6.6-2.8-10.3-2.4c-2.7,0.2-4.2,1.4-4.7,3.8c-0.5,2.3,0.5,4,2.9,5.2c0.7,0.3,1.5,0.6,2.2,0.8
		c7.6,2.3,15.2,4.8,22.2,8.6c2.5,1.4,5,2.9,7.2,4.7c4.4,3.4,6.6,8.1,7.2,13.6c0,0.3,0.2,0.6,0.2,0.9C983,113.8,983,116.2,983,118.6z
		"/>
	<path d="M784.1,137c-0.1,2.1-0.3,4-0.4,5.8c0,8.1,0,16.2,0,24.2c0,1.1-0.1,2.2-0.3,3.3c-0.6,3.1-2.4,5-5.6,5
		c-5.9,0.1-11.8,0-17.7-0.3c-3.1-0.1-4.7-1.9-4.9-5.1c-0.2-4.3-0.1-8.7-0.2-13.1c0-0.6,0-1.2,0-1.8c0-31.6,0-63.3,0-94.9
		c0-1.3,0.1-2.6,0.3-3.8c0.4-2.5,1.6-3.9,4.1-4c3.9-0.3,7.8-0.4,11.7-0.3c2,0,3.7,1.2,4.7,2.9c1.6,2.8,3.1,5.7,4.6,8.6
		c0.8,1.5,0.8,1.6,1.9,0.2c4.5-6.1,10.1-10.6,17.7-12.4c6.4-1.5,12.7-0.8,18.8,1c18.5,5.4,29.4,18.1,33.3,36.5
		c3.7,17.5-1.2,33.1-13.7,45.9c-8.1,8.3-18.2,12.4-29.8,13.1c-7.1,0.4-13.2-1.4-18.7-6c-1.5-1.2-3-2.4-4.5-3.6
		C785.3,138,784.8,137.6,784.1,137z M805,122.9c6.3,0,12-2.7,15.8-7.7c6.5-8.4,6.8-21.6,0.6-30.2c-4-5.5-9.4-8.5-16.2-8.6
		c-13.5-0.2-25,12.4-23,26.2C783.8,114,793.7,122.9,805,122.9z"/>
	<path d="M277.1,68.6c-4.9-1.6-9.5-3.3-14.3-4.6c-5.4-1.5-10.8-1.9-16.2,0.2c-7,2.7-11.8,7.8-14.6,14.6c-4.4,10.7-3.9,21.3,3,30.9
		c6.3,8.8,15.3,11.9,25.9,10.4c1.8-0.3,3.7-0.8,5.5-1.2c0.7-0.1,0.9-0.4,0.9-1.1c0-5,0-9.9-0.1-14.9c0-0.5,0-1,0-1.6
		c0.1-2.7,1.5-4.3,4.2-4.6c1.2-0.1,2.5-0.1,3.7-0.1c4,0,8.1,0,12.1,0c0.1,0,0.2,0,0.2,0c4.7-0.4,6.9,1.6,7,6.3c0,1.7-0.1,3.4-0.1,5
		c0,5.7,0.1,11.4,0.1,17c0,2.6,0,5.2-0.3,7.8c-0.3,3.6-1.9,6.4-5.4,8c-8.1,3.8-16.5,6.6-25.5,7.4c-11.3,1-21.9-1.2-31.8-6.5
		c-12.9-6.9-22.4-16.9-27.4-30.8c-4.4-12-4-24.1-0.3-36.2c3.5-11.5,9.6-21.2,19.4-28.4c8.1-6,17.3-9.4,27.2-10.9
		c13.1-1.9,25.2,0.8,36.4,7.7c0.9,0.6,1.8,1.2,2.6,1.9c1.6,1.4,1.9,3.1,1,5c-0.3,0.6-0.6,1.2-1,1.7c-3.8,5.3-7.6,10.6-11.4,15.8
		C277.6,67.9,277.3,68.3,277.1,68.6z"/>
	<path d="M415.5,108.4c0.6,6.7,5,13.7,13.8,15.4c8.8,1.7,16.8,0,24-5.5c3.5-2.7,6.2-2.7,9.3,0.5c2.4,2.4,4.6,4.9,6.5,7.6
		c2.8,3.9,2.3,7.2-1.5,10c-7.6,5.7-16,9.8-25.5,11.2c-13.7,2-25.6-2.4-36.3-10.7c-7.6-5.9-13.5-13.2-16.6-22.4c-3-8.9-3-18-0.9-27.1
		c2.2-9.7,6.4-18.5,14.1-25.1c20-17.3,49.5-16.4,67.3,6.6c6.1,7.9,9.3,16.9,9.4,26.9c0,2.2-0.2,4.4-0.5,6.6
		c-0.6,3.2-2.5,4.8-5.7,5.1c-2.5,0.2-4.9,0.2-7.4,0.2c-12.8,0-25.5-0.1-38.3,0C423.3,107.8,419.4,108.1,415.5,108.4z M417.2,86.6
		c11.6,0,23.1,0,35,0c-1.2-1.8-2.3-3.5-3.5-5.1c-3.9-5-8.8-8-15.4-7.8C426.4,73.9,418.9,79.8,417.2,86.6z"/>
	<path d="M634.3,100.1c0,26.2-21.5,48-47.2,48.3c-26.7,0.4-49.7-20.3-49.7-48.6c0-27,21.9-49.3,49.1-48.7
		C613,51.7,634.1,71.9,634.3,100.1z M564.6,98.7c0,4.3,0.6,7.9,2,11.4c5.9,14.5,25.1,17.2,34.7,4.9c6.1-7.8,6.5-20.4,1.1-29.2
		c-6.9-11-22.2-12.8-31.4-3.6C566.4,86.9,564.7,92.8,564.6,98.7z"/>
	<path d="M712.4,133c-2.1,2.4-4.1,4.8-6.3,7c-8.6,8.2-18.9,9.9-29.9,6.6c-15-4.5-23.7-14.9-26.4-30.3c-0.8-4.5-0.7-9.2-0.8-13.9
		c-0.1-14.5-0.2-29-0.2-43.4c0-0.6,0-1.2,0.1-1.8c0.5-3.3,2.3-4.9,5.7-4.9c2.7,0,5.4,0,8.2,0.1c2.7,0,5.4,0,8.1,0.1
		c3.9,0.1,5.5,1.7,5.7,5.6c0.1,1.7,0.2,3.4,0.2,5c0,13.6,0,27.1,0,40.7c0,5.1,1.5,9.7,5.2,13.2c6.6,6.3,16.5,5.6,22.5-1.5
		c2.9-3.4,4.4-7.4,4.4-11.9c0.1-11.5,0.1-23,0.1-34.4c0-3-0.1-6-0.1-9c0-1,0.1-2.1,0.3-3.1c0.6-3.3,2.7-5.1,6.2-5.1
		c4.2,0,8.3,0.1,12.5,0.1c1.2,0,2.5-0.1,3.7,0c3.1,0.3,4.9,2,5.3,5.1c0.2,1,0.2,2.1,0.2,3.1c0,26.1,0,52.2,0,78.2
		c0,0.6,0,1.3-0.1,1.9c-0.6,3.8-2.4,5.7-6.3,6.1c-2.7,0.3-5.4,0.4-8.1,0.5c-3.1,0.1-5.5-1.2-6.7-4.1c-1.2-2.8-2.2-5.7-3.3-8.6
		C712.7,133.8,712.5,133.3,712.4,133z"/>
	<path d="M338.3,65.7c1.4-1.7,2.9-3.3,4.1-5c3.2-4.5,7.2-8,12.7-9.3c4.9-1.2,9.7-0.4,14.4,1.2c5.4,1.8,10,4.9,14.4,8.4
		c2.4,1.9,2.9,3.8,1.5,6.5c-2.3,4.4-4.8,8.7-7.5,12.9c-2,3.1-4.3,3.4-7.6,1.6c-1.8-1-3.6-2.3-5.4-3.3c-5.2-3-10.4-3.5-15.8-0.4
		c-5.6,3.3-8.6,8.1-8.6,14.8c0.1,14,0.2,28,0.2,42c0,1.5,0.1,3,0,4.6c-0.3,4.7-2.4,7.1-7,7.3c-5.4,0.2-10.8,0-16.2-0.4
		c-3.7-0.2-5.1-2-5.3-5.7c-0.1-3.2-0.1-6.4-0.1-9.6c0-23.4,0-46.8,0-70.2c0-1.4,0-2.7,0.3-4.1c0.3-1.9,1.5-3.3,3.4-3.9
		c3.9-1.2,7.9-1.6,12-0.8c3.9,0.8,6.2,3.4,7.7,6.9C336.4,61.4,337.3,63.5,338.3,65.7z"/>
	<path d="M494.4,86.2c0-14.8,0-29.7,0-44.5c0-3.4,0-6.8,0-10.2c0-0.5,0.1-1,0.2-1.5c0.7-3.7,2.8-5.4,6.6-5.4c3.3,0,6.6,0.2,9.9,0.2
		c2,0,4-0.2,6,0c3.4,0.4,5.3,2.4,5.6,5.8c0.1,0.8,0.1,1.5,0.1,2.3c0,35.2,0,70.4,0,105.6c0,0.9,0,1.8-0.2,2.7
		c-0.7,3.7-2.7,5.7-6.8,5.8c-5.5,0.2-11,0-16.5-0.3c-3.3-0.2-4.5-1.8-4.9-5c-0.1-1.1-0.2-2.2-0.2-3.4c0-17.4,0-34.7,0-52.1
		C494.3,86.2,494.4,86.2,494.4,86.2z"/>
	<path d="M867.6,99.5c0-12.7,0-25.4,0-38c0-1.4,0.1-2.9,0.3-4.3c0.4-2.7,1.8-4.3,4.5-4.6c6.2-0.6,12.5-0.8,18.8,0
		c3.2,0.4,4.6,2,5,5.2c0.2,1.2,0.2,2.5,0.3,3.7c0,14.3,0,28.6,0,43c0,9-0.1,17.9-0.1,26.9c0,2.6,0.1,5.1,0.1,7.7
		c0,5.1-2.2,7.6-7.2,7.8c-5.2,0.2-10.5,0.1-15.7-0.1c-3.7-0.1-5.2-1.8-5.7-5.4c-0.2-1.3-0.2-2.7-0.2-4.1
		C867.6,124.6,867.6,112,867.6,99.5z"/>
	<path d="M881.9,41.5c-3.2-0.2-6.3-0.2-9.3-0.5c-3.2-0.3-4.8-1.7-4.9-5c-0.2-5.3-0.2-10.7,0.1-16c0.1-3.2,2-4.7,5.5-4.9
		c4.3-0.2,8.5-0.2,12.8-0.2c1.7,0,3.4,0.1,5,0.4c3.2,0.5,4.7,1.8,4.8,5c0.3,5.3,0.3,10.7,0.1,16c-0.1,3-1.7,4.4-4.7,4.7
		C888.1,41.3,884.9,41.4,881.9,41.5z"/>
</g>
<path class="st0" d="M40.2,54.8c1.4,0,2.9,0,4.2,0c40.4,0,80.7,0,121.1,0c7.4,0,10.5,3.1,10.5,10.6c0.1,19.3,0.1,38.7,0.1,58
	c0,14,0,27.8,0,41.8c0,2.1-0.2,4.2-0.9,6.2c-1.3,3.4-4.2,4.3-7.4,4.8c-0.8,0.1-1.7,0.1-2.5,0.1c-49.2,0-98.6,0-147.8,0
	c-1.9,0-3.8-0.1-5.7-0.5c-4.7-0.7-7-3.4-7.2-8.1c0-0.8,0-1.7,0-2.5c0-42.7,0-85.5,0-128.2c0-7.8,3-11.3,10.6-12.6
	c19.2-3,38.5-5.8,57.6-8.8c16.3-2.5,32.6-4.9,48.9-7.4c12.8-1.9,25.6-3.9,38.3-6c7-1.1,9.8,0.8,11,7.7c0.9,5.3,1.7,10.5,2.3,15.8
	c0.5,5.2-2.2,7.9-7.3,8.6c-10.6,1.5-21.3,3.2-31.9,4.8c-13,1.9-26.2,4-39.3,6c-9.8,1.5-19.8,3-29.6,4.5c-7.9,1.3-15.8,2.5-23.7,3.9
	c-0.5,0.1-0.8,0.2-1.3,0.5C40.2,54.4,40.2,54.6,40.2,54.8z M90.6,161.3c22.4,0,44.9,0,67.2,0c3.8,0,3.9,0,3.9-3.8
	c0-22.1,0-44.3,0-66.4c0-3.7-0.1-3.8-3.7-3.8c-45.2,0-90.4,0-135.6-0.1c-2.7,0-3.3,0.9-3.3,3.4c0.1,22.4,0.1,44.9,0,67.2
	c0,2.7,0.8,3.3,3.4,3.3C45.1,161.3,67.8,161.3,90.6,161.3z M90.2,172.4c25.2,0,50.4,0,75.6,0c5.3,0,6.2-1,6.2-6.2
	c0-21.5,0-43.2,0-64.7c0-3.9,0.1-7.8,0-11.7c0-0.8-0.5-2.1-1-2.3c-3.1-1.5-5.5,0.1-5.5,3.5c0,23.2,0,46.6,0,69.8
	c0,4.1-0.3,4.5-4.3,4.5c-47.2,0-94.2,0-141.4,0c-4.1,0-4.3-0.3-4.3-4.5c0-23.4,0-46.7,0-70.1c0-2.9-1-3.5-3.7-3.5
	c-2.6,0-3.1,0.9-3.1,3.3c0.1,24.8,0,49.8,0,74.6c0,1.1,0,2.3,0.1,3.4c0.2,2.1,1.4,3.3,3.4,3.5c1.3,0.1,2.5,0.1,3.7,0.1
	C40.7,172.4,65.4,172.4,90.2,172.4z M123.8,12.2c-0.1,0.6-0.2,0.8-0.1,0.9c3.2,7,6.4,14,9.7,20.9c0.3,0.6,1.7,1.1,2.5,1
	c9.8-1.4,19.8-3,29.6-4.5c3.3-0.6,4.1-1.5,3.8-4.8c-0.6-5-1.5-10.2-2.2-15.2c-0.6-3.8-1.6-4.7-5.3-4.1c-10.8,1.5-21.4,3.1-32.2,4.8
	C127.7,11.4,125.7,11.9,123.8,12.2z M26.6,83.3c5.3,0,10.5-0.1,15.7,0c1.9,0,2.9-0.7,3.4-2.5c1.8-6.5,3.8-12.9,5.8-19.5
	c0.6-2.1,0-2.6-1.9-2.5c-2.9,0.1-5.7,0.1-8.6,0c-1.7-0.1-2.7,0.7-3.5,2.2c-3.1,5.5-9.3,7.8-15.2,5.7c-3.1-1-5.6-3-7-6.1
	c-1.3-2.7-3.5-1.9-5.4-1.7C9.3,59.1,8.6,61,8.6,62c-0.1,6.2,0,12.4-0.1,18.5c0,2.1,0.7,2.6,2.6,2.6C16.3,83.2,21.4,83.3,26.6,83.3z
	 M135.7,82.7c0.7,0.3,0.8,0.5,1,0.5c11.1,0,22.1,0,33.2,0.1c1.8,0,2.3-0.8,2.3-2.5c0-5.4,0-10.6,0-16c0-4.2-1.8-6.1-6.2-6.1
	c-4.9,0-10,0-14.9,0c-8,0-8.1,0-10.5,7.7C138.8,71.8,137.3,77.3,135.7,82.7z M8.7,53.9c4,0.6,4.3,0.3,5.6-3.2
	c1.6-4.5,4.6-7.6,9.3-8.5c5.3-1,9.8,0.5,13,4.9c0.5,0.6,0.8,1.7,1.3,1.8c1.7,0.3,3.3,0.6,5.2,0.3c1.4-0.2,0.3-2.3-0.1-3.2
	C40.2,40.1,37.5,34,34.5,28c-0.5-0.9-2.1-1.9-3-1.8c-6.1,0.8-12,1.7-18,2.9C11,29.5,9,31.2,8.9,33.8C8.6,40.5,8.7,47.1,8.7,53.9z
	 M61.5,82.6c0.5,0.3,0.6,0.6,0.7,0.6c6.2,0,12.4,0.1,18.5,0c0.6,0,1.5-0.9,1.6-1.5c2.2-6.8,4.1-13.6,6.2-20.5
	c0.6-2.1-0.3-2.5-2.2-2.5c-3.4,0.1-6.9,0-10.3,0c-7.4,0-7.4,0-9.6,7.1c-0.1,0.2-0.2,0.6-0.3,0.8C64.7,72.1,63.1,77.4,61.5,82.6z
	 M50.3,23.5c0.1,0.8,0,1.1,0.1,1.4c3.1,6.8,6.2,13.5,9.5,20.1c0.3,0.8,1.9,1.5,2.9,1.4c4.6-0.5,9.3-1.3,13.9-2.1
	c1.4-0.2,2.6-0.6,4.3-1c-2.9-6.1-5.4-11.7-8-17.2c-2.7-5.8-2.9-5.7-9-4.8c-0.7,0.1-1.4,0.1-1.9,0.2C58,22.1,54.1,22.8,50.3,23.5z
	 M98.6,82.6c-0.2,0.5,0.9,0.6,1.3,0.6c5.8,0,11.7,0.1,17.4,0c0.8,0,2.1-1.3,2.4-2.2c2.1-6.5,4-13.2,6-19.7c0.6-1.9,0-2.6-1.9-2.6
	c-5.3,0.1-10.5,0.1-15.7,0c-1.7,0-2.6,0.7-3.1,2.3C102.9,68.2,100.8,75.3,98.6,82.6z M117.7,37.8c-3.5-7.6-6.8-14.5-10.2-21.5
	c-0.3-0.7-1.8-1.4-2.7-1.3c-5.2,0.6-10.3,1.6-15.6,2.2c-2.5,0.3-2.5,1.3-1.7,3.2c2.9,6.1,5.7,12.2,8.6,18.3c0.7,1.6,1.6,2.4,3.5,1.8
	c1.9-0.6,4-0.6,6-0.9C109.5,39.1,113.4,38.6,117.7,37.8z M26.5,46c-4.9,0.1-8.9,4.2-8.8,9c0.1,4.6,4.5,8.6,9,8.5
	c4.9-0.1,8.6-4,8.5-8.9C35.1,49.4,31.5,45.9,26.5,46z M101.5,58.8c-2.6,0-4.8-0.1-6.9,0c-0.5,0-1.3,0.7-1.4,1.1
	c-2.3,7.6-4.6,15-7,23.2c2.1,0,3.5,0,5.2,0c3,0,3.3-0.5,3.8-2.7c0.8-3.3,1.9-6.5,3-9.8C99.2,67,100.2,63.2,101.5,58.8z M74.7,19.7
	c0.1,0.7,0.1,1,0.3,1.4c3.1,6.8,6.2,13.5,9.4,20.1c0.3,0.7,1.6,1.1,2.5,1.3c1.1,0.1,2.3-0.3,3.4-0.3c2.1-0.1,2.7-0.9,1.7-3
	c-3-6.3-6-12.6-8.9-18.8c-0.3-0.7-1.4-1.7-1.9-1.7C79,18.8,77,19.3,74.7,19.7z M123.4,82.5c5.6,2.1,7.9,1,9.3-4
	c1.5-5.3,3.1-10.5,4.7-15.8c1.1-3.8,1.1-3.9-2.7-3.9c-0.8,0-1.6-0.2-2.3,0c-0.9,0.3-2.2,1-2.4,1.7C127.8,67.9,125.6,75.1,123.4,82.5
	z M38.4,25.2c-0.1,0.6-0.2,0.8-0.1,0.9c3.2,7.1,6.5,14.2,9.7,21.2c0.2,0.5,1,1,1.5,1c2.2-0.2,4.2-0.7,6.3-1c0.1-0.5,0.2-0.7,0.1-0.8
	c-3.2-7.1-6.5-14.2-9.8-21.2c-0.2-0.6-1.4-1-2.1-0.9C42.2,24.5,40.2,24.8,38.4,25.2z M111.2,14.2c0.5,1.3,0.8,2.3,1.3,3.2
	c2.7,5.7,5.6,11.4,8.1,17.3c0.9,1.9,1.9,2.6,3.9,2.2c0.8-0.2,1.7-0.3,2.5-0.3c2.2-0.1,2.5-1.1,1.6-3c-3.1-6.3-6.1-12.7-9.2-19.1
	c-0.3-0.7-1.4-1.5-2.1-1.5C115.4,13.2,113.5,13.7,111.2,14.2z M54.9,83.6c1.5,0,2.9-1.3,3.5-4c1.4-5.3,3.1-10.4,4.6-15.6
	s1.5-5.3-4-5c-1,0-2.6,0.7-2.9,1.5c-2.3,7-4.3,14-6.3,21.1c-0.2,1,0,1.5,1.4,1.9C52.5,83.7,53.6,83.6,54.9,83.6z"/>
<path d="M73.8,104.6c0-2.7,1.1-3.4,3.4-2.1c11.2,6.3,22.5,12.6,33.7,19c4,2.3,4.1,3.2,0.1,5.4c-11.3,6.5-22.7,12.8-34.1,19.2
	c-1.9,1.1-2.8,0.7-3-1.7 M77.3,106.6c0,12,0,23.4,0,35.3c10.5-5.9,20.7-11.7,31.3-17.7C98,118.3,87.8,112.5,77.3,106.6z"/>
</svg>
