<?xml version="1.0" encoding="utf-8"?>
<!-- Generator: Adobe Illustrator 24.1.3, SVG Export Plug-In . SVG Version: 6.00 Build 0)  -->
<svg version="1.2" baseProfile="tiny" id="图层_1"
	 xmlns="http://www.w3.org/2000/svg" xmlns:xlink="http://www.w3.org/1999/xlink" x="0px" y="0px" viewBox="0 0 384 75.4"
	 overflow="visible" xml:space="preserve">
<path fill="#FFFFFF" stroke="#FFFFFF" stroke-width="0.25" d="M18.1,24.6c0.6,0,1.1,0,1.7,0c15.9,0,31.9,0,47.8,0
	c2.9,0,4.1,1.2,4.2,4.2c0,7.6,0,15.3,0,22.9c0,5.5,0,11,0,16.5c0,0.8-0.1,1.7-0.4,2.4c-0.5,1.3-1.7,1.7-2.9,1.9
	c-0.3,0-0.7,0.1-1,0.1c-19.4,0-38.9,0-58.3,0c-0.7,0-1.5,0-2.2-0.2c-1.8-0.3-2.8-1.3-2.9-3.2c0-0.3,0-0.7,0-1c0-16.9,0-33.7,0-50.6
	c0-3.1,1.2-4.5,4.2-5c7.6-1.2,15.2-2.3,22.7-3.5c6.4-1,12.9-2,19.3-2.9c5.1-0.8,10.1-1.5,15.2-2.3c2.7-0.4,3.9,0.3,4.3,3
	c0.4,2.1,0.7,4.2,0.9,6.2c0.2,2-0.8,3.1-2.9,3.4c-4.2,0.6-8.4,1.3-12.6,1.9c-5.2,0.8-10.3,1.6-15.5,2.4c-3.9,0.6-7.8,1.2-11.7,1.8
	c-3.1,0.5-6.2,1-9.3,1.5c-0.2,0-0.3,0.1-0.5,0.2C18.1,24.4,18.1,24.5,18.1,24.6z M38,66.6c8.8,0,17.7,0,26.5,0c1.5,0,1.5,0,1.5-1.5
	c0-8.7,0-17.5,0-26.2c0-1.4,0-1.5-1.4-1.5c-17.8,0-35.7,0-53.5,0c-1.1,0-1.3,0.3-1.3,1.4c0,8.8,0,17.7,0,26.5c0,1.1,0.3,1.3,1.4,1.3
	C20.1,66.6,29,66.6,38,66.6z M37.9,71c9.9,0,19.9,0,29.8,0c2.1,0,2.5-0.4,2.5-2.4c0-8.5,0-17,0-25.5c0-1.5,0-3.1,0-4.6
	c0-0.3-0.2-0.8-0.4-0.9c-1.2-0.6-2.2,0-2.2,1.4c0,9.2,0,18.4,0,27.6c0,1.6-0.1,1.7-1.7,1.7c-18.6,0-37.2,0-55.8,0
	c-1.6,0-1.7-0.1-1.7-1.7c0-9.2,0-18.4,0-27.7c0-1.1-0.4-1.4-1.4-1.4c-1,0-1.2,0.4-1.2,1.3c0,9.8,0,19.7,0,29.5c0,0.5,0,0.9,0,1.4
	c0.1,0.8,0.5,1.3,1.4,1.4C7.5,71,8,71,8.5,71C18.3,71,28.1,71,37.9,71z M51.1,7.8c0,0.2-0.1,0.3,0,0.4c1.3,2.8,2.5,5.5,3.8,8.3
	c0.1,0.2,0.7,0.4,1,0.4c3.9-0.6,7.8-1.2,11.7-1.8c1.3-0.2,1.6-0.6,1.5-1.9c-0.2-2-0.6-4-0.9-6c-0.2-1.5-0.6-1.9-2.1-1.6
	c-4.2,0.6-8.5,1.2-12.7,1.9C52.7,7.5,51.9,7.7,51.1,7.8z M12.8,35.8c2.1,0,4.1,0,6.2,0c0.8,0,1.1-0.3,1.3-1c0.7-2.6,1.5-5.1,2.3-7.7
	c0.2-0.8,0-1-0.8-1c-1.1,0-2.3,0-3.4,0c-0.7,0-1.1,0.3-1.4,0.9c-1.2,2.2-3.7,3.1-6,2.3c-1.2-0.4-2.2-1.2-2.7-2.4
	c-0.5-1.1-1.4-0.8-2.1-0.7c-0.2,0-0.5,0.8-0.5,1.2c0,2.4,0,4.9,0,7.3c0,0.8,0.3,1,1,1C8.7,35.8,10.7,35.8,12.8,35.8z M55.8,35.6
	c0.3,0.1,0.3,0.2,0.4,0.2c4.4,0,8.7,0,13.1,0c0.7,0,0.9-0.3,0.9-1c0-2.1,0-4.2,0-6.3c0-1.7-0.7-2.4-2.4-2.4c-2,0-3.9,0-5.9,0
	c-3.2,0-3.2,0-4.1,3C57.1,31.3,56.4,33.5,55.8,35.6z M5.7,24.2c1.6,0.2,1.7,0.1,2.2-1.3c0.6-1.8,1.8-3,3.6-3.3
	c2.1-0.4,3.9,0.2,5.2,1.9c0.2,0.2,0.3,0.7,0.5,0.7c0.7,0.1,1.3,0.1,2,0.1c0-0.4,0.1-0.9,0-1.3c-1.1-2.4-2.2-4.8-3.4-7.1
	c-0.2-0.4-0.8-0.8-1.2-0.7c-2.4,0.3-4.8,0.7-7.1,1.1c-1,0.2-1.8,0.8-1.9,1.9C5.7,18.9,5.7,21.6,5.7,24.2z M26.6,35.6
	c0.2,0.1,0.2,0.2,0.3,0.2c2.4,0,4.9,0,7.3,0c0.2,0,0.6-0.4,0.7-0.6c0.8-2.7,1.6-5.4,2.4-8.1c0.2-0.8-0.1-1-0.9-1c-1.4,0-2.7,0-4.1,0
	c-2.9,0-2.9,0-3.8,2.8c0,0.1-0.1,0.2-0.1,0.3C27.8,31.4,27.2,33.5,26.6,35.6z M22.1,12.2c0,0.3,0,0.4,0.1,0.5
	c1.2,2.7,2.5,5.3,3.7,7.9c0.2,0.3,0.8,0.6,1.1,0.6c1.8-0.2,3.6-0.5,5.5-0.8c0.5-0.1,1.1-0.2,1.7-0.4c-1.1-2.4-2.1-4.6-3.2-6.8
	c-1.1-2.3-1.1-2.3-3.6-1.9c-0.3,0-0.5,0-0.8,0.1C25.2,11.7,23.6,12,22.1,12.2z M41.2,35.6c0.3,0.1,0.4,0.2,0.5,0.2
	c2.3,0,4.6,0.1,6.9,0c0.3,0,0.8-0.5,0.9-0.9c0.8-2.6,1.6-5.2,2.4-7.8c0.2-0.8,0-1-0.8-1c-2.1,0-4.1,0-6.2,0c-0.7,0-1,0.3-1.2,0.9
	C42.9,29.9,42,32.7,41.2,35.6z M48.7,17.9c-1.4-3-2.7-5.8-4-8.5c-0.1-0.3-0.7-0.5-1.1-0.5c-2.1,0.2-4.1,0.6-6.1,0.9
	c-1,0.1-1,0.5-0.7,1.3c1.1,2.4,2.3,4.8,3.4,7.2c0.3,0.6,0.6,0.9,1.4,0.7c0.8-0.2,1.6-0.2,2.3-0.4C45.5,18.4,47,18.2,48.7,17.9z
	 M12.7,21.1c-1.9,0-3.5,1.7-3.5,3.5c0,1.8,1.8,3.4,3.6,3.3c1.9-0.1,3.4-1.6,3.3-3.5C16.1,22.5,14.7,21.1,12.7,21.1z M42.3,26.2
	c-1,0-1.9,0-2.7,0c-0.2,0-0.5,0.3-0.6,0.5c-0.9,3-1.8,5.9-2.8,9.2c0.8,0,1.4,0,2,0c0.8,0.1,1.3-0.2,1.5-1.1c0.3-1.3,0.8-2.6,1.2-3.9
	C41.4,29.4,41.8,27.9,42.3,26.2z M31.8,10.7c0.1,0.3,0.1,0.4,0.1,0.6c1.2,2.7,2.4,5.3,3.7,8c0.1,0.3,0.6,0.5,1,0.5
	c0.4,0,0.9-0.1,1.3-0.2c0.8-0.1,1.1-0.4,0.7-1.2c-1.2-2.5-2.3-5-3.5-7.4c-0.1-0.3-0.5-0.7-0.8-0.7C33.5,10.4,32.6,10.6,31.8,10.7z
	 M51,35.6c2.2,0.8,3.1,0.4,3.7-1.6c0.6-2.1,1.2-4.2,1.9-6.3c0.5-1.5,0.4-1.5-1.1-1.5c-0.3,0-0.6-0.1-0.9,0c-0.4,0.2-0.9,0.4-1,0.7
	C52.7,29.7,51.9,32.6,51,35.6z M17.4,12.9c0,0.2-0.1,0.3,0,0.4c1.3,2.8,2.6,5.6,3.9,8.4c0.1,0.2,0.4,0.4,0.6,0.4
	c0.8-0.1,1.7-0.3,2.5-0.4c0-0.2,0.1-0.3,0-0.3c-1.3-2.8-2.6-5.6-3.9-8.4c-0.1-0.2-0.6-0.4-0.8-0.4C18.9,12.6,18.2,12.8,17.4,12.9z
	 M46.2,8.6c0.2,0.5,0.3,0.9,0.5,1.3c1.1,2.3,2.2,4.5,3.2,6.8c0.3,0.8,0.8,1,1.6,0.9c0.3-0.1,0.7-0.1,1-0.2c0.9-0.1,1-0.4,0.6-1.2
	c-1.2-2.5-2.4-5-3.6-7.5c-0.1-0.3-0.5-0.6-0.8-0.6C47.8,8.2,47,8.4,46.2,8.6z M23.6,35.8c1.1,0.3,1.5-0.4,1.8-1.5
	c0.5-2.1,1.2-4.1,1.8-6.2c0.6-2.1,0.6-2.1-1.6-2c-0.4,0-1.1,0.3-1.1,0.6c-0.9,2.7-1.7,5.5-2.5,8.3c-0.1,0.2,0.3,0.6,0.6,0.8
	C22.7,35.9,23.1,35.8,23.6,35.8z"/>
<path fill="#FFFFFF" stroke="#FFFFFF" stroke-width="0.25" d="M303.4,28.7c0.3-0.1,0.4,0,0.4-0.1c2.9-4.1,6.7-6,11.8-5.2
	c5.3,0.8,9.5,3.4,12.4,7.9c7.7,11.9,0,28.1-13.7,28.9c-3.9,0.2-5.2-0.3-9.8-4.3c-0.1,1-0.2,1.8-0.2,2.5c0,3.2,0,6.3,0,9.5
	c0,2-0.8,2.9-2.9,2.9c-8.8-0.1-7.8,0.8-7.8-7.4c0-12.1,0-24.2,0-36.2c0-3.1,0.4-3.4,3.5-3.5C301,23.6,301,23.6,303.4,28.7z
	 M320.7,42c0-5.3-3.4-9.1-8.1-9.2c-4.8,0-9,4.1-9,8.9c0,5,4.1,9.2,9,9.2C317.2,50.9,320.6,47.1,320.7,42z"/>
<path fill="#FFFFFF" stroke="#FFFFFF" stroke-width="0.25" d="M110.1,29.9c-7.8-3.4-12.1-3-15.7,1.3c-3.2,3.8-3.5,10.1-0.7,14.2
	c2.8,4.1,7.6,5.6,12.9,3.8c0-1.9,0.1-3.9,0-5.9c-0.2-2.1,0.7-2.6,2.6-2.5c1.7,0.1,3.3,0.1,5,0c2-0.2,2.6,0.8,2.6,2.6
	c-0.1,3.7,0.1,7.3-0.1,11c0,1-0.7,2.4-1.5,2.8c-8.2,4.1-16.5,4.6-24.4-0.6c-7.6-5-11.2-13.7-9-22.6c2.1-8.8,7.7-14.4,16.6-16.4
	c5.5-1.2,10.7-0.3,15.6,2.7c1.4,0.9,1.9,1.6,0.8,3.1C113,25.5,111.6,27.8,110.1,29.9z"/>
<path fill="#FFFFFF" stroke="#FFFFFF" stroke-width="0.25" d="M247,41.7c0.2,10.1-7.9,18.5-17.9,18.7c-10.5,0.2-18.9-7.9-19-18.3
	c-0.1-10.1,7.9-18.5,17.9-18.7C238.6,23.2,246.8,31.1,247,41.7z M236.5,41.9c0-5.2-3.3-9-7.9-9.1c-4.8-0.1-8.3,3.6-8.3,8.9
	c0,5.3,3.3,9.1,8.1,9.1C233.1,50.8,236.5,47,236.5,41.9z"/>
<path fill="#FFFFFF" stroke="#FFFFFF" stroke-width="0.25" d="M163.1,45c0.4,3.7,2.9,6.1,6.5,6.4c3,0.3,5.8-0.4,8.2-2.3
	c1.4-1.1,2.4-0.9,3.6,0.3c4.3,4.4,4.1,5.6-1.9,8.7c-6.8,3.5-13.5,2.7-19.5-1.8c-6.4-4.8-8.8-11.4-7-19.2c1.7-7.2,6.3-11.9,13.7-13.6
	c11.3-2.5,22.2,7.7,20.7,19.1c-0.3,2.1-1.8,2.2-3.3,2.2c-5.6,0.1-11.2,0-16.7,0C166.1,45,164.7,45,163.1,45z M177.5,37
	c-2-3.8-4.6-5.5-7.8-5.2c-2.7,0.3-5.2,2.4-6,5.2C168.2,37,172.7,37,177.5,37z"/>
<path fill="#FFFFFF" stroke="#FFFFFF" stroke-width="0.25" d="M277.1,54.2c-3.7,5.5-8.5,7.2-14.5,5.3c-5.3-1.7-9.3-6.8-9.6-12.8
	c-0.3-6.8-0.1-13.6-0.2-20.5c0-1.6,0.7-2.5,2.4-2.4c9.1,0.2,8-1.4,8.1,7.5c0,4.1,0,8.2,0,12.2c0,3.8,2.7,6.7,6.2,6.7
	c3.4,0,6.4-3.1,6.4-6.9c0-5.5,0.1-11,0-16.5c0-2.2,0.7-3.3,3-3.1c1.6,0.1,3.2,0.1,4.7,0c2.2-0.1,2.9,0.9,2.9,3c0,10,0,20,0,30
	c0,2-0.8,2.9-2.8,3C279,60.1,279,60.1,277.1,54.2z"/>
<path fill="#FFFFFF" stroke="#FFFFFF" stroke-width="0.25" d="M366.3,60.6c-4.7,0-8.6-1.5-11.9-4.9c-1.9-2-1.9-2.9,0-4.8
	c0.3-0.4,0.6-0.7,1.1-1.1c1.9-1.9,3-2.2,5.3-0.5c1.7,1.3,3.8,1.9,6.2,1.9c1,0,3-0.1,3.2-2.1c0.2-1.6-1.4-2.2-2.4-2.7
	c-2.2-1.1-4.7-1.6-7-2.6c-4.8-2.2-6.9-6.2-6.4-11.3c0.5-4.6,3.3-7.7,8.5-8.8c5.7-1.3,10.9-0.4,15.2,3.9c0.8,0.8,1.4,2-0.2,3.5
	c-0.2,0.2-0.5,0.4-0.8,0.7c-2.4,1.9-3.1,2.8-6.6,0.9c-1.7-0.9-2.6-1-4-0.9c-0.7,0-1.7,0.3-1.9,1.8c-0.1,1.1,0.7,1.7,1.5,2
	c1,0.4,1.9,0.5,2.8,0.9c1.6,0.6,3.3,1.1,4.9,1.9c5.2,2.4,7.5,4.8,6.8,11.4c-0.7,5-2.3,8-8.1,10C370.8,60.3,369,60.6,366.3,60.6z"/>
<path fill="#FFFFFF" stroke="#FFFFFF" stroke-width="0.25" d="M133.6,29.1c0.7-0.8,1.2-1.3,1.6-1.8c3.3-5,8-4.7,12.5-2.4
	c0.7,0.3,1.3,0.8,1.9,1.2c2.8,1.9,2.8,2.2,1.1,5.2c-0.3,0.6-0.7,1.2-1,1.7c-1.7,2.9-2.4,3-5,1.2c-2.2-1.5-4.5-2-6.8-0.7
	c-2.3,1.3-3.6,3.2-3.5,6.1c0.2,5.7,0,11.3,0.1,17c0,2.3-0.8,3.3-3.2,3.3c-8.5-0.1-7.5,0.6-7.5-7.2c0-8.4,0-16.8,0-25.2
	c0-1.5-0.2-3.1,1.9-3.5c3.3-0.7,5.6-0.1,6.5,1.9C132.7,26.8,133.1,27.8,133.6,29.1z"/>
<path fill="#FFFFFF" stroke="#FFFFFF" stroke-width="0.25" d="M193.6,36.4c0-6.7,0.1-13.3,0-20c0-2.4,0.8-3.4,3.2-3.2
	c1.5,0.1,3,0.1,4.5,0c2.2-0.1,3,1,3,3c0,13.5,0,27,0,40.5c0,2.2-1,3.2-3.2,3.2c-8.6-0.1-7.4,0.7-7.5-7.2
	C193.6,47.2,193.6,41.8,193.6,36.4z"/>
<path fill="#FFFFFF" stroke="#FFFFFF" stroke-width="0.25" d="M347.5,41.9c0,4.9-0.1,9.8,0,14.7c0.1,2.3-0.9,3.2-3.1,3.2
	c-1.4,0-2.8,0-4.2,0c-2.9,0-3.5-0.5-3.5-3.6c0-9.7,0-19.3,0-29c0-2.9,0.6-3.4,3.6-3.4c7.9-0.1,7.2-0.4,7.2,7.1
	C347.5,34.6,347.5,38.2,347.5,41.9z"/>
<path fill="#FFFFFF" stroke="#FFFFFF" stroke-width="0.25" d="M342.1,19.4c-5.5,0-5.5,0-5.5-4.7c0-5.2,0-5.2,5.2-5.2
	c5.6,0,5.6,0,5.6,5C347.5,19.4,347.5,19.4,342.1,19.4z"/>
<path fill="#FFFFFF" d="M31.1,43.2c0-1.2,0.5-1.5,1.5-0.9c5.1,2.8,10.2,5.7,15.2,8.6c1.8,1,1.8,1.4,0.1,2.4
	c-5.1,2.9-10.3,5.8-15.4,8.7c-0.9,0.5-1.3,0.3-1.3-0.8 M32.7,44.1c0,5.4,0,10.6,0,16c4.8-2.7,9.4-5.3,14.1-8
	C42.1,49.3,37.5,46.8,32.7,44.1z"/>
</svg>
